<svg width="1024" height="1024" viewBox="0 0 1024 1024" fill="none" xmlns="http://www.w3.org/2000/svg">
<g clip-path="url(#clip0_75_724)">
<path d="M0 0C337.92 0 675.84 0 1024 0C1024 337.92 1024 675.84 1024 1024C686.08 1024 348.16 1024 0 1024C0 686.08 0 348.16 0 0Z" fill="#E7F8EB"/>
<path d="M597.812 275.688C599.779 275.704 599.779 275.704 601.785 275.72C614.536 275.894 626.405 277.025 638.779 280.191C643.05 281.264 647.343 282.227 651.639 283.194C669.347 287.187 669.347 287.187 677.864 290.014C681.158 291.05 684.467 291.919 687.812 292.774C695.543 294.797 703.111 297.229 710.681 299.782C712.827 300.505 714.975 301.22 717.123 301.934C768.92 319.232 768.92 319.232 781.562 341.813C785.184 349.752 785.284 357.096 782.438 365.313C779.243 372.246 774.914 376.442 767.875 379.375C746.357 387.281 722.423 379.419 701.801 372.258C683.554 365.999 665.152 362.819 646 361C644.025 360.794 642.049 360.587 640.074 360.379C629.071 359.281 618.055 358.716 607 358.5C605.825 358.458 604.649 358.415 603.438 358.371C596.763 358.318 592.646 358.929 587.579 363.427C587.058 363.946 586.537 364.465 586 365C585.255 365.695 584.51 366.39 583.742 367.106C576.838 374.805 570.834 383.157 564.783 391.532C563.096 393.868 561.4 396.199 559.703 398.528C549.368 412.738 539.119 427.041 529.502 441.751C527.522 444.771 525.49 447.717 523.316 450.602C522.886 451.185 522.455 451.767 522.011 452.368C520.83 453.956 519.626 455.528 518.422 457.098C516.662 459.903 516.662 459.903 517.683 462.759C519.101 466.25 520.81 469.492 522.652 472.77C527.24 481.162 530.939 489.846 534.562 498.688C534.888 499.476 535.214 500.264 535.549 501.076C540.155 512.228 544.614 523.404 548.318 534.895C549.03 537.094 549.774 539.281 550.52 541.469C550.994 542.896 551.466 544.323 551.938 545.75C552.338 546.962 552.739 548.174 553.152 549.422C554.199 553.839 555.196 558.873 552.875 563C550.068 564.497 548.122 564.456 545 564C541.52 560.592 540.685 556.053 539.438 551.5C532.188 526.368 523.229 500.992 510.18 478.231C509 476 509 476 509 474C508.34 474 507.68 474 507 474C506.729 474.73 506.459 475.46 506.18 476.211C505.037 478.912 503.743 481.186 502.125 483.625C501.633 484.381 501.14 485.136 500.633 485.914C498.924 488.097 497.356 489.546 495 491C491.63 490.76 490.412 490.412 488 488C486.811 481.701 489.397 478.112 492.844 472.942C493.849 471.486 493.849 471.486 494.875 470C495.507 469.061 496.138 468.121 496.789 467.153C498.122 465.171 499.463 463.194 500.809 461.222C503.183 457.732 505.526 454.222 507.863 450.707C512.984 443.015 518.135 435.343 523.312 427.688C523.994 426.68 523.994 426.68 524.69 425.651C531.504 415.587 538.452 405.644 545.65 395.851C547.372 393.49 549.053 391.1 550.733 388.709C578.464 349.364 578.464 349.364 590.289 346.433C615.126 342.469 643.273 346.556 667.812 350.875C668.515 350.998 669.217 351.121 669.94 351.248C682.34 353.448 694.398 356.464 706.375 360.375C736.042 370.553 736.042 370.553 766 366C769.239 363.235 769.886 361.421 771 357.313C771.448 350.871 769.131 345.505 764.996 340.645C750.742 327.001 730.511 319.788 712 314C710.683 313.553 709.367 313.105 708.051 312.657C696.173 308.688 684.047 305.415 672 302C671.333 301.811 670.666 301.622 669.978 301.427C629.231 289.899 587.079 280.518 548.062 302.125C533.924 310.247 521.062 320.068 509 331C508.373 331.566 507.745 332.131 507.099 332.714C493.912 344.664 481.293 357.306 470.211 371.254C467.046 375.185 463.737 378.988 460.423 382.792C456.439 387.396 452.716 392.179 449 397C447.846 398.478 446.691 399.954 445.535 401.43C439.21 409.52 432.972 417.644 427 426C425.994 427.393 424.988 428.785 423.98 430.176C417.69 438.867 411.428 447.578 405.202 456.315C403.973 458.039 402.742 459.762 401.512 461.485C401.097 462.065 400.683 462.645 400.256 463.243C399.422 464.409 398.587 465.575 397.751 466.74C395.629 469.701 393.529 472.674 391.465 475.676C382.751 488.282 372.601 497.121 360.396 506.212C357.939 508.046 355.494 509.894 353.051 511.746C337.533 523.491 321.668 534.611 305.5 545.438C304.849 545.875 304.198 546.312 303.528 546.762C282.252 561.036 282.252 561.036 275 560C273 558 273 558 272.59 555.606C273 553 273 553 274.879 551.114C275.764 550.519 276.65 549.925 277.562 549.313C278.572 548.623 279.581 547.934 280.621 547.223C281.747 546.481 282.873 545.74 284 545C285.158 544.229 286.316 543.457 287.473 542.684C289.322 541.451 291.172 540.22 293.025 538.994C300.126 534.289 307.066 529.363 314.002 524.42C315.813 523.133 317.63 521.854 319.449 520.578C330.191 513.02 340.598 505.017 351 497C351.713 496.451 352.427 495.902 353.162 495.336C357.142 492.265 361.08 489.148 365 486C366.22 485.066 366.22 485.066 367.465 484.114C374.322 478.558 378.745 471.458 383.554 464.168C385.929 460.607 388.4 457.116 390.875 453.625C391.37 452.926 391.864 452.227 392.374 451.507C400.518 440.018 408.7 428.576 417.352 417.461C419.972 414.067 422.496 410.605 425.023 407.14C431.629 398.086 438.489 389.311 445.628 380.672C447.45 378.452 449.225 376.196 451 373.938C468.675 351.807 488.454 329.19 511 312C512.583 310.688 514.167 309.375 515.75 308.063C539.62 289.161 566.822 275.249 597.812 275.688Z" fill="#0B6B3A"/>
<path d="M322 577C323.138 577.323 324.276 577.647 325.449 577.98C331.32 579.822 336.96 582.188 342.625 584.578C343.739 585.047 344.852 585.517 346 586C346.657 586.278 347.315 586.556 347.992 586.842C359.162 591.516 370.112 594.723 382 597C382.82 597.195 383.639 597.389 384.484 597.59C409.165 601.614 434.496 592.743 457.113 583.887C463.976 581.21 470.885 578.907 478 577C479.077 576.706 479.077 576.706 480.177 576.406C501.735 570.739 524.538 571.158 546 577C547.264 577.339 548.529 577.678 549.832 578.027C559.778 580.954 569.416 584.755 579.116 588.397C594.525 594.13 608.465 597.192 624.969 597.24C626.968 597.25 628.966 597.281 630.965 597.312C645.449 597.369 658.469 594.529 672.197 589.899C674.192 589.227 676.192 588.569 678.193 587.914C683.208 586.268 688.216 584.6 693.219 582.917C736.169 568.481 772.686 572.332 815.028 586.693C836.938 594.322 836.938 594.322 859.875 596.5C860.981 596.503 862.087 596.505 863.226 596.508C874.26 596.378 884.183 593.561 894.437 589.687C895.651 589.238 895.651 589.238 896.889 588.779C902.852 586.533 908.562 583.969 914.238 581.066C917.385 579.851 919.653 579.687 923 580C925.437 581.625 925.437 581.625 927 584C927.25 586.937 927.25 586.937 926 590C920.91 594.119 914.7 596.618 908.687 599.062C907.426 599.58 907.426 599.58 906.139 600.108C904.487 600.782 902.833 601.453 901.177 602.119C899.428 602.827 897.689 603.558 895.953 604.297C870.369 614.626 841.204 610.618 816.171 600.819C790.651 591.193 767.255 585.605 740 586C738.838 586.005 737.677 586.01 736.48 586.016C716.939 586.748 695.271 594.534 677.586 602.547C672.552 604.587 667.403 605.812 662.125 607.062C661.014 607.326 659.904 607.589 658.76 607.86C638.564 612.511 619.303 613.554 599 609C598.108 608.801 597.216 608.602 596.298 608.396C588.393 606.531 580.864 603.931 573.25 601.125C553.235 593.872 533.582 586.879 512.062 586.75C511.239 586.729 510.416 586.709 509.568 586.687C494.711 586.598 480.823 590.662 466.937 595.5C465.493 595.992 464.048 596.483 462.603 596.973C457.256 598.793 451.916 600.622 446.644 602.652C442.069 604.344 437.438 605.721 432.75 607.062C431.885 607.318 431.02 607.574 430.129 607.838C418.905 611.062 408.168 612.33 396.5 612.25C395.367 612.258 394.234 612.265 393.066 612.273C380.63 612.245 369.727 609.906 358 605.875C356.826 605.479 355.653 605.083 354.444 604.675C347.284 602.227 340.244 599.571 333.25 596.687C325.277 593.407 317.456 590.809 309 589C307.437 588.663 307.437 588.663 305.844 588.32C287.237 585.023 268.192 586.238 250 591C248.988 591.263 247.977 591.525 246.934 591.796C237.073 594.391 227.245 597.056 217.687 600.625C187.657 611.785 152.684 616.353 122.41 603.629C101.769 593.77 101.769 593.77 97.9998 590C97.4495 583.948 97.4495 583.948 99.1248 581.062C101.842 579.523 103.908 579.799 107 580C109.57 580.946 109.57 580.946 112.125 582.266C113.072 582.742 114.02 583.219 114.996 583.709C115.987 584.218 116.979 584.726 118 585.25C126.552 589.498 134.623 592.996 144 595C144.749 595.172 145.498 595.344 146.27 595.522C162.472 598.36 181.379 596.973 197 592C197.725 591.77 198.45 591.539 199.197 591.302C202.978 590.082 206.738 588.808 210.492 587.508C215.732 585.717 221.049 584.262 226.395 582.829C230.624 581.687 234.78 580.431 238.929 579.024C264.6 570.458 295.957 569.508 322 577Z" fill="#0B6B3A"/>
<path d="M807 644C808.305 644.499 809.611 644.997 810.918 645.492C813.041 646.303 815.16 647.123 817.273 647.957C831.613 653.443 851.563 655.068 866 649C869.317 647.42 872.609 645.824 875.859 644.11C879.696 642.754 882.08 643.035 886 644C888 646 888 646 888.5 648.813C887.912 652.564 886.701 653.483 883.792 655.767C867.471 666.998 845.354 668.469 826.312 665.125C818.336 663.159 810.807 659.826 803.196 656.776C793.086 652.821 782.928 650.356 772.266 648.414C770.694 648.127 769.128 647.808 767.568 647.463C742.45 642.94 718.536 650.431 695.27 658.824C686.239 662.072 677.169 665.167 668 668C666.68 668.411 666.68 668.411 665.334 668.83C632.383 678.708 601.337 671.925 569.989 660.121C565.426 658.41 560.843 656.757 556.25 655.125C555.127 654.715 555.127 654.715 553.982 654.296C542.292 650.141 531.315 648.525 518.987 648.664C516.739 648.688 514.491 648.685 512.242 648.678C504.938 648.689 498.038 648.89 491 651C489.794 651.335 488.587 651.67 487.344 652.014C478.105 654.612 469.055 657.659 460.011 660.861C431.628 670.91 402.031 679.041 372 670C371.02 669.71 371.02 669.71 370.021 669.414C360.6 666.579 351.459 663.049 342.312 659.438C339.406 658.295 336.498 657.154 333.59 656.015C332.005 655.394 330.422 654.77 328.84 654.142C318.033 649.901 307.496 648.604 296 648C295.195 647.955 294.39 647.91 293.56 647.863C281.188 647.259 269.961 648.907 258 652C257.243 652.193 256.487 652.385 255.707 652.584C247.33 654.741 239.118 657.258 230.938 660.063C204.846 668.972 174.676 674.397 148.668 662.379C137.601 656.659 137.601 656.659 135.688 651.375C136 648 136 648 137.5 645.5C141.043 643.375 143.009 644.146 147 645C150.289 646.524 150.289 646.524 153.625 648.375C169.929 656.918 189.69 657.09 207.34 652.375C208.729 651.906 210.11 651.414 211.484 650.903C215.534 649.45 219.678 648.312 223.81 647.12C228.03 645.895 232.225 644.616 236.406 643.262C273.751 631.254 310.507 629.933 346.859 645.676C352.52 648.063 358.296 650.154 364.059 652.277C365.386 652.772 366.71 653.276 368.031 653.788C397.354 665.101 427.386 657.532 455.728 647.185C492.509 633.871 524.411 629.999 562 642C563.64 642.513 563.64 642.513 565.312 643.035C570.236 644.619 575 646.391 579.75 648.438C587.008 651.517 594.424 653.847 602 656C603.109 656.324 604.217 656.647 605.359 656.981C634.83 664.489 664.148 654.943 691.723 645.139C730.976 631.222 767.607 628.527 807 644Z" fill="#0B6B3A"/>
<path d="M702.485 408.887C720.397 423.935 733.36 445.239 735.813 468.813C735.895 470.541 735.958 472.271 736 474C736.062 474.869 736.124 475.738 736.188 476.633C737.12 497.545 729.367 519.058 716 535C715.325 535.837 714.649 536.674 713.953 537.536C701.787 551.899 685.334 561.678 667.75 567.938C666.959 568.221 666.168 568.503 665.354 568.794C643.649 576.089 617.563 575.942 596.735 566.051C575.472 555.184 559.133 536.873 551.656 514.086C544.541 489.946 545.935 463.276 558 441C572.634 417.337 596.65 399.807 623.66 393.09C651.744 387.013 679.533 391.193 702.485 408.887ZM581 432C580.256 432.731 579.513 433.462 578.746 434.215C563.477 450.262 559.246 469.244 559.625 490.711C559.975 499.027 561.814 506.345 565 514C565.257 514.625 565.514 515.249 565.779 515.893C573.575 534.218 587.683 548.126 605.785 556.25C627.271 564.659 650.589 562.149 671.333 553.118C693.188 543.246 709.622 528.014 718.711 505.583C725.956 485.451 724.888 464.04 715.813 444.75C705.764 425.957 690.886 412.385 670.547 405.743C669.286 405.375 669.286 405.375 668 405C667.263 404.776 666.526 404.552 665.766 404.321C634.697 396.5 602.801 410.505 581 432Z" fill="#0B6B3A"/>
<path d="M291.81 685.327C296.804 686.861 301.311 689.628 305.875 692.125C315.732 697.377 325.511 702.165 336 706C336.62 706.236 337.24 706.473 337.879 706.717C370.455 718.992 405.899 715.514 438 704C440.1 703.341 442.204 702.695 444.312 702.062C447.896 700.984 451.446 699.856 454.969 698.594C482.113 688.932 511.702 684.546 540 692C540.995 692.216 541.99 692.433 543.016 692.656C553.519 695.015 563.607 698.932 573.645 702.769C584.592 706.933 595.577 710.378 607 713C607.76 713.18 608.521 713.36 609.304 713.546C615.357 714.565 621.621 714.243 627.75 714.25C628.496 714.251 629.242 714.253 630.01 714.254C640.984 714.25 651.311 713.65 662 711C662.943 710.798 663.885 710.597 664.857 710.39C673.044 708.615 680.82 706.175 688.688 703.312C690.514 702.654 690.514 702.654 692.376 701.982C704.173 697.669 715.635 692.852 726.75 687C730.316 685.193 732.945 684.131 737 685C739.438 686.562 739.438 686.562 741 689C741.086 692.363 741.086 692.363 740 696C737.664 698.089 735.015 699.311 732.188 700.625C731.417 701.006 730.647 701.387 729.853 701.78C723.683 704.794 717.401 707.514 711 710C709.417 710.646 707.833 711.291 706.25 711.937C704.501 712.627 702.751 713.314 701 714C699.841 714.464 698.682 714.928 697.488 715.406C673.751 724.758 647.595 730.612 622 729C620.692 728.929 619.383 728.858 618.035 728.785C598.186 727.267 578.796 720.306 560.429 713.006C543.309 706.262 527.037 702.871 508.625 702.687C507.693 702.658 506.761 702.629 505.801 702.599C487.815 702.445 470.504 708.427 453.625 714C449.848 715.233 446.069 716.461 442.289 717.687C441.39 717.98 440.49 718.272 439.564 718.573C407.844 728.846 374.43 732.785 342 723C340.85 722.655 340.85 722.655 339.677 722.303C334.691 720.759 329.835 718.964 325 717C324.302 716.718 323.603 716.436 322.884 716.146C313.298 712.217 304.116 707.602 295 702.687C294.037 702.172 293.075 701.656 292.083 701.124C291.19 700.633 290.296 700.142 289.375 699.637C288.578 699.2 287.782 698.764 286.961 698.315C285 697 285 697 283 694C283.188 690.437 283.188 690.437 284 687C287.147 684.902 288.194 684.677 291.81 685.327Z" fill="#0B6B3A"/>
<path d="M478 343C478 347.156 475.718 348.841 473 351.688C472.523 352.199 472.046 352.71 471.555 353.236C470.376 354.497 469.189 355.749 468 357C467.34 356.67 466.68 356.34 466 356C469.96 351.71 473.92 347.42 478 343Z" fill="#0B6B3A"/>
</g>
<defs>
<clipPath id="clip0_75_724">
<rect width="1024" height="1024" fill="white"/>
</clipPath>
</defs>
</svg>
