<svg width="1024" height="1024" viewBox="0 0 1024 1024" fill="none" xmlns="http://www.w3.org/2000/svg">
<g clip-path="url(#clip0_75_622)">
<path d="M0 0C337.92 0 675.84 0 1024 0C1024 337.92 1024 675.84 1024 1024C686.08 1024 348.16 1024 0 1024C0 686.08 0 348.16 0 0Z" fill="#E7F8EB"/>
<path d="M320 393C327.368 399.763 329.753 406.019 331 416C331 430.85 331 445.7 331 461C451.12 461 571.24 461 695 461C695 444.83 695 428.66 695 412C698.156 401.482 701.425 394.336 711 389C718.43 385.285 728.625 385.873 736.535 387.91C742.634 390.308 747.42 393.316 752 398C752 398.66 752 399.32 752 400C752.534 399.855 753.067 399.711 753.617 399.562C764.41 396.873 773.695 397.505 784 402C788.709 405.104 792.626 408.805 795 414C795 414.66 795 415.32 795 416C795.99 415.67 796.98 415.34 798 415C810.062 414.157 818.237 414.313 827.75 422.312C833.277 428.914 836.151 434.345 836.098 443.082C836.095 444.013 836.091 444.945 836.088 445.904C836.08 446.864 836.071 447.824 836.063 448.812C836.058 449.791 836.054 450.77 836.049 451.779C836.037 454.186 836.021 456.593 836 459C836.633 458.843 837.266 458.685 837.918 458.523C842.06 457.82 846.118 457.697 850.313 457.625C851.538 457.569 851.538 457.569 852.787 457.512C860.157 457.406 864.575 459.998 870.024 464.773C870.693 465.566 870.693 465.566 871.375 466.375C871.837 466.898 872.298 467.422 872.774 467.961C877.557 475.912 877.46 488.081 875.277 496.93C872.472 503.677 867.942 507.984 861.439 511.169C856.732 512.773 851.914 512.41 847 512.25C845.939 512.232 844.878 512.214 843.785 512.195C841.189 512.148 838.595 512.083 836 512C836.047 513.039 836.093 514.078 836.141 515.148C836.452 525.088 835.814 533.071 829.75 541.375C824.423 546.46 818.117 549.121 810.742 549.133C809.952 549.134 809.162 549.135 808.348 549.137C807.532 549.133 806.716 549.129 805.875 549.125C805.051 549.129 804.228 549.133 803.379 549.137C797.254 549.127 797.254 549.127 795 548C794.773 548.68 794.546 549.361 794.313 550.062C790.942 557.606 787.158 561.41 779.664 564.906C771.555 567.327 762.464 566.854 754.203 565.273C751.042 564.688 751.042 564.688 748.848 566.293C748.259 566.918 747.67 567.543 747.063 568.187C739.827 575.212 732.557 577.285 722.625 577.152C712.504 576.565 706.463 572.841 699.613 565.488C689.763 550.295 695 527.117 695 512C574.88 512 454.76 512 331 512C331 525.2 331 538.4 331 552C325.38 568.861 325.38 568.861 317.125 573.312C307.426 577.592 297.631 578.477 287.465 575.121C282.003 572.637 277.325 568.987 274 564C273.196 564.216 273.196 564.216 272.375 564.437C261.864 566.927 249.673 568.286 240.055 562.555C234.812 558.588 231.581 554.48 230 548C229.17 548.157 228.34 548.314 227.484 548.476C218.046 549.894 208.401 550.536 199.981 545.472C194.037 541.053 190.658 535.138 189 528C188.558 522.671 188.762 517.334 189 512C187.972 512.039 187.972 512.039 186.924 512.079C183.783 512.184 180.642 512.248 177.5 512.312C176.422 512.354 175.345 512.396 174.234 512.439C167.11 512.548 162.462 511.717 157 507C154.977 505.008 154.977 505.008 153.625 503.125C153.164 502.509 152.702 501.892 152.227 501.258C147.764 493.042 147.351 481.922 149.84 472.984C152.975 466.102 157.97 461.439 164.375 457.562C172.619 455.796 180.846 457.431 189 459C188.984 458.441 188.969 457.882 188.952 457.307C188.889 454.725 188.851 452.144 188.813 449.562C188.787 448.684 188.762 447.805 188.736 446.9C188.634 437.617 190.607 430.601 197.039 423.789C204.614 416.878 212.001 414.699 222.141 414.863C225.157 415.007 228.05 415.344 231 416C231.099 415.422 231.199 414.845 231.301 414.25C233.219 408.078 239.521 402.968 245 400C254.476 396.284 264.321 397.903 274 400C274.224 399.415 274.449 398.829 274.68 398.226C277.838 392.9 285.258 389.207 291.125 387.562C301.365 386.076 311.241 387.061 320 393Z" fill="#0B6B3A"/>
<path d="M331 475C451.12 475 571.24 475 695 475C695 482.59 695 490.18 695 498C574.88 498 454.76 498 331 498C331 490.41 331 482.82 331 475Z" fill="#E7F8EB"/>
<path d="M736.625 402.687C739.785 405.764 741.776 408.352 742.38 412.795C742.384 414.332 742.384 414.332 742.388 415.9C742.398 417.082 742.407 418.263 742.418 419.481C742.411 421.413 742.411 421.413 742.404 423.384C742.41 424.761 742.417 426.138 742.425 427.514C742.443 431.248 742.442 434.982 742.436 438.715C742.433 441.836 742.439 444.957 742.445 448.078C742.459 455.445 742.457 462.812 742.446 470.179C742.435 477.768 742.449 485.356 742.475 492.944C742.498 499.468 742.504 505.992 742.498 512.517C742.495 516.409 742.497 520.302 742.515 524.194C742.53 527.857 742.526 531.52 742.507 535.184C742.502 537.16 742.516 539.136 742.531 541.112C742.472 548.213 741.877 552.983 738 559C734.351 562.292 729.864 564.261 724.938 564.562C718.707 563.672 714.568 561.929 710.562 557C708.3 552.655 707.874 549.289 707.853 544.409C707.846 543.271 707.839 542.133 707.831 540.96C707.828 539.715 707.826 538.471 707.823 537.188C707.816 535.874 707.81 534.56 707.803 533.206C707.782 528.851 707.772 524.495 707.762 520.14C707.758 518.639 707.754 517.137 707.749 515.635C707.73 508.578 707.716 501.522 707.708 494.465C707.698 486.331 707.672 478.197 707.631 470.063C707.601 463.768 707.586 457.473 707.583 451.178C707.581 447.422 707.572 443.666 707.547 439.91C707.523 436.374 707.519 432.838 707.529 429.302C707.53 427.395 707.511 425.488 707.491 423.581C707.534 416.573 708.186 411.941 712 406C718.592 399.729 728.432 398.873 736.625 402.687Z" fill="#E7F8EB"/>
<path d="M310.563 402.5C317.617 409.735 317.579 417.047 317.518 426.665C317.523 428.036 317.53 429.406 317.539 430.777C317.557 434.48 317.55 438.182 317.537 441.884C317.527 445.768 317.537 449.651 317.543 453.535C317.55 460.053 317.541 466.571 317.522 473.089C317.5 480.617 317.507 488.144 317.529 495.672C317.547 502.147 317.55 508.622 317.539 515.097C317.533 518.959 317.532 522.821 317.545 526.683C317.557 530.313 317.549 533.942 317.526 537.572C317.518 539.534 317.53 541.496 317.542 543.458C317.462 551.839 316.562 555.439 310.625 561.375C304.448 564.145 296.784 564.393 290.379 562.036C285.989 558.28 283.411 553.698 282.537 547.959C282.358 544.371 282.336 540.814 282.369 537.222C282.364 535.851 282.357 534.481 282.347 533.11C282.329 529.411 282.342 525.714 282.361 522.015C282.378 518.134 282.369 514.254 282.364 510.373C282.359 503.861 282.375 497.349 282.403 490.837C282.435 483.316 282.435 475.796 282.418 468.276C282.402 461.025 282.409 453.775 282.426 446.525C282.433 443.445 282.432 440.366 282.424 437.287C282.417 433.661 282.429 430.036 282.456 426.411C282.466 424.451 282.457 422.491 282.447 420.532C282.563 409.82 282.563 409.82 287 405C293.312 399.454 303.042 399.334 310.563 402.5Z" fill="#E7F8EB"/>
<path d="M777.105 413.539C780.654 416.276 782.704 419.03 783.37 423.461C783.514 426.539 783.529 429.595 783.502 432.677C783.507 433.847 783.513 435.017 783.518 436.222C783.531 440.085 783.514 443.946 783.496 447.808C783.494 450.496 783.498 453.183 783.501 455.871C783.503 461.502 783.49 467.133 783.467 472.765C783.44 479.263 783.438 485.761 783.45 492.26C783.461 498.525 783.455 504.79 783.44 511.055C783.435 513.715 783.436 516.375 783.439 519.034C783.442 522.754 783.426 526.473 783.404 530.193C783.409 531.29 783.413 532.387 783.418 533.517C783.348 540.699 782.842 546.083 777.625 551.437C772.215 553.769 766.809 553.807 761 553C758.343 551.82 758.343 551.82 756 550C755.385 547.491 755.385 547.491 755.399 544.438C755.392 543.281 755.385 542.124 755.378 540.932C755.396 539.662 755.414 538.392 755.432 537.083C755.434 535.733 755.433 534.383 755.43 533.033C755.429 529.365 755.458 525.699 755.493 522.031C755.524 518.2 755.527 514.368 755.533 510.536C755.549 503.279 755.59 496.023 755.64 488.766C755.696 480.505 755.723 472.244 755.748 463.983C755.801 446.988 755.889 429.994 756 413C763.867 410.968 769.54 409.933 777.105 413.539Z" fill="#E7F8EB"/>
<path d="M257.5 411.75C258.603 411.766 259.707 411.781 260.844 411.797C264 412 264 412 269 413C269 458.21 269 503.42 269 550C263.677 552.662 261.968 553.431 256.437 553.438C255.343 553.457 254.248 553.477 253.121 553.497C249.248 552.881 247.723 551.798 245 549C241.22 543.353 241.569 537.874 241.596 531.323C241.585 529.568 241.585 529.568 241.575 527.778C241.557 523.916 241.56 520.054 241.566 516.192C241.564 514.184 241.559 512.176 241.555 510.168C241.541 503.857 241.542 497.546 241.554 491.236C241.565 484.737 241.551 478.239 241.524 471.741C241.502 466.15 241.496 460.559 241.501 454.968C241.505 451.634 241.501 448.3 241.485 444.966C241.47 441.246 241.481 437.527 241.498 433.807C241.484 432.162 241.484 432.162 241.469 430.484C241.53 424.102 242.193 420.188 246 415C249.772 411.907 252.697 411.638 257.5 411.75Z" fill="#E7F8EB"/>
<path d="M817.34 430.859C820.891 433.299 822.225 435.871 823 440C823.104 442.616 823.157 445.206 823.161 447.823C823.166 448.607 823.171 449.391 823.176 450.199C823.191 452.792 823.198 455.384 823.203 457.976C823.209 459.785 823.215 461.594 823.22 463.403C823.231 467.197 823.237 470.992 823.24 474.786C823.246 479.628 823.27 484.47 823.298 489.311C823.317 493.05 823.322 496.789 823.324 500.528C823.327 502.312 823.335 504.095 823.348 505.879C823.501 528.229 823.501 528.229 817.562 534.625C810.807 537.232 803.983 536.396 797 535C797 500.02 797 465.04 797 429C804.597 427.48 810.432 426.959 817.34 430.859Z" fill="#E7F8EB"/>
<path d="M228 429C228 463.98 228 498.96 228 535C221.903 536.016 216.157 536.785 210 536C205.981 533.026 203.344 529.784 202.385 524.808C201.988 520.881 201.845 517.006 201.839 513.064C201.834 512.304 201.829 511.543 201.824 510.76C201.809 508.267 201.803 505.774 201.797 503.281C201.794 502.424 201.791 501.568 201.788 500.686C201.773 496.158 201.764 491.631 201.76 487.104C201.754 482.44 201.73 477.776 201.702 473.113C201.683 469.513 201.678 465.913 201.677 462.314C201.674 460.594 201.666 458.875 201.652 457.156C201.635 454.749 201.637 452.342 201.644 449.935C201.634 449.233 201.625 448.53 201.616 447.806C201.669 441.424 203.293 436.963 207.5 432.125C213.885 426.698 218.21 429 228 429Z" fill="#E7F8EB"/>
<path d="M173 470.875C173.887 470.872 174.774 470.87 175.688 470.867C180.137 471.046 184.569 471.557 189 472C189 480.91 189 489.82 189 499C185.618 499.103 182.235 499.206 178.75 499.312C177.16 499.381 177.16 499.381 175.538 499.45C168.603 499.553 168.603 499.553 165.391 496.605C163.158 492.423 162.786 489.386 162.75 484.688C162.724 483.371 162.698 482.055 162.672 480.699C163.012 476.863 163.669 475.016 166 472C168.499 470.75 170.208 470.867 173 470.875Z" fill="#E7F8EB"/>
<path d="M851.75 470.562C853.073 470.472 853.073 470.472 854.422 470.379C857.585 471.141 859.098 472.592 861.036 475.175C862.716 478.356 862.643 481.57 862.5 485.062C862.504 486.104 862.504 486.104 862.508 487.166C862.424 491.581 861.703 494.495 859 498C855.734 499.633 852.147 499.143 848.562 499.125C847.786 499.129 847.009 499.133 846.209 499.137C842.889 499.131 840.17 499.057 837 498C837 489.42 837 480.84 837 472C848.517 470.72 848.517 470.72 851.75 470.562Z" fill="#E7F8EB"/>
</g>
<defs>
<clipPath id="clip0_75_622">
<rect width="1024" height="1024" fill="white"/>
</clipPath>
</defs>
</svg>
