<svg width="1024" height="1024" viewBox="0 0 1024 1024" fill="none" xmlns="http://www.w3.org/2000/svg">
<g clip-path="url(#clip0_70_587)">
<path d="M1024 0H0V1024H1024V0Z" fill="#E7F8EB"/>
<path fill-rule="evenodd" clip-rule="evenodd" d="M413 743.5L352 740.5L306 728.5L286 717.5L272.5 705L260.5 685L255.5 668L251.5 635L252.5 602L265.5 529L284.5 477L308.5 431L331.5 397L355.5 368L414 314.5L467 280.5L525 254.5L591 236.5L656 229.5L724 234.5L746 240.5L767 251.5L787.5 273L800.5 304L805.5 342L803.5 398L792.5 454L776.5 499L756.5 538L731.5 576L707.5 605L668 643.5L631 671.5L587 697.5L544 716.5L507 728.5L455 739.5L413 743.5ZM784.5 403L789.5 377L788.5 327L781.5 296L770.5 276L755 262.5L718 249.5L677 245.5L633 247.5L630.5 250L633 252.5L665 269.5L690 287.5L698 283.5L704.5 288L703.5 298L751.5 349L784.5 403ZM374.5 529L430.5 461L423 456.5L412 455.5L408.5 451L409.5 444L414 440.5H425L443 448.5L463.5 428L460 424.5L447 422.5L442.5 418L447 407.5L462 408.5L476 416.5L497.5 397L478.5 387L477.5 382L482 376.5L498 377.5L513 385.5L534.5 368L517.5 359L519 348.5L532 347.5L551 357.5L588 334.5L590.5 332L587 328.5L575 326.5L571.5 323V315L578 310.5L594 314.5L608 324.5L672.5 294L621 263.5L595 253.5H588L549 263.5L501 281.5L461 302.5L421 329.5L379.5 366L342.5 409L312.5 456L292.5 499L296 502.5L336 510.5L374.5 529ZM512.5 710L549 697.5L587 679.5L626 655.5L662 627.5L691.5 599L722.5 561L759.5 497L779.5 440L774.5 424L759.5 391L738.5 358L718.5 334L689 306.5L621 334.5L617.5 339L622.5 350L623.5 363L618 367.5L608.5 364L606.5 352L601 344.5L566 365.5L561.5 370L569.5 389L566 398.5H556L547 379.5L526 393.5L522.5 397L531.5 412L532.5 423L528 427.5L520 426.5L509 407.5L487.5 427L497.5 444V455L492 458.5L486 457.5L478.5 442L475 438.5L472 440.5L454.5 458L465.5 476L466.5 488L463 491.5H455L442 471.5L387.5 538L437.5 584L462.5 615L484.5 650L508.5 707L512.5 710ZM532 678.5H527L522.5 674V667L526 663.5L560 648.5L599 624.5L637 594.5L669.5 562L714.5 501L735.5 460L745.5 433L750 429.5L757 430.5L760.5 439L735.5 496L713.5 532L675.5 579L645 608.5L605 639.5L571 660.5L532 678.5ZM204 560.5H198L193.5 555L202.5 531L241.5 465L252 460.5L256.5 465V472L226.5 519L209.5 556L204 560.5ZM455.5 723L490 716.5L493.5 711L471.5 659L437.5 608L400 568.5L357 537.5L322 522.5L288 517.5L283.5 525L274.5 561L323 574.5L350 589.5L370 605.5L406.5 646L427.5 678L446.5 720L450 723.5L455.5 723ZM193 639.5L184.5 635V628L224.5 563L230 558.5L236 559.5L239.5 563V571L199.5 635L193 639.5ZM409.5 727L426 726.5L430.5 723L415.5 689L382.5 641L346 606.5L328.5 634L306.5 683L298 686.5L292.5 682L291.5 677L302.5 651L330.5 599L324 592.5L299 582.5L273 580.5L270.5 583L267.5 617L268.5 650L274.5 678L285.5 696L311 713.5L337 721.5L371 726.5L409.5 727ZM638 732.5H632L627.5 728L632 717.5L682 680.5L691 678.5L695.5 682V690L690 695.5L638 732.5ZM481 787.5H475L469.5 782L470.5 775L475 771.5L538 754.5L598 727.5L607.5 732V739L603 743.5L580 754.5L546 768.5L481 787.5ZM564 794.5L556.5 789V783L560 779.5L606 757.5H612L616.5 762L613 772.5L564 794.5Z" fill="#0B6B3A"/>
</g>
<defs>
<clipPath id="clip0_70_587">
<rect width="1024" height="1024" fill="white"/>
</clipPath>
</defs>
</svg>
