<svg width="1024" height="1024" viewBox="0 0 1024 1024" fill="none" xmlns="http://www.w3.org/2000/svg">
<g clip-path="url(#clip0_75_677)">
<path d="M0 0C337.92 0 675.84 0 1024 0C1024 337.92 1024 675.84 1024 1024C686.08 1024 348.16 1024 0 1024C0 686.08 0 348.16 0 0Z" fill="#E7F8EB"/>
<path d="M545 300C548.835 301.407 552.5 303.121 556.187 304.875C557.236 305.366 558.285 305.857 559.365 306.363C575.479 313.98 591.116 322.182 606 332C606.755 332.492 607.51 332.985 608.288 333.492C618.994 340.496 628.939 347.942 638.404 356.551C639.856 357.87 641.325 359.168 642.797 360.465C652.407 368.956 661.08 377.911 669 388C670.222 389.532 670.222 389.532 671.469 391.094C677.516 398.743 682.902 406.692 688 415C688.552 415.882 689.103 416.764 689.672 417.672C694.077 425.047 694.077 425.047 693 430C689.361 435.94 685.188 439.501 679.5 443.438C678.707 443.998 677.914 444.559 677.097 445.136C670.563 449.713 663.876 453.96 657 458C656.136 458.552 655.272 459.104 654.383 459.672C650.895 461.616 647.815 461.977 644 461C640.943 459.041 638.524 456.594 636 454C635.328 453.352 634.657 452.703 633.965 452.035C630.723 448.881 627.664 445.646 624.75 442.188C611.738 427.188 595.144 415.754 578 406C578.307 406.72 578.614 407.439 578.93 408.181C580.352 411.515 581.769 414.852 583.187 418.188C583.67 419.319 584.153 420.45 584.65 421.615C589.201 432.336 593.497 443.138 597.187 454.188C597.434 454.904 597.681 455.62 597.935 456.358C603.467 472.864 605.605 493.85 598 510C596.221 513.518 594.265 516.775 592 520C591.572 520.624 591.144 521.248 590.703 521.891C577.459 539.186 552.057 542.728 532 546C532.482 546.924 532.965 547.848 533.462 548.801C546.228 573.289 558.255 597.924 569 623.375C569.274 624.023 569.548 624.67 569.831 625.337C573.258 633.45 576.306 641.614 579 650C579.417 651.175 579.835 652.349 580.265 653.559C583.19 662.113 584.566 670.467 582.062 679.313C571.48 693.101 553.724 698.947 538 705C537.17 705.323 536.34 705.645 535.485 705.978C518.087 712.547 500.277 715.582 481.75 715.625C481.077 715.632 480.405 715.639 479.712 715.646C469.24 715.707 459.975 713.868 450 711C449.066 710.746 448.132 710.492 447.169 710.23C440.378 708.337 435.191 704.744 430.801 699.246C427.194 692.745 428.205 684.883 429.66 677.778C436.215 656.239 451.694 641.331 471 631C470.669 630.504 470.338 630.008 469.997 629.498C458.515 612.229 447.856 594.567 438.892 575.85C438.014 574.03 437.111 572.224 436.203 570.418C424 545.734 424 545.734 424 536C423.433 536.141 422.866 536.282 422.282 536.427C409.211 539.639 396.422 541.962 383 543C383.653 544.727 383.653 544.727 384.32 546.489C388.268 557.005 391.881 567.572 395.171 578.311C396.082 581.268 397.011 584.218 397.941 587.168C409.081 622.679 409.081 622.679 411 636C411.593 636.049 412.187 636.098 412.798 636.149C419.305 636.736 425.652 637.752 432.062 639C433.01 639.178 433.959 639.356 434.935 639.539C441.871 640.872 441.871 640.872 443 642C442.949 643.996 442.949 643.996 442.687 646.438C442.609 647.241 442.53 648.044 442.449 648.871C442 651 442 651 440 653C433.379 653.571 427.221 652.43 420.761 651.068C416.776 650.245 413.068 649.655 409 650C407.647 651.15 406.3 652.308 404.992 653.508C392.578 662.806 372.881 666.538 358 669C356.238 669.31 356.238 669.31 354.441 669.625C344.468 671.095 334.499 671.211 324.437 671.25C323.399 671.258 323.399 671.258 322.34 671.266C303.371 671.378 279.772 670.813 265.129 657.27C260.279 652.001 258.488 646.681 258.691 639.547C260.502 624.6 269.798 612.463 281 603C284.53 600.627 288.126 598.746 292 597C292.869 596.589 293.737 596.178 294.633 595.754C300.095 593.34 304.052 592.837 310 593C309.587 591.847 309.175 590.693 308.75 589.504C286.011 525.487 286.011 525.487 296.441 502.875C315.787 467.685 364.78 448.134 401.114 437.463C406.143 436.056 410.733 434.898 416 435C415.685 434.491 415.369 433.982 415.044 433.457C398.33 406.264 384.155 377.565 373.875 347.313C373.579 346.445 373.283 345.577 372.978 344.684C370.497 337.088 370.497 337.088 371 333C372.125 331.188 372.125 331.188 374 330C379.127 329.359 379.127 329.359 381.531 331.125C383.544 333.695 384.406 336.302 385.496 339.379C385.97 340.693 386.445 342.007 386.92 343.321C387.166 344.012 387.413 344.703 387.668 345.416C401.636 384.379 420.384 422.804 447.09 454.696C447.72 455.456 448.35 456.217 449 457C449.581 457.696 450.163 458.392 450.762 459.11C452 461 452 461 451.875 464.125C451 467 451 467 448 469C445.125 469.438 445.125 469.438 442 469C438.269 465.625 435.065 461.816 431.875 457.938C431.231 457.163 431.231 457.163 430.574 456.373C428.759 454.182 427.07 452.129 425.695 449.629C423.956 447.629 423.956 447.629 420.422 447.594C415.511 447.854 410.943 449.101 406.25 450.5C404.875 450.905 404.875 450.905 403.471 451.318C375.18 459.883 344.07 472.92 322 493C321.189 493.718 320.378 494.436 319.543 495.176C311.896 502.315 306.501 510.454 305.797 521.059C305.676 529.786 306.78 537.573 309 546C309.317 547.225 309.634 548.449 309.961 549.711C316.121 572.632 316.121 572.632 326 594C328.514 595.325 328.514 595.325 331.5 596.313C336.957 598.398 341.077 601.011 345.551 604.742C349.746 606.897 353.242 605.547 357.509 604.22C360.358 603.257 363.179 602.232 366 601.188C366.959 600.844 367.918 600.501 368.906 600.147C374.274 598.182 379.136 596.006 384 593C381.315 571.38 372.226 548.097 362.179 528.883C360.867 525.676 360.691 523.434 361 520C362.062 518.063 362.062 518.063 364 517C367.375 516.813 367.375 516.813 371 518C374.185 521.576 375.91 525.383 377 530C390.591 528.523 403.867 526.908 417 523C418.101 522.753 419.202 522.505 420.336 522.25C423.251 521.256 423.251 521.256 424.031 518.348C424.186 517.264 424.34 516.18 424.5 515.063C427.338 500.234 437.258 488.141 449 479C449.513 478.598 450.025 478.196 450.554 477.782C459.876 470.535 469.563 464.498 480 459C480.603 458.675 481.206 458.35 481.827 458.014C506.971 444.482 534.632 433.569 563.375 432.438C564.397 432.395 565.419 432.351 566.472 432.307C568.981 432.201 571.491 432.099 574 432C573.294 430.19 573.294 430.19 572.574 428.344C571.945 426.729 571.316 425.115 570.687 423.5C570.379 422.709 570.07 421.917 569.752 421.102C569.133 419.512 568.516 417.921 567.901 416.329C567.315 414.814 566.722 413.301 566.122 411.791C564.729 408.222 563.745 404.995 563.375 401.188C562.995 399.019 562.995 399.019 562 397C560.215 395.963 560.215 395.963 558.008 395.453C556.791 395.098 556.791 395.098 555.549 394.735C554.708 394.493 553.867 394.25 553 394C551.422 393.453 549.849 392.892 548.281 392.317C547.493 392.029 546.706 391.74 545.894 391.444C545.104 391.153 544.314 390.862 543.5 390.563C542.71 390.276 541.919 389.989 541.105 389.694C526.226 384.227 526.226 384.227 524 382C523.42 375.742 523.42 375.742 525.562 373C528.974 371.6 531.535 372.163 535 373C536.226 373.283 536.226 373.283 537.476 373.571C571.705 382.152 603.735 403.838 629.25 427.563C629.912 428.176 630.573 428.789 631.255 429.421C635.232 433.164 638.909 437.059 642.448 441.219C643.97 443.024 643.97 443.024 645.7 444.608C647 446 647 446 647 448C655.345 443.811 662.792 438.768 670.287 433.254C673.172 431.142 676.087 429.074 679 427C673.995 416.537 667.12 407.098 660 398C659.36 397.155 658.721 396.309 658.062 395.438C647.375 381.744 634.569 369.509 620.607 359.206C619.039 358.03 617.511 356.801 615.984 355.571C594.715 338.5 569.814 325.529 544.746 315.059C535.855 311.282 535.855 311.282 533 307C533.202 304.302 533.73 302.476 535.062 300.125C538.285 298.254 541.528 299.189 545 300Z" fill="#0B6B3A"/>
<path d="M566.937 445.813C567.647 445.8 568.357 445.787 569.088 445.774C573.448 445.767 577.134 445.914 581 448.001C582.421 450.601 583.353 452.729 584.25 455.501C584.492 456.171 584.735 456.842 584.984 457.532C589.874 471.565 592.647 490.85 586.254 504.751C585.633 505.865 585.633 505.865 585 507.001C584.576 507.805 584.152 508.61 583.715 509.438C577.719 519.592 565.694 525.702 554.519 528.583C529.61 534.232 529.61 534.232 522 532.001C518.451 528.753 516.336 525.162 514 521.001C511.852 518.404 511.461 518.059 508 517.626C505.054 517.785 505.054 517.785 503.062 519.188C501.807 520.956 501.807 520.956 502.086 523.118C503.421 527.328 505.942 530.422 508.562 533.938C513.945 541.38 518.689 548.881 523 557.001C523.68 558.282 523.68 558.282 524.375 559.589C527.963 566.369 531.494 573.178 535 580.001C535.387 580.752 535.774 581.503 536.173 582.277C540.328 590.359 544.231 598.544 548 606.813C548.398 607.681 548.797 608.548 549.208 609.441C549.572 610.251 549.937 611.061 550.312 611.895C550.638 612.616 550.965 613.336 551.301 614.078C552 616.001 552 616.001 552 619.001C550.598 620.348 550.598 620.348 548.633 621.708C547.916 622.21 547.2 622.712 546.462 623.229C545.691 623.752 544.919 624.275 544.125 624.813C543.348 625.347 542.572 625.88 541.772 626.429C539.522 627.965 537.262 629.483 535 631.001C533.951 631.724 532.901 632.447 531.82 633.192C530.972 633.748 530.124 634.304 529.25 634.876C528.175 635.584 528.175 635.584 527.078 636.306C525 637.001 525 637.001 522.449 636.255C520.462 635.238 518.507 634.159 516.562 633.063C509.874 629.701 501.876 627.757 494.406 628.227C490.401 628.467 487.781 628.401 484 627.001C479.41 622.622 476.397 616.874 473.334 611.383C472.141 609.253 470.897 607.174 469.605 605.102C467.328 601.444 465.151 597.735 463 594.001C462.601 593.311 462.201 592.62 461.79 591.909C431.12 538.614 431.12 538.614 437.062 515.063C438.954 509.299 442.267 504.724 446 500.001C446.772 499.02 447.544 498.039 448.34 497.028C469.626 471.75 516.276 451.428 548.32 446.489C554.524 446.1 560.722 445.885 566.937 445.813Z" fill="#E7F8EB"/>
<path d="M204 569.999C205.248 570.423 206.496 570.847 207.781 571.284C217.142 574.587 226.225 578.612 235.328 582.558C242.434 585.631 249.587 588.59 256.742 591.549C262.533 593.95 268.286 596.42 274 598.999C274.313 602.439 274.338 604.425 272.562 607.437C268.672 609.809 265.35 608.886 261 607.999C257.811 606.967 254.798 605.637 251.75 604.249C250.868 603.861 249.986 603.472 249.078 603.072C244.233 600.93 239.413 598.734 234.591 596.541C232.061 595.392 229.53 594.247 226.999 593.101C225.184 592.276 223.375 591.441 221.565 590.606C202.001 581.701 179.962 575.054 158.336 579.804C146.787 584.131 139.793 592.238 134.277 602.984C130.77 611.265 130.46 623.277 133.187 631.874C133.762 633.262 134.367 634.637 135 635.999C135.305 636.771 135.611 637.543 135.926 638.339C146.477 662.627 175.053 675.566 198.061 684.86C205.177 687.618 212.422 689.981 219.7 692.27C223.481 693.469 227.238 694.74 231 695.999C258.763 705.271 286.991 713.144 315.282 720.63C322.928 722.668 330.48 724.953 338.035 727.303C347.289 730.15 356.639 732.617 366 735.082C375.928 737.699 385.8 740.477 395.662 743.329C399.434 744.41 403.217 745.455 407 746.499C413.491 748.291 419.966 750.135 426.437 751.999C433.042 753.899 439.659 755.718 446.312 757.437C454.548 759.567 462.705 761.931 470.864 764.336C478.682 766.633 486.527 768.811 494.393 770.934C499.465 772.303 504.519 773.715 509.562 775.187C514.893 776.728 520.247 778.023 525.672 779.191C528.368 779.846 530.979 780.587 533.629 781.401C539.428 783.166 545.29 784.6 551.187 785.999C552.295 786.262 553.402 786.525 554.542 786.795C570.282 790.503 585.942 793.101 602 794.999C603.649 795.202 603.649 795.202 605.332 795.409C647.522 799.795 698.65 789.937 732.453 763.077C733.293 762.391 734.134 761.706 735 760.999C735.675 760.499 736.351 759.999 737.047 759.484C743.896 754.21 748.765 746.305 751 737.999C751.365 732.023 750.156 726.768 746.687 721.87C727.342 700.42 686.756 698.254 660.27 694.589C639.379 691.691 618.522 688.398 597.75 684.749C596.864 684.598 595.978 684.447 595.065 684.292C589.237 683.236 589.237 683.236 587 680.999C586.43 673.825 586.43 673.825 588.215 671.237C590.656 669.544 591.935 669.792 594.875 670.124C596.474 670.302 596.474 670.302 598.105 670.483C599.391 670.654 600.676 670.824 602 670.999C602.773 671.1 603.546 671.202 604.342 671.306C614.118 672.601 623.844 674.096 633.543 675.874C639.198 676.896 644.871 677.713 650.562 678.499C658.087 679.542 665.52 680.794 672.976 682.253C676.658 682.958 680.354 683.522 684.061 684.072C709.754 687.91 743.524 694.641 760.437 716.062C766.458 724.896 767.264 732.859 765.414 743.308C760.674 761.419 745.432 773.784 729.893 782.924C724.066 786.233 718.062 789.152 712 791.999C710.917 792.522 709.834 793.046 708.719 793.585C690.829 801.792 671.369 806.054 652 808.999C651.278 809.116 650.557 809.233 649.814 809.354C619.433 814.219 588.696 809.835 559 802.999C558.051 802.785 557.103 802.57 556.126 802.349C546.751 800.224 537.475 797.976 528.316 795.038C524.15 793.733 519.956 792.546 515.75 791.374C515.017 791.168 514.284 790.962 513.528 790.749C509.823 789.721 506.119 788.787 502.359 787.976C498.667 787.174 495.098 786.162 491.5 784.999C487.173 783.637 482.907 782.494 478.468 781.582C475.719 780.933 473.069 780.102 470.379 779.241C462.624 776.832 454.784 774.797 446.923 772.767C435.23 769.743 423.562 766.701 412.025 763.121C405.25 761.031 398.414 759.197 391.562 757.374C384.171 755.407 376.823 753.39 369.531 751.077C363.453 749.222 357.322 747.551 351.199 745.849C344.264 743.919 337.34 741.952 330.423 739.959C320.727 737.165 311.025 734.442 301.25 731.937C290.43 729.161 279.721 726.058 269.012 722.886C266.021 722.005 263.027 721.14 260.031 720.28C246.518 716.395 233.106 712.247 219.738 707.891C217.297 707.096 214.854 706.308 212.41 705.523C206.51 703.61 200.763 701.586 195.144 698.948C192.78 697.902 190.386 697.08 187.937 696.249C162.122 686.996 134.604 669.979 122 644.999C115.729 630.631 113.504 616.096 118.746 601.026C125.051 585.803 136.211 574.933 151.375 568.624C167.215 562.532 188.229 564.496 204 569.999Z" fill="#0B6B3A"/>
<path d="M515.535 169.225C528.412 180.093 539.932 192.605 545 209.001C545 209.991 545 210.981 545 212.001C539.884 212.385 535.257 211.994 531 209.001C529.287 206.424 527.982 203.773 526.633 200.989C523.891 195.971 519.982 192.059 516 188.001C515.209 187.173 514.417 186.346 513.602 185.493C498.898 171.408 478.612 164.54 458.398 164.79C437.895 166.063 419.161 174.658 405 189.548C398.321 197.741 393.319 207.451 392 218.001C403.905 222.223 416.706 225.947 429 221.001C430.207 220.011 430.207 220.011 431.438 219.001C445.904 207.71 477.6 211.678 494.938 211.626C496.559 211.614 496.559 211.614 498.214 211.603C509.477 211.539 520.573 211.799 531.746 213.321C532.608 213.435 533.47 213.55 534.359 213.667C539.788 214.502 543.786 215.807 547.695 219.892C551.654 226.293 552.496 231.328 552.375 238.751C552.366 239.638 552.356 240.524 552.346 241.438C552.196 247.993 551.498 253.887 549 260.001C548.636 260.893 548.273 261.785 547.898 262.704C544.742 269.668 541.319 273.729 534.188 276.813C527.541 279.029 521.606 278.668 515.074 276.111C510.545 273.687 507.397 269.531 504.025 265.743C500.836 262.1 500.836 262.1 496.422 260.724C493.114 262.468 490.901 264.946 488.438 267.688C480.429 275.965 473.52 280.194 461.753 280.592C460.783 280.603 459.812 280.614 458.812 280.626C457.886 280.637 456.959 280.649 456.004 280.66C446.46 280.459 439.607 277.188 432.664 270.743C430.176 268.138 428 265.71 428 262.001C427.427 262.017 426.853 262.032 426.263 262.049C402.237 262.62 402.237 262.62 393 258.001C401.193 277.625 411.369 294.198 427.062 308.813C429.206 310.937 429.924 311.704 430.688 314.688C429.738 317.882 428.785 319.144 426 321.001C421.561 320.99 418.855 320.23 415.605 317.298C414.448 316.133 413.309 314.95 412.188 313.751C411.58 313.118 410.973 312.486 410.347 311.834C390.051 290.36 376.4 264.533 376.562 234.563C376.543 233.261 376.523 231.958 376.502 230.616C376.508 218.523 379.141 207.479 384.75 196.751C385.093 196.083 385.436 195.414 385.789 194.726C388.872 188.903 392.55 183.865 397 179.001C397.579 178.331 398.158 177.66 398.754 176.97C427.592 145.578 482.528 142.915 515.535 169.225Z" fill="#0B6B3A"/>
<path d="M386.438 286.124C388 287.999 388 287.999 388.438 290.999C387.945 294.376 387.627 294.977 385 296.999C382.483 297.796 382.483 297.796 379.469 298.394C378.358 298.624 377.246 298.854 376.101 299.091C374.913 299.329 373.725 299.567 372.5 299.812C361.812 302.062 351.538 304.824 341.191 308.288C336.817 309.708 332.385 310.944 327.955 312.175C323.338 313.494 318.933 315.169 314.489 316.986C312.227 317.907 309.954 318.786 307.668 319.648C287.097 327.511 267.31 337.149 248.375 348.374C247.292 349.016 246.209 349.657 245.094 350.318C238.865 354.081 232.96 358.112 227.167 362.517C225 363.999 225 363.999 223 363.999C230.1 374.649 242.308 387.409 254 392.999C258.647 392.6 262.095 391.162 266.199 389.007C267.406 388.383 268.613 387.76 269.82 387.137C270.765 386.645 270.765 386.645 271.728 386.142C344.169 348.52 344.169 348.52 373 351.999C375.557 354.016 375.953 354.675 376.438 357.999C376 360.999 376 360.999 374.508 362.566C371.008 364.567 367.346 365.152 363.438 365.937C339.219 371.286 315.396 380.468 293 390.999C291.93 391.5 290.859 392.001 289.756 392.517C275.124 399.282 275.124 399.282 261.049 407.106C258.578 408.183 256.667 408.159 254 407.999C254.33 408.659 254.66 409.319 255 409.999C255.732 416.955 254.136 421.374 250 426.999C245.583 431.826 240.375 435.456 233.735 436.281C229.043 436.467 225.643 436.226 222 432.999C220.559 430.721 219.303 428.362 218 425.999C216.463 426.74 216.463 426.74 214.895 427.496C213.534 428.143 212.173 428.79 210.813 429.437C210.139 429.762 209.466 430.088 208.772 430.423C199.9 434.621 189.62 435.792 180.043 433.199C172.614 429.878 168.09 424.27 164.563 417.062C162.807 407.506 164.236 399.861 169.508 391.652C177.198 381.226 187.484 373.757 199 367.999C205.471 367.646 205.471 367.646 209 369.999C209.003 369.431 209.005 368.862 209.008 368.277C209.273 362.99 210.136 359.656 213.867 355.847C247.301 326.884 292.329 309.105 334 295.999C335.292 295.584 335.292 295.584 336.611 295.161C346.413 292.014 356.26 289.355 366.313 287.124C367.274 286.909 368.235 286.693 369.225 286.471C381.513 283.852 381.513 283.852 386.438 286.124Z" fill="#0B6B3A"/>
<path d="M143 615C148.885 615.654 152.289 621.258 155.79 625.554C165.35 637.254 175.778 645.811 189 653C189.625 653.343 190.25 653.685 190.894 654.039C202.163 660.142 213.978 664.619 226 669C227.143 669.424 228.287 669.848 229.465 670.285C234.94 672.305 240.446 674.211 246 676C247.254 676.405 248.509 676.81 249.801 677.227C258.096 679.929 258.096 679.929 266.563 682C270.595 682.808 274.429 684.106 278.313 685.438C283.688 687.278 289.055 688.812 294.582 690.125C299.053 691.27 303.459 692.599 307.875 693.938C308.748 694.202 309.62 694.466 310.519 694.738C312.234 695.257 313.949 695.777 315.664 696.296C331.52 701.072 347.536 705.577 363.66 709.359C366 710 366 710 368.222 710.925C371.37 712.143 374.514 712.994 377.781 713.84C379.127 714.192 380.472 714.545 381.816 714.898C382.508 715.079 383.2 715.261 383.913 715.447C387.272 716.337 390.621 717.262 393.969 718.191C394.649 718.38 395.329 718.569 396.03 718.763C398.187 719.362 400.343 719.962 402.5 720.562C404.061 720.996 405.622 721.429 407.182 721.863C415.437 724.158 423.685 726.473 431.926 728.816C435.221 729.753 438.517 730.689 441.813 731.625C442.627 731.856 443.441 732.087 444.28 732.326C456.66 735.835 469.081 739.129 481.554 742.293C488.441 744.05 495.271 745.905 502.063 748C514.593 751.864 527.275 755.169 539.964 758.47C542.027 759.007 544.089 759.548 546.151 760.089C561.969 764.233 577.702 768.263 594 770C594.76 770.091 595.52 770.181 596.303 770.275C619.157 772.731 644.793 773.273 667 767C667.881 766.753 668.762 766.507 669.669 766.252C681.766 762.752 692.983 758.076 704 752C704.942 751.486 705.885 750.971 706.856 750.441C716.113 745.146 723.967 738.196 731.676 730.883C734.048 728.961 736.122 727.968 739 727C739.776 735.015 737.967 739.687 733 746C712.353 768.424 679.651 778.189 650.507 782.615C648.721 782.889 646.94 783.2 645.165 783.535C641.559 784.065 638.018 784.18 634.383 784.203C633.658 784.21 632.932 784.217 632.185 784.225C589.099 784.547 549.042 774.103 507.688 762.987C505.163 762.311 502.637 761.639 500.109 760.974C492.072 758.854 484.107 756.574 476.168 754.113C471.549 752.702 466.951 751.522 462.229 750.514C458.384 749.627 454.64 748.424 450.875 747.25C440.511 744.078 430.051 741.345 419.553 738.655C410.04 736.214 400.573 733.62 391.125 730.938C390.257 730.692 389.388 730.446 388.494 730.193C383.607 728.796 378.784 727.275 373.97 725.645C371.588 724.865 369.192 724.252 366.75 723.688C360.154 722.085 353.646 720.211 347.124 718.333C341.424 716.692 335.718 715.078 330 713.5C304.822 706.535 304.822 706.535 293.125 702.875C287.492 701.114 281.81 699.593 276.094 698.125C271.577 696.92 267.122 695.519 262.659 694.133C260.15 693.356 257.64 692.585 255.127 691.824C187.551 671.348 187.551 671.348 164 652C163.291 651.452 162.582 650.904 161.852 650.34C153.179 643.312 144.09 631.942 142.699 620.531C142.688 618.312 142.688 618.312 143 615Z" fill="#0B6B3A"/>
<path d="M558 631C572.644 666.57 572.644 666.57 570 674C565.626 678.929 560.106 681.763 554.188 684.438C553.359 684.819 552.53 685.2 551.676 685.593C522.83 698.693 489.202 709.04 457.5 700.812C456.363 700.518 456.363 700.518 455.202 700.219C450.234 698.762 445.633 696.798 442 693C439.738 686.09 441.954 679.227 444.938 672.875C452.289 659.101 464.103 646.57 479.106 641.254C490.347 638.285 502.48 639.193 512.848 644.441C518.744 647.937 522.964 651.776 527.051 657.277C528.96 659.293 528.96 659.293 532.106 659.379C535.124 659.283 535.124 659.283 537 657C537.376 653.543 537.454 651.681 535.5 648.75C535.005 648.173 534.51 647.595 534 647C534 646.34 534 645.68 534 645C536.329 643.475 538.648 642.064 541.063 640.688C545.13 638.345 549.087 635.991 552.871 633.207C556 631 556 631 558 631Z" fill="#E7F8EB"/>
<path d="M776 188.999C776.902 189.372 777.805 189.744 778.734 190.128C788.976 194.692 797.815 203.026 803 212.999C803.684 216.3 803.684 216.3 804 218.999C804.981 218.881 805.962 218.762 806.973 218.64C820.326 217.265 832.19 219.034 843.551 226.863C849.124 231.724 854.597 238.232 855.238 245.82C855.426 254.158 854.882 260.5 849.305 266.964C841.479 274.457 831.793 276.983 821.25 277.554C820.497 277.596 819.744 277.638 818.968 277.681C811.311 278.081 803.667 278.141 796 278.129C794.487 278.13 792.974 278.132 791.46 278.134C787.409 278.138 783.358 278.137 779.307 278.134C775.039 278.131 770.772 278.133 766.505 278.135C759.351 278.137 752.197 278.134 745.044 278.13C736.796 278.124 728.549 278.126 720.301 278.131C713.184 278.136 706.067 278.137 698.95 278.134C694.714 278.132 690.479 278.132 686.243 278.136C682.266 278.138 678.289 278.136 674.312 278.131C672.86 278.129 671.408 278.13 669.957 278.132C648.743 278.161 648.743 278.161 644 274.999C643.563 272.562 643.563 272.562 644 269.999C646.926 267.213 648.972 266.623 652.959 266.607C654.46 266.591 654.46 266.591 655.991 266.574C657.084 266.577 658.177 266.58 659.303 266.583C661.039 266.57 661.039 266.57 662.81 266.557C666.667 266.532 670.523 266.527 674.379 266.523C677.098 266.51 679.818 266.493 682.537 266.475C689.014 266.437 695.491 266.413 701.968 266.394C709.835 266.372 717.702 266.335 725.568 266.296C726.613 266.291 726.613 266.291 727.679 266.286C732.579 266.262 737.479 266.236 742.379 266.21C743.415 266.205 743.415 266.205 744.473 266.199C763.218 266.098 781.964 265.996 800.707 265.711C802.89 265.68 805.072 265.653 807.254 265.632C810.238 265.601 813.22 265.552 816.203 265.498C817.056 265.493 817.909 265.487 818.787 265.482C826.14 265.313 833.312 264.249 839.063 259.437C842.216 255.47 842.467 252.657 842.402 247.671C841.706 243.044 839.391 240.116 836 236.999C829.319 232.38 821.045 230.317 813 230.999C810.187 231.738 807.417 232.548 804.649 233.441C801.704 234.062 799.865 233.862 797 232.999C794.29 230.59 793.799 228.245 793.188 224.812C791.308 215.567 784.656 208.205 777 202.999C763.189 196.397 750.069 195.001 735.363 199.679C724.302 204.021 716.937 210.789 711.625 221.374C710.153 224.884 709.761 227.959 709.563 231.749C709.32 235.681 709.099 236.852 706.813 240.249C703.179 242.51 702.152 241.76 698 240.999C682.833 239.938 672.219 240.926 660.25 250.894C658.189 252.823 656.481 254.777 654.75 256.999C652.604 259.676 652.344 259.94 648.75 260.562C646 259.999 646 259.999 644 257.999C643.316 255.014 643.14 253.859 644 250.999C646.644 247.297 649.744 244.166 653 240.999C653.584 240.406 654.168 239.813 654.77 239.202C664.115 230.38 676.552 227.626 689 227.874C689.87 227.883 690.74 227.892 691.637 227.902C693.758 227.925 695.879 227.961 698 227.999C697.95 226.964 697.9 225.929 697.848 224.863C698.261 214.371 705.854 206.044 713 198.999C713.565 198.424 714.129 197.849 714.711 197.257C731.152 181.778 756.219 180.028 776 188.999Z" fill="#0B6B3A"/>
<path d="M767 323.438C773.881 324.728 778.635 330.326 783.375 335.125C784.016 335.758 784.656 336.391 785.316 337.043C785.921 337.65 786.525 338.257 787.148 338.883C787.697 339.433 788.245 339.984 788.81 340.551C790 342 790 342 790 344C790.66 344 791.32 344 792 344C793.384 345.405 793.384 345.405 795.015 347.387C799.334 352.465 804.015 357.125 808.75 361.812C809.599 362.657 810.449 363.502 811.324 364.373C812.89 365.931 814.458 367.487 816.026 369.042C817.688 370.691 819.346 372.343 821 374C825.796 371.004 829.789 367.585 833.875 363.688C835.116 362.519 836.358 361.351 837.601 360.184C838.486 359.352 838.486 359.352 839.388 358.503C841.891 356.169 844.466 353.925 847.058 351.691C850.354 348.82 853.572 345.863 856.801 342.918C859.381 340.668 861.302 339.146 864.687 338.438C869.801 339.306 872.353 342.47 876 346C877.851 347.691 879.706 349.378 881.562 351.062C886.883 355.942 892.155 360.872 897.427 365.802C902.266 370.325 907.138 374.809 912.027 379.277C915.812 382.738 919.57 386.226 923.332 389.711C927.257 393.339 931.245 396.887 935.293 400.379C937 402 937 402 939 405C938.812 408.562 938.812 408.562 938 412C935 414 935 414 931.781 414.039C926.717 412.647 924.144 410.034 920.5 406.375C919.875 405.77 919.249 405.166 918.605 404.543C916.124 402.133 913.678 399.69 911.254 397.224C907.638 393.557 903.901 390.115 900.004 386.75C896.737 383.897 893.591 380.916 890.437 377.938C889.047 376.63 887.656 375.323 886.265 374.016C884.128 372.004 881.99 369.991 879.853 367.979C877.8 366.046 875.744 364.117 873.687 362.188C873.06 361.595 872.432 361.003 871.785 360.392C871.2 359.844 870.614 359.296 870.012 358.73C869.245 358.01 869.245 358.01 868.463 357.274C866.816 355.785 866.816 355.785 864 354C864 354.66 864 355.32 864 356C862.509 357.33 860.953 358.587 859.375 359.812C854.027 364.082 849.01 368.608 844.036 373.306C840.124 376.994 836.111 380.535 832 384C833.71 387.664 835.76 389.935 838.687 392.75C841.643 395.6 844.449 398.49 847.113 401.609C851.946 407.193 857.246 412.317 862.5 417.5C868.899 423.813 875.178 430.141 881 437C882.206 438.33 882.206 438.33 883.437 439.688C885.29 442.429 885.597 443.758 885 447C883.937 448.812 883.937 448.812 882 450C878.875 450.688 878.875 450.688 875 450C869.594 446.304 865.341 441.371 861.144 436.398C857.679 432.523 853.951 428.91 850.237 425.275C847.239 422.32 844.369 419.318 841.625 416.125C837.645 411.515 833.34 407.268 829 403C820.432 394.576 820.432 394.576 816.687 390.188C811.784 384.482 806.349 379.281 801 374C788.993 362.147 788.993 362.147 783.605 355.832C780.746 352.569 777.65 349.545 774.562 346.5C773.608 345.553 773.608 345.553 772.635 344.586C771.092 343.055 769.546 341.527 768 340C765.212 341.289 763.01 342.686 760.715 344.723C760.107 345.257 759.5 345.791 758.874 346.341C758.235 346.909 757.596 347.477 756.937 348.062C752.414 352.039 747.875 355.967 743.187 359.75C739.698 362.575 736.32 365.477 733 368.5C728.789 372.334 724.439 375.947 720.012 379.527C715.872 382.926 711.819 386.421 707.77 389.927C706.188 391.294 704.596 392.649 703 394C702.29 394.603 701.579 395.207 700.848 395.828C697.535 397.929 694.839 397.372 691 397C688.654 393.482 688.42 392.142 689 388C692.666 383.943 696.858 380.434 701 376.875C701.656 376.309 702.313 375.743 702.989 375.159C711.065 368.205 719.168 361.286 727.437 354.562C732.295 350.61 737.047 346.545 741.791 342.457C746.356 338.532 750.978 334.69 755.668 330.914C757.619 329.313 759.461 327.65 761.312 325.938C764 324 764 324 767 323.438Z" fill="#0B6B3A"/>
<path d="M332 610C336.802 613.152 341.298 616.387 344.188 621.438C345.861 624.405 345.861 624.405 349.75 624.875C350.823 624.917 351.895 624.958 353 625C353.371 623.67 353.371 623.67 353.75 622.313C356.394 617.025 362.819 615.899 368 614C370.109 613.136 372.213 612.261 374.313 611.375C375.297 610.967 376.282 610.558 377.297 610.137C379.567 609.183 381.815 608.193 384.063 607.188C387 606 387 606 390 606C392.744 612.778 394.546 619.646 396.25 626.75C396.531 627.873 396.812 628.996 397.102 630.153C397.492 631.771 397.492 631.771 397.891 633.422C398.128 634.398 398.366 635.373 398.61 636.378C399.001 639.009 398.948 640.536 398 643C391.712 648.368 382.786 650.008 375 652C373.702 652.354 372.403 652.71 371.106 653.067C369.779 653.421 368.452 653.774 367.125 654.125C365.952 654.437 364.779 654.749 363.57 655.071C351.197 657.817 338.742 658.349 326.119 658.316C323.634 658.313 321.149 658.336 318.664 658.362C303.378 658.422 286.858 657.841 273.938 648.875C271.533 645.308 271.227 643.067 271.449 638.821C273.854 626.507 282.152 617.702 292.082 610.801C305.092 602.772 318.542 602.931 332 610Z" fill="#E7F8EB"/>
<path d="M206 368C206.99 368.66 207.98 369.32 209 370C209.66 369.34 210.32 368.68 211 368C211.371 368.846 211.743 369.691 212.125 370.562C215.579 376.894 220.351 381.496 225.817 386.125C228.17 388.146 230.42 390.258 232.688 392.375C244.304 403.135 244.304 403.135 259 407C259 407.33 259 407.66 259 408C257.35 408 255.7 408 254 408C254.33 408.66 254.66 409.32 255 410C255.732 416.956 254.136 421.375 250 427C245.583 431.826 240.375 435.457 233.735 436.281C229.043 436.468 225.643 436.226 222 433C220.559 430.722 219.303 428.363 218 426C216.975 426.494 215.951 426.987 214.895 427.496C213.534 428.143 212.173 428.791 210.813 429.437C210.139 429.763 209.466 430.088 208.772 430.424C199.9 434.622 189.62 435.793 180.043 433.199C172.614 429.878 168.09 424.27 164.563 417.062C162.807 407.506 164.236 399.861 169.508 391.652C177.457 380.875 191.871 367.256 206 368Z" fill="#E7F8EB"/>
<path d="M931 494.999C933 496.999 933 496.999 933.562 499.249C932.484 504.524 927.51 506.997 923.273 509.808C914.827 515.122 906.101 519.957 897.338 524.726C895.815 525.555 894.294 526.389 892.775 527.226C871.37 539.004 848.834 548.38 826 556.999C825.318 557.259 824.636 557.518 823.933 557.786C818.673 559.777 813.373 561.647 808.062 563.499C807.22 563.794 806.378 564.09 805.51 564.394C797.472 567.203 789.428 569.937 781.25 572.312C780.524 572.523 779.798 572.734 779.049 572.951C777.494 573.402 775.938 573.853 774.382 574.303C772.024 574.992 769.672 575.699 767.32 576.409C723.691 589.436 667.884 603.988 622 597.999C620 595.999 620 595.999 619.688 593.562C620.06 590.504 620.649 589.894 623 587.999C625.941 587.424 628.737 587.019 631.707 586.718C633.01 586.57 633.01 586.57 634.34 586.419C637.163 586.101 639.988 585.8 642.812 585.499C644.748 585.283 646.684 585.065 648.619 584.845C651.483 584.521 654.348 584.197 657.212 583.878C666.416 582.852 675.591 581.665 684.754 580.324C686.98 580.002 689.208 579.699 691.438 579.398C723.737 574.851 757.147 566.541 788 555.999C789.323 555.55 790.646 555.102 791.969 554.653C802.325 551.139 812.672 547.595 823 543.999C824.243 543.568 825.486 543.136 826.767 542.691C839.084 538.361 850.924 533.205 862.75 527.687C863.365 527.4 863.98 527.114 864.613 526.819C874.159 522.37 883.642 517.831 893 512.999C893.901 512.536 894.802 512.073 895.731 511.596C898.782 510.028 901.829 508.452 904.875 506.874C906.303 506.137 906.303 506.137 907.759 505.386C913.251 502.524 918.532 499.498 923.715 496.105C926.382 494.814 928.072 494.636 931 494.999Z" fill="#0B6B3A"/>
<path d="M488.732 223.739C491.566 223.75 494.399 223.739 497.233 223.727C506.739 223.718 516.179 224.015 525.653 224.828C526.534 224.897 527.415 224.967 528.324 225.038C536.276 225.809 536.276 225.809 539 229C539.502 231.002 539.502 231.002 539.496 233.281C539.499 234.119 539.502 234.956 539.505 235.818C539.483 236.703 539.461 237.588 539.438 238.5C539.424 239.401 539.41 240.302 539.396 241.231C539.172 249.298 538.394 256.301 533.938 263.188C529.619 265.852 525.934 266.083 521 265C516.783 262.652 513.965 258.989 510.938 255.313C507.696 251.467 504.794 249.519 499.75 248.582C493.196 248.039 489.367 250.051 484.235 253.996C482.249 255.778 480.639 257.531 479 259.625C474.445 265.2 469.165 267.644 462.043 268.445C454.91 268.768 448.672 268.77 443 264C436.723 257.383 436.661 251.065 436.688 242.375C436.672 241.326 436.656 240.277 436.639 239.195C436.638 238.19 436.638 237.185 436.637 236.149C436.634 235.233 436.631 234.317 436.628 233.373C437 231 437 231 438.085 229.303C443.549 225.585 450.635 225.439 457.028 224.891C458.467 224.765 458.467 224.765 459.936 224.636C469.536 223.858 479.106 223.696 488.732 223.739Z" fill="#E7F8EB"/>
<path d="M897 563.001C897.99 563.496 897.99 563.496 899 564.001C899.375 566.188 899.375 566.188 899 569.001C894.437 573.345 889.274 576.406 883.812 579.501C882.905 580.016 881.998 580.53 881.064 581.061C855.022 595.607 827.445 606.816 799.492 617.08C797.26 617.905 795.036 618.749 792.812 619.598C788.27 621.306 783.643 622.701 779 624.106C775.672 625.127 772.405 626.21 769.16 627.473C764.347 629.309 759.412 630.617 754.438 631.938C753.462 632.2 752.486 632.462 751.48 632.731C749.532 633.253 747.584 633.774 745.635 634.293C743.444 634.882 741.258 635.485 739.074 636.102C722.124 640.825 704.808 643.957 687.475 646.903C685.881 647.174 684.288 647.447 682.694 647.722C665.649 650.654 665.649 650.654 659 650.001C656.713 648.162 656.077 647.44 655.562 644.501C656 642.001 656 642.001 657.516 640.47C660.894 638.472 664.386 637.773 668.188 637.001C668.886 636.849 669.584 636.697 670.303 636.54C674.812 635.581 679.34 634.761 683.882 633.976C693.351 632.339 702.744 630.457 712.125 628.376C712.892 628.206 713.659 628.037 714.449 627.862C729.376 624.544 743.993 620.442 758.622 616.009C762.632 614.812 766.662 613.7 770.698 612.595C779.546 610.161 788.014 607.199 796.52 603.763C800.256 602.264 804.031 600.951 807.85 599.679C821.452 595.129 834.497 589.315 847.596 583.508C850.513 582.217 853.434 580.937 856.359 579.665C867.192 574.936 877.795 569.803 888.25 564.286C891.415 562.807 893.545 562.687 897 563.001Z" fill="#0B6B3A"/>
<path d="M700.289 433.125C714.002 436.358 725.059 450.035 732.371 461.203C736.854 468.901 736.703 476.337 736 485C733.836 492.93 727.845 497.864 721 502C713.95 505.597 704.679 504.999 697 504C692.574 502.534 688.885 500.551 685 498C683.335 496.997 681.669 495.996 680 495C679.773 495.598 679.546 496.196 679.313 496.813C677.54 499.767 676.184 500.645 673 502C667.734 503.033 663.875 502.324 659.313 499.5C651.339 493.537 646.831 485.479 644 476C643.56 472.603 643.361 469.377 644 466C646 464 646 464 649.5 463.75C653 464 653 464 655 466C655.633 468.006 656.208 470.03 656.75 472.063C658.649 478.453 661.064 485.772 667.188 489.238C668.085 489.615 668.085 489.615 669 490C668.67 488.989 668.34 487.979 668 486.938C666.771 482.578 665.85 478.165 668.063 474C670.464 472.761 672.332 472.602 674.984 473.098C678.616 474.723 680.987 477.773 683.668 480.641C690.363 487.415 697.831 491.26 707.438 491.375C713.216 491.283 716.484 490.613 721 487C723.789 482.562 723.496 478.076 723 473C719.05 460.271 708.435 451.611 697.574 444.797C695 443 695 443 693 440C693.188 437.438 693.188 437.438 694 435C697 433 697 433 700.289 433.125Z" fill="#0B6B3A"/>
<path d="M206 368C208.512 369.54 208.873 370.561 209.688 373.375C209 376 209 376 205.75 378.313C204.167 379.21 202.584 380.105 201 381C190.557 387.526 180.93 393.742 177 406C176.659 409.261 176.875 411.915 178 415C180.198 417.706 181.896 419.448 185 421C198.701 422.323 210.414 416.65 221.313 408.625C224.498 406.699 226.339 406.501 230 407C232 409 232 409 232.188 412.188C232.007 415.851 231.591 419.382 231 423C235.448 422.492 237.836 421.165 241 418C242.196 415.945 243.223 413.873 244.203 411.707C245 410 245 410 246 409C252.526 408.763 252.526 408.763 255 410C255.635 416.978 254.155 421.349 250 427C245.583 431.826 240.375 435.457 233.735 436.281C229.043 436.468 225.643 436.227 222 433C220.559 430.722 219.303 428.363 218 426C216.975 426.494 215.951 426.988 214.895 427.496C213.534 428.144 212.173 428.791 210.813 429.438C210.139 429.763 209.466 430.089 208.772 430.424C199.9 434.622 189.62 435.793 180.043 433.199C172.614 429.879 168.09 424.271 164.563 417.063C162.807 407.506 164.236 399.862 169.508 391.653C177.342 381.031 191.986 367.017 206 368Z" fill="#0B6B3A"/>
<path d="M530.625 279.5C534 280 534 280 537 282C536.447 292.501 527.969 300.903 521 308C520.312 308.713 519.623 309.426 518.914 310.16C507.529 321.143 493.814 325.445 478.359 325.361C457.955 324.905 441.158 313.657 427.312 299.375C424.663 296.281 424.036 295.224 423.375 291.062C424 288 424 288 426 286C429.242 285.5 429.242 285.5 433 286C435.346 287.958 437.149 289.724 439.125 292C445.148 298.452 451.089 302.935 459 307C459.856 307.452 460.712 307.905 461.594 308.371C471.936 312.984 485.429 312.721 496 309C508.525 303.294 515.816 295.141 523.422 283.898C525.716 280.755 526.678 280.044 530.625 279.5Z" fill="#0B6B3A"/>
<path d="M833 635.999C833.99 636.989 833.99 636.989 835 637.999C834.938 640.374 834.938 640.374 834 642.999C830.356 646.32 826.332 648.586 821.938 650.749C821.251 651.09 820.564 651.431 819.856 651.782C811.963 655.617 803.823 658.837 795.635 661.982C793.749 662.71 791.868 663.451 789.99 664.2C782.063 667.331 774.07 669.915 765.875 672.249C764.098 672.775 764.098 672.775 762.285 673.312C747.356 677.591 747.356 677.591 741 676.999C738.681 675.24 738.091 674.441 737.5 671.562C738 668.999 738 668.999 739.848 667.058C744.272 664.169 748.884 662.938 753.938 661.499C754.973 661.194 756.008 660.888 757.075 660.573C761.359 659.315 765.651 658.087 769.957 656.905C778.311 654.607 786.359 651.743 794.457 648.683C797.482 647.544 800.519 646.482 803.59 645.476C807.713 644.12 811.733 642.576 815.75 640.937C816.383 640.681 817.016 640.425 817.668 640.161C820.38 639.065 823.088 637.962 825.785 636.831C828.366 635.862 830.265 635.704 833 635.999Z" fill="#0B6B3A"/>
<path d="M772 371C779.841 372.26 784.951 380.731 789.36 386.748C794.281 393.657 798.848 400.775 803.188 408.062C803.657 408.835 804.127 409.608 804.611 410.404C807.48 415.357 808.786 419.255 809 425C807.938 427.062 807.938 427.062 806 428C802.764 428.221 800.854 427.735 798.371 425.598C786.813 412.913 771.861 392.505 771.75 374.75C771.833 373.513 771.915 372.275 772 371Z" fill="#0B6B3A"/>
<path d="M389 230C389.909 230.29 389.909 230.29 390.836 230.586C401.936 234.035 412.411 235.368 424 236C424 240.62 424 245.24 424 250C411.962 250.491 399.471 250.981 389 244C388.707 240.742 388.707 240.742 388.812 236.875C388.839 235.594 388.866 234.312 388.894 232.992C388.929 232.005 388.964 231.017 389 230Z" fill="#E7F8EB"/>
<path d="M318 478C318 481 318 481 316.715 482.626C315.835 483.482 315.835 483.482 314.938 484.355C314.306 484.977 313.674 485.599 313.023 486.24C312.356 486.883 311.688 487.525 311 488.188C309.998 489.169 309.998 489.169 308.977 490.17C307.324 491.787 305.665 493.396 304 495C303.34 494.67 302.68 494.34 302 494C307.033 488.225 312.037 482.821 318 478Z" fill="#0B6B3A"/>
<path d="M459 638C459 641 459 641 456.918 643.156C455.566 644.316 455.566 644.316 454.188 645.5C449.98 649.128 449.98 649.128 446 653C445.34 652.67 444.68 652.34 444 652C448.242 646.344 453.405 642.281 459 638Z" fill="#0B6B3A"/>
<path d="M138 576C138 579 138 579 135.812 581.48C134.884 582.374 133.956 583.267 133 584.188C132.072 585.089 131.144 585.99 130.188 586.918C129.466 587.605 128.744 588.292 128 589C127.34 588.67 126.68 588.34 126 588C127.433 586.371 128.872 584.747 130.312 583.125C131.113 582.22 131.914 581.315 132.738 580.383C135 578 135 578 138 576Z" fill="#0B6B3A"/>
<path d="M449 479C449 482 449 482 446.812 484.48C445.884 485.374 444.956 486.267 444 487.188C443.072 488.089 442.144 488.99 441.188 489.918C440.466 490.605 439.744 491.292 439 492C438.34 491.67 437.68 491.34 437 491C440.422 486.295 444.579 482.723 449 479Z" fill="#0B6B3A"/>
<path d="M770 323.999C770 324.329 770 324.659 770 324.999C768.639 325.37 768.639 325.37 767.25 325.749C763.896 327.039 762.323 328.319 760 330.999C759.01 330.669 758.02 330.339 757 329.999C763.929 323.111 763.929 323.111 770 323.999Z" fill="#0B6B3A"/>
<path d="M631 588.001C631 588.331 631 588.661 631 589.001C628.69 589.001 626.38 589.001 624 589.001C623.711 589.599 623.422 590.197 623.125 590.813C622 593.001 622 593.001 620 596.001C619.784 593.334 619.691 591.561 621 589.188C624.24 587.265 627.282 587.818 631 588.001Z" fill="#0B6B3A"/>
<path d="M249 406C252.3 406.33 255.6 406.66 259 407C259 407.33 259 407.66 259 408C257.35 408 255.7 408 254 408C253.67 408.66 253.34 409.32 253 410C251.35 409.67 249.7 409.34 248 409C248.33 408.01 248.66 407.02 249 406Z" fill="#E7F8EB"/>
<path d="M143 615C144.32 615.33 145.64 615.66 147 616C145.515 619.465 145.515 619.465 144 623C143.67 623 143.34 623 143 623C143 620.36 143 617.72 143 615Z" fill="#0B6B3A"/>
<path d="M503 518C503.66 518 504.32 518 505 518C504.67 520.97 504.34 523.94 504 527C503.01 526.34 502.02 525.68 501 525C501.875 519.125 501.875 519.125 503 518Z" fill="#0B6B3A"/>
</g>
<defs>
<clipPath id="clip0_75_677">
<rect width="1024" height="1024" fill="white"/>
</clipPath>
</defs>
</svg>
