<svg width="1024" height="1024" viewBox="0 0 1024 1024" fill="none" xmlns="http://www.w3.org/2000/svg">
<g clip-path="url(#clip0_75_732)">
<path d="M0 0C337.92 0 675.84 0 1024 0C1024 337.92 1024 675.84 1024 1024C686.08 1024 348.16 1024 0 1024C0 686.08 0 348.16 0 0Z" fill="#E7F8EB"/>
<path d="M500.125 298.687C500.865 298.681 501.605 298.676 502.367 298.67C507.797 298.741 512.75 299.66 518 301C518.756 301.181 519.511 301.362 520.29 301.549C546.83 308.039 571.975 320.53 593 338C593.892 338.739 593.892 338.739 594.802 339.494C626.405 365.853 626.405 365.853 628.437 382.605C628.812 394.275 626.606 401.578 618.75 410.187C616.864 412.159 614.94 414.079 613 416C612.078 416.955 612.078 416.955 611.137 417.929C596.831 431.675 576.055 440.119 557.623 446.655C555.716 447.354 553.853 448.168 552 449C551.67 449.99 551.34 450.98 551 452C551.652 452.081 552.305 452.163 552.977 452.247C557.09 453.271 560.6 455.115 564.363 457.035C565.155 457.433 565.947 457.831 566.763 458.241C569.282 459.509 571.797 460.785 574.312 462.062C576.024 462.925 577.735 463.788 579.447 464.65C583.635 466.76 587.818 468.878 592 471C596.488 466.589 599.224 462.596 602 457C602.374 456.318 602.748 455.636 603.133 454.933C606.482 447.998 606.809 440.712 607.317 433.135C607.38 432.245 607.443 431.354 607.508 430.437C607.58 429.229 607.58 429.229 607.653 427.996C608 426 608 426 610 424C612.817 423.638 614.345 423.496 616.637 425.259C618.314 427.4 618.374 428.474 618.363 431.167C618.363 431.979 618.362 432.79 618.361 433.626C618.345 434.471 618.329 435.316 618.312 436.187C618.317 437.425 618.317 437.425 618.322 438.689C618.206 452.138 612.669 463.205 605 474C604.34 474.99 603.68 475.98 603 477C603.7 477.273 604.4 477.546 605.122 477.827C609.977 479.805 614.707 482.057 619.461 484.265C621.268 485.104 623.076 485.938 624.885 486.773C633.249 490.654 641.512 494.709 649.744 498.862C653.952 500.984 658.166 503.094 662.379 505.207C663.731 505.885 663.731 505.885 665.111 506.577C688.152 518.15 688.152 518.15 711.369 529.362C718.983 532.964 726.505 536.738 734.029 540.524C740.774 543.909 747.557 547.202 754.375 550.437C762.635 554.357 770.831 558.391 779 562.5C790.925 568.494 802.932 574.298 815 580C815.872 580.412 816.745 580.824 817.643 581.249C822.426 583.506 827.211 585.756 832 588C832.404 587.079 832.404 587.079 832.816 586.14C834.698 582.738 837.443 581.245 841 580C847.199 579.077 852.733 579.5 858.211 582.656C862.255 585.693 865.396 589.187 867 594C867.154 598.17 866.984 601.941 866 606C866.66 606.226 867.32 606.453 868 606.687C871.931 608.407 875.672 610.262 879 613C880 615.812 880 615.812 880 618C876.21 620.526 874.508 620.443 870 620C867.866 619.012 865.889 617.922 863.894 616.679C861.981 615.762 861.981 615.762 860.019 616.75C859.353 617.162 858.687 617.575 858 618C851.657 621.381 846.239 623.154 839 622C832.868 620.06 829.264 615.334 826 610C824.509 605.527 824.509 601.472 826 597C825.367 596.755 824.734 596.51 824.082 596.257C811.619 591.171 799.466 585.355 787.473 579.254C782.137 576.547 776.787 573.867 771.437 571.187C770.83 570.883 770.222 570.578 769.596 570.264C760.794 565.859 751.953 561.542 743.063 557.318C734.646 553.317 726.258 549.258 717.875 545.187C715.051 543.816 712.227 542.445 709.402 541.074C708.703 540.734 708.003 540.395 707.283 540.045C702.527 537.737 697.767 535.438 693.004 533.144C692.367 532.837 691.729 532.53 691.073 532.214C690.444 531.911 689.816 531.609 689.169 531.297C678.068 525.95 666.998 520.554 656 515C643.756 508.826 631.481 502.737 619.086 496.87C614.885 494.878 610.703 492.872 606.582 490.718C605.61 490.213 605.61 490.213 604.619 489.698C602.955 488.824 601.299 487.936 599.644 487.046C597.142 485.841 597.142 485.841 594.863 486.121C592.57 487.202 591.176 488.522 589.375 490.312C577.563 501.136 562.907 509.175 549 517C547.974 517.581 547.974 517.581 546.928 518.175C538.571 522.88 530.081 526.966 521.187 530.562C520.333 530.909 519.479 531.256 518.598 531.613C517.796 531.928 516.994 532.242 516.168 532.566C515.459 532.844 514.75 533.122 514.02 533.408C512 534 512 534 508 534C508.657 534.786 508.657 534.786 509.328 535.589C519.767 548.341 528.894 562.072 537.715 575.975C538.908 577.855 540.11 579.73 541.312 581.605C574.684 633.985 574.684 633.985 582.23 655.832C582.808 657.951 582.808 657.951 584 659C584.508 665.481 582.867 669.087 579.437 674.437C575.747 678.317 571.479 681.095 567 684C565.774 684.817 565.774 684.817 564.523 685.652C554.923 691.67 544.326 695.652 533.842 699.855C532.019 700.589 530.2 701.336 528.388 702.097C522.642 704.488 516.937 706.231 510.875 707.625C509.959 707.836 509.043 708.048 508.099 708.266C489.441 712.454 461.19 717.557 443.875 706.812C439.372 702.936 437.447 698.796 436.516 692.968C435.895 682.569 439.38 674.156 444 665C444.66 664.34 445.32 663.68 446 663C442.389 663.685 438.858 664.535 435.309 665.488C429.338 667.078 423.356 668.621 417.367 670.139C415.351 670.654 413.337 671.178 411.328 671.719C399.725 674.827 388.326 675.43 376.375 675.562C375.637 675.577 374.9 675.592 374.14 675.607C364.523 675.768 355.773 675.352 348.329 668.45C343.847 663.375 343.648 658.814 343.726 652.324C344.842 638.762 352.857 627.604 363 619C373.087 611.28 384.205 606.96 397 608C397 607.34 397 606.68 397 606C396.34 606 395.68 606 395 606C387.331 591.753 379.896 577.508 373.812 562.5C373.38 561.435 372.948 560.37 372.503 559.274C358.733 524.458 358.733 524.458 366 507C371.703 494.934 381.742 484.357 392 476C392.837 475.242 393.673 474.484 394.535 473.703C409.976 459.95 428.048 449.146 446 439C445.321 438.658 444.642 438.317 443.943 437.965C419.451 425.589 419.451 425.589 410.593 418.809C407.985 416.897 406.37 416.005 403.101 415.953C399.039 417.324 395.681 419.352 392.062 421.625C384.26 426.359 376.397 430.431 368 434C366.978 434.438 365.955 434.876 364.902 435.328C342.987 443.909 318.45 447.614 295 447C294.814 448.392 294.814 448.392 294.625 449.812C294 453 294 453 292 456C292.744 456.727 292.744 456.727 293.504 457.468C296.837 460.757 300.099 464.049 303.125 467.625C307.122 472.284 311.51 476.535 315.87 480.85C319.577 484.533 323.117 488.288 326.496 492.277C328.631 494.722 330.951 496.96 333.266 499.234C335.012 501.012 336.632 502.854 338.25 504.75C342.14 509.277 346.38 513.411 350.644 517.582C353.714 520.732 354.957 522.161 355.187 526.625C355 530 355 530 354 531C350.296 531.446 348.571 531.411 345.502 529.199C344.698 528.37 343.894 527.541 343.066 526.687C342.17 525.776 341.273 524.864 340.35 523.925C339.42 522.95 338.491 521.975 337.562 521C336.647 520.065 335.731 519.13 334.787 518.167C330.274 513.534 325.897 508.815 321.674 503.917C318.604 500.401 315.391 497.018 312.187 493.625C311.488 492.882 310.789 492.14 310.069 491.375C305.5 486.54 300.849 481.812 296.109 477.144C293.447 474.437 290.998 471.577 288.539 468.687C286.565 466.522 284.296 464.809 282 463C282 462.34 282 461.68 282 461C281.478 461.216 280.956 461.433 280.418 461.656C269.921 465.626 261.942 464.473 251.652 460.289C249 459 249 459 247 457C245.067 456.542 245.067 456.542 242.875 456.25C236.347 454.904 231.355 451.283 227.562 445.812C224.215 439.786 224.2 433.747 225 427C226.469 423.196 228.475 420.185 231 417C231.483 416.376 231.967 415.752 232.465 415.109C238.08 408.765 247.011 403.662 255 401C256.423 400.941 257.849 400.938 259.273 400.972C260.511 400.991 260.511 400.991 261.773 401.009C263.5 401.044 265.227 401.083 266.953 401.126C268.194 401.143 268.194 401.143 269.461 401.16C270.212 401.177 270.962 401.193 271.736 401.211C274.444 400.958 276.492 400.039 279 399C280.835 398.572 282.682 398.191 284.535 397.851C286.122 397.549 286.122 397.549 287.74 397.242C289.927 396.835 292.115 396.432 294.303 396.031C305.245 393.941 315.281 390.803 325.062 385.437C325.794 385.051 326.525 384.665 327.279 384.267C331.212 382.195 331.212 382.195 334.599 379.367C336 378 336 378 338 378C338.258 377.454 338.516 376.909 338.781 376.347C340.206 373.602 341.829 371.039 343.5 368.437C344.108 367.487 344.717 366.537 345.344 365.558C346.549 363.696 347.77 361.845 349 360C351.979 360.33 354.359 360.607 356.937 362.187C358 364 358 364 358.125 366.625C355.495 374.514 348.646 380.625 343.113 386.64C340.942 388.945 340.942 388.945 339.293 391.609C336.492 394.529 334.195 395.183 330.377 396.293C328.131 396.961 326.04 397.763 323.887 398.683C315.815 402.075 307.915 404.732 299.312 406.437C298.488 406.601 297.663 406.764 296.813 406.933C292.134 407.791 287.754 408.159 283 408C283.675 408.978 284.351 409.956 285.047 410.964C297 428.456 297 428.456 297 436C332.844 433.903 363.09 426.418 394 408C391.238 405.184 388.43 402.454 385.512 399.8C366.25 382.276 366.25 382.276 364.875 375C365 372 365 372 367 370C369.215 369.449 369.215 369.449 372 370C374.477 372.01 376.484 374.4 378.562 376.812C379.816 378.204 381.072 379.594 382.332 380.98C382.954 381.668 383.576 382.355 384.217 383.063C405.112 405.756 435.016 422.246 463.162 434.133C465.759 435.357 467.404 436.606 469 439C468.7 443.3 468.7 443.3 467 445C465.541 445.087 464.081 445.15 462.621 445.203C456.191 445.801 451.534 448.479 446.062 451.75C445.068 452.329 444.074 452.908 443.05 453.504C426.137 463.49 410.679 474.758 396.203 488.027C394 490 394 490 390.937 492.312C383.127 499.458 376.191 508.487 375.601 519.367C375.589 520.869 375.597 522.372 375.625 523.875C375.634 524.668 375.644 525.462 375.653 526.28C375.808 532.309 376.78 537.38 379 543C379.387 544.131 379.773 545.263 380.172 546.429C382.109 552.084 384.164 557.477 386.886 562.794C388.107 565.212 389.262 567.655 390.41 570.109C393.219 576.099 396.092 582.057 399 588C399.469 588.963 399.938 589.927 400.422 590.92C406.469 604.212 406.469 604.212 417.594 612.898C420.407 614.186 422.316 615.889 424.625 617.937C427.827 620.468 428.635 620.982 432.875 621.187C437.171 620.188 441.308 618.498 445.387 616.839C448.115 615.963 450.154 615.756 453 616C454.812 617.187 454.812 617.187 456 619C456.437 621.5 456.437 621.5 456 624C453.289 626.442 450.807 627.554 447.312 628.5C446.007 628.869 446.007 628.869 444.676 629.246C443.351 629.619 443.351 629.619 442 630C440.329 630.508 438.662 631.028 437 631.562C435.917 631.904 435.917 631.904 434.812 632.253C432.795 632.948 432.795 632.948 431 635C428.641 635.386 428.641 635.386 426 635C423.859 633.207 423.859 633.207 421.75 630.812C415.467 624.163 407.998 619.617 398.738 618.664C384.783 618.504 375.73 622.476 365.805 632.136C358.371 639.995 355.581 646.576 355.469 657.398C355.772 660.098 355.772 660.098 357.781 661.789C375.199 671.295 407.041 662.076 424.879 656.858C426.265 656.442 427.651 656.022 429.035 655.598C432.094 654.667 435.173 653.806 438.25 652.937C439.36 652.613 440.47 652.29 441.613 651.957C443.975 651.289 446.349 650.665 448.73 650.074C454.999 648.469 459.733 647.165 464.336 642.527C467.439 639.679 471.273 637.909 475 636C471.714 631.013 468.363 626.079 464.937 621.187C450.244 600.03 435.327 578.124 426 554C425.571 553.007 425.141 552.014 424.699 550.992C420.683 540.862 420.117 528.471 423.562 518.062C424.319 516.349 425.132 514.659 426 513C426.659 511.721 426.659 511.721 427.332 510.417C436.747 494.138 452.67 480.669 467.437 469.375C468.112 468.853 468.787 468.331 469.482 467.794C475.643 463.19 475.643 463.19 480 463C481.812 464.125 481.812 464.125 483 466C483.285 468.41 483.285 468.41 483 471C481.601 472.738 481.601 472.738 479.625 474.312C478.521 475.213 478.521 475.213 477.394 476.132C476.604 476.748 475.814 477.365 475 478C448.67 497.793 448.67 497.793 434 526C431.445 555.778 454.911 586.539 471.345 609.594C473.095 612.138 474.714 614.741 476.332 617.371C481.366 625.983 481.366 625.983 489.049 631.85C493.37 632.703 497.558 632.353 501.92 632.022C506.481 631.972 510.653 633.663 514.949 635.062C520.831 636.985 520.831 636.985 526.754 635.988C535.184 630.958 542.018 624.857 549 618C545.003 609.247 540.134 601.36 534.848 593.347C532.625 589.977 530.482 586.567 528.374 583.124C512.968 557.7 512.968 557.7 494 535C493.682 532.015 493.485 529.9 495 527.25C497 526 497 526 500.406 525.191C529.378 518.176 557.502 500.862 580.777 482.582C583 481 583 481 585 481C585 480.34 585 479.68 585 479C584.004 478.878 584.004 478.878 582.988 478.753C579.012 477.75 575.763 475.908 572.187 473.937C570.678 473.126 569.167 472.316 567.656 471.507C565.34 470.261 563.024 469.013 560.711 467.76C558.544 466.595 556.368 465.451 554.187 464.312C553.524 463.949 552.861 463.586 552.178 463.212C548.643 461.303 548.643 461.303 544.789 461.609C544.199 462.068 543.608 462.527 543 463C542.062 463.694 542.062 463.694 541.105 464.402C540.472 464.908 539.84 465.415 539.187 465.937C528.94 473.732 516.449 474.21 504 473C493.43 470.576 484.827 463.707 478.937 454.687C475.332 448.567 475.279 441.941 476 435C478.581 425.927 485.367 419.506 493.215 414.621C495.116 413.632 497.007 412.783 499 412C499.949 411.608 500.897 411.216 501.875 410.812C505.459 409.88 508.84 409.712 512.535 409.636C516.061 408.725 517.535 406.639 520 404C522.085 402.291 524.168 400.628 526.312 399C526.88 398.565 527.447 398.131 528.032 397.684C532.209 394.52 536.48 391.658 541 389C539.866 388.601 538.731 388.203 537.562 387.792C536.042 387.257 534.521 386.722 533 386.187C532.256 385.926 531.512 385.665 530.746 385.396C527.15 384.13 523.567 382.844 520.004 381.488C514.933 379.573 509.778 377.92 504.623 376.25C499.963 374.719 495.48 372.999 491 371C490.875 368.125 490.875 368.125 491 365C493 363 493 363 494.983 362.906C501.729 363.631 507.924 365.243 514.375 367.312C515.385 367.628 516.395 367.944 517.436 368.27C520.294 369.169 523.148 370.081 526 371C527.037 371.332 527.037 371.332 528.094 371.671C533.452 373.396 538.741 375.25 543.988 377.285C547.204 378.427 550.502 379.286 553.801 380.156C556.218 381.083 557.405 381.975 559 384C559.422 386.812 559.513 388.297 557.812 390.625C556 392 556 392 553.84 393.253C550.323 395.416 547.057 397.845 543.75 400.312C538.268 404.37 532.741 408.312 527 412C527.785 412.496 528.57 412.992 529.379 413.503C538.462 419.377 546.083 425.143 551 435C551 435.66 551 436.32 551 437C572.528 429.69 595.954 419.728 611 402C611.525 401.4 612.049 400.801 612.59 400.183C616.345 395.2 616.808 390.386 616.539 384.238C614.95 374.691 607.465 367.724 601 361C600.312 360.26 599.623 359.52 598.914 358.757C577.503 336.392 539.552 311.495 507.832 310.761C505.826 310.731 503.819 310.706 501.812 310.687C500.822 310.658 499.831 310.629 498.81 310.599C490.27 310.526 482.883 312.237 476.312 317.937C471.779 322.859 468.943 329.05 466 335C463.125 335.125 463.125 335.125 460 335C458 333 458 333 457.562 329.5C457.767 322.457 461.475 316.308 466.187 311.25C476.118 302.155 486.893 298.782 500.125 298.687Z" fill="#0B6B3A"/>
<path d="M382.086 202.77C402.196 201.963 422.376 208.416 438 221C438.782 221.606 439.565 222.212 440.371 222.836C454.353 234.322 463.239 252.117 465 270C466.826 294.9 459.904 317.588 444 337C443.321 337.862 442.641 338.725 441.941 339.613C436.19 346.684 436.19 346.684 431.836 347.313C429.625 347.313 429.625 347.313 426 347C425.219 344.852 425.219 344.852 425 342C426.844 339.274 426.844 339.274 429.5 336.375C430.438 335.311 431.372 334.244 432.301 333.172C432.763 332.639 433.225 332.106 433.702 331.557C443.88 319.353 452.553 301.916 454 286C453.34 286 452.68 286 452 286C452 286.66 452 287.32 452 288C448 290 444 292 440 294C439.354 294.361 438.708 294.722 438.043 295.094C435.129 296.386 432.178 296.967 429.062 297.625C427.857 297.885 426.652 298.146 425.41 298.414C422.506 298.913 419.933 299.123 417 299C416.979 299.99 416.959 300.98 416.937 302C416.147 307.279 412.941 310.607 409 314C398.921 320.386 388.42 322.421 376.617 320.641C370.874 319.073 366.271 315.631 361.603 312.049C358.281 309.568 356.171 308.467 352 309C351.73 309.73 351.461 310.459 351.183 311.211C350.03 313.929 348.712 316.183 347.062 318.625C346.306 319.758 346.306 319.758 345.535 320.914C342.453 325.102 340.149 326.783 335 328C328.66 328.807 324.066 328.317 318.812 324.547C309.677 316.75 304.801 306.001 303.843 294.043C303.275 282.088 303.275 282.088 306 278C305.67 277.67 305.34 277.34 305 277C303.302 262.662 309.15 249.587 317 238C319.811 234.458 322.827 231.218 326 228C326.624 227.304 327.248 226.608 327.891 225.891C341.659 210.965 362.327 204.245 382.086 202.77Z" fill="#0B6B3A"/>
<path d="M733.063 616C735.738 618.762 736.94 620.372 737.313 624.25C736.753 630.963 733.963 636.462 729 641C715.979 651.175 700.271 657.078 685 663C683.353 663.665 681.708 664.331 680.063 665C673.732 667.535 667.335 669.896 660.944 672.274C659.088 672.967 657.236 673.669 655.383 674.371C648.047 677.124 640.647 679.703 633.266 682.328C627.158 684.504 621.064 686.703 615 689C604.855 692.802 594.7 696.515 584.395 699.86C581.383 700.872 578.419 701.973 575.448 703.099C569.192 705.403 562.862 707.507 556.554 709.666C545.065 713.569 545.065 713.569 533.745 717.928C527.039 720.679 520.233 722.914 513.313 725.063C505.109 727.539 505.109 727.539 497.125 730.625C493.04 732.423 488.855 733.6 484.574 734.84C481.773 735.75 479.124 736.745 476.406 737.864C471.312 739.914 466.16 741.671 460.934 743.348C460.015 743.646 459.096 743.944 458.149 744.251C455.246 745.191 452.342 746.127 449.438 747.063C446.53 748.003 443.623 748.944 440.715 749.885C438.917 750.467 437.118 751.048 435.319 751.629C430.518 753.178 425.725 754.751 420.941 756.352C418.773 757.076 416.602 757.79 414.43 758.5C413.678 758.748 412.927 758.995 412.152 759.25C410.627 759.753 409.101 760.253 407.574 760.75C404.2 761.865 400.936 763.028 397.672 764.442C392.666 766.567 387.538 768.237 382.375 769.938C381.371 770.272 380.367 770.607 379.332 770.952C367.347 774.924 355.269 778.545 343.125 782C341.896 782.351 340.666 782.701 339.4 783.062C330.954 785.461 322.502 787.807 314 790C312.834 790.314 311.667 790.627 310.465 790.95C297.775 794.27 284.911 796.707 272 799C271.242 799.137 270.485 799.275 269.704 799.416C242.153 804.231 213.014 802.253 189.414 786.246C184.019 781.924 179.89 776.477 178.524 769.602C178.245 765.188 178.573 763.526 181.438 760C182.706 759.01 182.706 759.01 184 758C184.33 757.67 184.66 757.34 185 757C187.77 756.936 190.516 756.934 193.285 756.973C195.032 756.986 196.779 756.998 198.526 757.01C201.27 757.035 204.014 757.062 206.758 757.096C223.355 757.289 238.783 755.708 255.063 752.25C256.307 751.989 257.552 751.727 258.834 751.457C274.425 748.124 289.785 744.165 304.951 739.246C310.661 737.397 316.406 735.735 322.188 734.125C332.111 731.348 341.857 728.108 351.617 724.809C356.592 723.129 361.592 721.554 366.617 720.032C371.004 718.694 375.378 717.322 379.75 715.938C380.653 715.653 381.555 715.368 382.485 715.074C388.529 713.149 394.543 711.147 400.547 709.102C402.041 708.595 403.535 708.089 405.028 707.583C407.974 706.584 410.915 705.573 413.855 704.557C415.226 704.091 416.597 703.625 417.969 703.161C419.18 702.744 420.391 702.328 421.639 701.899C424.968 701.009 427.576 700.669 431 701C433 703 433 703 433.313 705.438C432.939 708.503 432.328 709.072 430 711C427.266 711.94 424.599 712.758 421.813 713.5C416.8 714.872 411.908 716.339 407.057 718.21C396.212 722.376 385.192 726.045 374.021 729.224C369.55 730.508 365.183 731.963 360.813 733.563C355.233 735.602 349.628 737.311 343.906 738.903C339.212 740.21 334.544 741.604 329.875 743C329.076 743.237 328.278 743.475 327.455 743.719C322.982 745.059 318.548 746.481 314.125 747.981C308.178 749.976 302.185 751.696 296.125 753.313C295.022 753.608 293.92 753.903 292.783 754.206C266.297 761.202 239.556 768.23 212 768.125C210.984 768.129 209.969 768.133 208.922 768.137C202.555 768.129 196.321 767.768 190 767C191.624 773.697 197.697 777.403 203.063 781.125C238.402 799.935 288.096 786.33 324.2 775.704C327.261 774.768 330.312 773.801 333.362 772.826C340.088 770.721 346.867 768.787 353.629 766.803C365.24 763.376 376.632 759.408 388.055 755.405C393.443 753.529 398.836 751.721 404.297 750.067C412.099 747.697 419.794 745.037 427.5 742.375C429.037 741.846 430.574 741.318 432.111 740.789C436.741 739.196 441.371 737.599 446 736C446.705 735.757 447.41 735.514 448.136 735.263C449.499 734.792 450.862 734.322 452.225 733.851C453.536 733.399 454.847 732.946 456.158 732.494C459.155 731.459 462.151 730.424 465.147 729.387C470.822 727.425 476.506 725.496 482.207 723.61C490.033 721.016 497.805 718.275 505.576 715.524C518.166 711.068 530.763 706.658 543.467 702.536C547.609 701.182 551.676 699.755 555.707 698.098C562.992 695.129 570.503 692.795 577.978 690.355C585.014 688.054 591.983 685.69 598.832 682.871C603.173 681.127 607.642 679.776 612.094 678.344C614.967 677.388 617.769 676.31 620.574 675.172C626.455 672.789 632.411 670.623 638.374 668.456C675.18 655.421 675.18 655.421 710.625 639.188C711.293 638.839 711.961 638.491 712.65 638.131C720.32 634.075 720.32 634.075 724.875 627.188C724.916 626.466 724.958 625.744 725 625C720.979 621.673 717.326 621.475 712.316 621.674C699.47 622.937 686.738 628.345 674.625 632.563C672.108 633.433 669.591 634.302 667.074 635.171C665.525 635.707 663.977 636.243 662.429 636.781C654.314 639.599 646.182 642.274 637.938 644.688C628.96 647.342 620.082 650.259 611.223 653.284C595.495 658.619 595.495 658.619 589 658C588.34 657.34 587.68 656.68 587 656C587.33 652.703 587.623 651.378 590 649C592.372 648.167 594.72 647.415 597.129 646.707C598.596 646.263 600.062 645.817 601.528 645.37C602.276 645.143 603.024 644.915 603.795 644.681C607.119 643.655 610.418 642.558 613.715 641.45C614.368 641.231 615.02 641.012 615.693 640.786C617.061 640.327 618.428 639.868 619.795 639.408C637.944 633.307 656.143 627.362 674.348 621.433C675.357 621.104 676.366 620.775 677.405 620.436C679.358 619.801 681.31 619.165 683.263 618.53C687.145 617.267 691.024 616.001 694.887 614.68C695.935 614.322 696.983 613.963 698.063 613.594C698.899 613.302 699.736 613.01 700.598 612.709C711.25 609.566 723.567 609.799 733.063 616Z" fill="#0B6B3A"/>
<path d="M338 661C339 662 339 662 339.375 664.375C339.189 665.675 339.189 665.675 339 667C335.522 669.522 332.164 670.672 328.02 671.684C326.864 671.97 325.709 672.256 324.519 672.55C322.684 672.99 322.684 672.99 320.813 673.438C319.555 673.746 318.297 674.054 317.001 674.371C309.38 676.224 301.743 677.996 294.078 679.659C289.613 680.63 285.18 681.687 280.75 682.813C257.804 688.6 234.778 693.53 211.539 697.98C210.57 698.166 209.602 698.351 208.604 698.543C206.788 698.891 204.971 699.237 203.154 699.58C199.325 700.313 195.534 701.093 191.758 702.067C169.525 707.589 140.114 709.984 118 703C120.819 711.291 125.768 714.956 133.313 719.125C145.065 724.722 158.07 726.886 171 726C171.832 725.951 172.664 725.902 173.522 725.851C206.537 723.841 238.741 715.815 270.875 708.375C271.97 708.123 273.064 707.871 274.192 707.611C283.47 705.434 292.681 703.015 301.898 700.597C310.81 698.261 319.736 695.976 328.662 693.695C331.632 692.936 334.601 692.174 337.57 691.413C348.814 688.535 360.076 685.757 371.374 683.099C375.843 682.045 380.298 680.937 384.75 679.813C399.562 676.099 399.562 676.099 405.688 675.5C409.376 675.138 412.489 674.219 416 673C422.069 671.491 427.746 670.659 434 671C435 672 435 672 435.063 674.563C435.042 675.367 435.021 676.172 435 677C428.422 679.829 421.989 681.909 415 683.438C408.3 684.965 401.666 686.598 395.063 688.5C388.483 690.386 381.872 691.969 375.188 693.438C368.005 695.022 360.931 696.8 353.875 698.875C336.608 703.944 319.103 708.134 301.537 712.025C293.87 713.748 286.285 715.744 278.688 717.75C266.065 721.073 253.374 724.015 240.625 726.813C239.77 727.002 238.915 727.19 238.034 727.385C154.182 745.842 154.182 745.842 122.215 725.532C115.626 720.977 109.611 715.834 107 708C106.427 700.898 106.427 700.898 108.875 697.063C111.852 694.174 113.459 693.845 117.5 693.813C118.294 693.799 119.088 693.785 119.906 693.77C122.61 693.971 124.994 694.404 127.633 694.985C151.009 699.829 178.695 694.755 201.702 689.519C205.534 688.654 209.383 687.874 213.231 687.082C233.067 682.981 252.85 678.758 272.553 674.055C278.046 672.748 283.545 671.471 289.043 670.192C291.19 669.692 293.337 669.192 295.484 668.691C298.69 667.944 301.897 667.197 305.104 666.452C308.1 665.755 311.095 665.056 314.09 664.356C314.987 664.148 315.883 663.94 316.807 663.725C320.533 662.853 324.218 661.955 327.877 660.834C331.599 659.841 334.265 660.179 338 661Z" fill="#0B6B3A"/>
<path d="M554 627C554.66 627 555.32 627 556 627C559.547 633.342 562.931 639.755 566.188 646.25C566.687 647.241 566.687 647.241 567.195 648.252C573 659.896 573 659.896 573 663.625C568.851 673.479 554.949 678.744 545.938 683C544.826 683.525 543.715 684.051 542.57 684.592C529.824 690.556 517.455 695.071 503.75 698.312C502.673 698.568 501.595 698.823 500.485 699.085C485.08 702.542 464.169 705.856 450 697C447.077 692.616 447.481 688.633 448.465 683.641C452.631 668.16 462.598 655.773 476.102 647.402C486.223 642.505 498.072 640.509 509.106 643.587C516.088 646.216 522.114 650.314 527.254 655.715C528.994 657.206 528.994 657.206 531.59 657.379C532.385 657.254 533.181 657.129 534 657C536.272 654.26 536.272 654.26 535.813 651.562C534.949 648.84 533.752 647.224 532 645C532.594 644.599 533.189 644.198 533.801 643.785C545.333 636.729 545.333 636.729 554 627Z" fill="#E7F8EB"/>
<path d="M426 225C434.451 231.586 443.686 240 448 250C446.278 255.509 440.76 257.453 436 260C427.857 264.244 419.261 266.727 410 266C409.254 265.672 408.508 265.343 407.739 265.004C404.363 263.767 401.582 263.725 397.988 263.7C397.311 263.694 396.634 263.689 395.936 263.683C393.728 263.671 391.521 263.677 389.313 263.688C388.177 263.69 388.177 263.69 387.018 263.692C365.964 263.767 345.535 266.408 325 271C324.157 271.187 323.314 271.374 322.446 271.566C320.297 272.043 318.148 272.521 316 273C314.835 260.184 322.366 247.447 330.188 237.813C354.292 211.994 396.227 204.874 426 225Z" fill="#E7F8EB"/>
<path d="M790.938 189.594C793.066 190.966 795.031 192.412 797 194C797.866 194.578 798.733 195.155 799.625 195.75C804.848 200.699 809.326 206.932 811 214C812.145 213.753 812.145 213.753 813.313 213.5C825.334 211.87 837.386 213.645 847.5 220.813C848.7 221.837 849.868 222.902 851 224C851.647 224.62 852.294 225.241 852.961 225.879C857.712 230.833 859.943 235.111 860.024 242C859.52 248.779 856.836 254.594 851.875 259.25C839.347 268.998 822.347 268.302 807.236 268.275C805.605 268.279 803.974 268.285 802.343 268.291C797.959 268.304 793.576 268.305 789.192 268.302C785.523 268.301 781.855 268.306 778.186 268.311C769.538 268.322 760.889 268.322 752.241 268.316C743.324 268.31 734.406 268.322 725.489 268.344C717.815 268.361 710.141 268.367 702.467 268.364C697.89 268.362 693.314 268.365 688.738 268.379C684.445 268.391 680.152 268.389 675.859 268.376C674.284 268.374 672.708 268.377 671.133 268.385C668.985 268.395 666.837 268.387 664.689 268.375C662.886 268.375 662.886 268.375 661.046 268.375C657.76 267.971 656.389 267.23 654 265C654.75 260.25 654.75 260.25 657 258C659.54 257.741 659.54 257.741 662.818 257.729C664.058 257.719 665.298 257.709 666.576 257.699C667.959 257.698 669.341 257.698 670.724 257.697C672.174 257.69 673.625 257.681 675.075 257.672C678.208 257.654 681.341 257.642 684.473 257.634C689.449 257.623 694.425 257.597 699.401 257.57C707.299 257.528 715.198 257.496 723.096 257.468C737.162 257.417 751.228 257.354 765.293 257.282C770.215 257.258 775.137 257.238 780.059 257.223C793.776 257.177 807.492 257.132 821.201 256.61C822.096 256.58 822.991 256.55 823.914 256.519C831.318 256.185 838.669 255.123 845 251C847.955 246.667 848.566 243.19 848 238C845.743 231.831 839.331 228.736 833.774 225.84C829.83 224.646 826.097 224.711 822 224.75C821.206 224.743 820.412 224.735 819.594 224.727C815.22 224.742 812.031 225.146 808 227C804.621 226.686 803.425 226.426 801 224C800.692 222.49 800.451 220.966 800.25 219.438C798.717 211.377 794.81 206.035 788.25 201.188C775.522 192.914 762.027 191.102 747.188 194.188C736.643 196.93 727.795 202.447 721.688 211.563C718.8 216.597 718.038 221.386 717.52 227.118C716.946 230.298 716.39 231.823 714 234C711.723 234.172 711.723 234.172 709.063 233.75C696.043 232.106 683.229 232.171 672.16 240.106C668.768 243.081 665.947 246.5 663.141 250.024C661 252 661 252 658.359 252.477C656 252 656 252 654 249C653.885 243.127 655.976 240.057 659.863 235.981C671.798 224.919 684.059 221.255 700.008 221.727C702.698 221.83 704.387 222.129 707 223C706.845 221.577 706.845 221.577 706.688 220.125C706.743 210.939 713.945 202.31 720 196C740.171 178.778 767.958 177.127 790.938 189.594Z" fill="#0B6B3A"/>
<path d="M777.188 305.875C782.119 307.33 784.362 309.813 787.777 313.562C789.773 315.751 791.804 317.654 794.062 319.562C796.832 321.937 799.44 324.4 802 327C805.137 330.179 808.385 333.147 811.77 336.059C816.251 339.959 820.614 343.993 825 348C829.533 346.542 832.678 343.978 836.188 340.875C837.342 339.877 838.497 338.879 839.652 337.883C840.219 337.392 840.786 336.901 841.371 336.396C844.4 333.801 847.52 331.323 850.656 328.859C852.262 327.585 853.845 326.281 855.406 324.953C858.548 322.335 861.049 320.277 865 319.125C869.894 320.552 873.183 323.708 877 327C878.026 327.867 879.054 328.733 880.082 329.598C882.305 331.47 884.522 333.35 886.734 335.234C890.559 338.483 894.44 341.661 898.332 344.828C900.104 346.271 901.873 347.719 903.637 349.172C908.663 353.311 913.74 357.373 918.875 361.375C924.144 365.486 929.297 369.709 934.358 374.074C938.497 377.634 942.811 380.897 947.27 384.051C949 386 949 386 949.324 389.168C949 392 949 392 948 393C943.782 393.504 941.022 393.37 937.605 390.875C936.452 389.934 935.313 388.974 934.188 388C933.58 387.498 932.973 386.996 932.347 386.479C931.123 385.467 929.904 384.449 928.691 383.423C926.414 381.507 924.084 379.66 921.75 377.812C920.167 376.542 918.583 375.271 917 374C916.192 373.355 915.384 372.711 914.551 372.047C909.371 367.916 904.23 363.742 899.105 359.543C894.111 355.452 889.112 351.369 884.086 347.316C881.374 345.128 878.697 342.905 876.039 340.652C874.797 339.622 873.555 338.592 872.312 337.562C871.467 336.826 871.467 336.826 870.604 336.075C868.841 334.565 868.841 334.565 866 333C861.468 333.724 858.342 337.029 855 340C848.538 345.615 841.832 350.845 835 356C841.303 363.666 848.244 370.883 855.812 377.312C860.408 381.224 864.594 385.542 868.814 389.851C872.265 393.353 875.809 396.62 879.615 399.736C881 401 881 401 882 403C882.125 406.062 882.125 406.062 882 409C881 410 881 410 877.938 410.5C872.29 409.783 869.903 406.952 866 403C865.192 402.193 864.384 401.386 863.551 400.555C861.838 398.839 860.13 397.119 858.426 395.395C856.403 393.397 854.353 391.525 852.188 389.688C848.429 386.478 844.973 383.012 841.5 379.5C837.47 375.424 833.398 371.514 829.023 367.805C825.906 365.024 823.007 362.028 820.075 359.055C816.786 355.739 813.378 352.64 809.828 349.609C807.356 347.433 805.077 345.087 802.77 342.738C800.97 340.97 799.104 339.327 797.188 337.688C793.034 334.116 789.217 330.253 785.395 326.332C781.209 321.74 781.209 321.74 775.625 319.91C771.872 321.468 769.09 323.833 766 326.438C764.66 327.539 763.319 328.639 761.977 329.738C760.974 330.565 760.974 330.565 759.95 331.409C757.135 333.705 754.263 335.922 751.375 338.125C750.848 338.528 750.321 338.932 749.778 339.347C748.718 340.158 747.658 340.968 746.597 341.778C744.969 343.024 743.345 344.275 741.723 345.527C734.528 351.081 727.282 356.561 720 362C717.353 363.978 714.707 365.957 712.062 367.938C711.387 368.443 710.711 368.949 710.015 369.47C704.589 373.54 699.217 377.675 693.867 381.844C684.786 388.673 684.786 388.673 679 388C678 387 678 387 677.676 384.203C678.086 380.15 679.1 379.322 682.188 376.75C683.108 375.977 684.028 375.203 684.977 374.406C689.661 370.678 694.376 367 699.155 363.395C701.815 361.384 704.462 359.354 707.11 357.326C709.27 355.672 711.432 354.019 713.594 352.367C714.319 351.813 715.045 351.258 715.793 350.687C717.264 349.562 718.736 348.438 720.207 347.313C731.129 338.967 742.039 330.605 752.918 322.203C754.005 321.367 755.094 320.532 756.185 319.701C758.897 317.634 761.573 315.54 764.203 313.371C772.859 306.422 772.859 306.422 777.188 305.875Z" fill="#0B6B3A"/>
<path d="M389.312 272.562C390.439 272.552 391.565 272.542 392.726 272.531C393.761 272.543 394.797 272.554 395.863 272.566C397.214 272.581 397.214 272.581 398.591 272.595C401.507 273.085 402.871 273.969 405 276C407.757 283.168 407.972 291.436 407 299C403.479 305.173 399.808 308.111 393.207 310.425C386.451 312.183 380.119 311.257 374 308C371.37 306.281 368.822 304.49 366.297 302.621C360.648 298.634 355.852 298.082 349 299C343.331 302.102 341.264 306.761 338.492 312.476C336.913 315.147 335.672 316.453 333 318C329.625 318.187 329.625 318.187 326 317C320.002 311.5 315.35 301.479 314.832 293.371C314.826 292.403 314.819 291.434 314.812 290.437C314.798 289.466 314.784 288.496 314.77 287.496C315 285 315 285 317 283C339.267 274.656 365.668 272.713 389.312 272.562Z" fill="#E7F8EB"/>
<path d="M664.562 583.25C665.367 583.827 666.171 584.405 667 585C668.176 585.804 668.176 585.804 669.375 586.625C671.494 589.722 671.755 591.915 671.566 595.629C670.043 602.008 664.528 605.885 659.25 609.25C654.023 612.161 648.669 614.133 643 616C641.738 616.442 640.476 616.886 639.215 617.332C629.124 620.851 618.908 623.731 608.573 626.446C603.602 627.754 598.648 629.076 593.734 630.59C592.956 630.829 592.177 631.069 591.375 631.316C589.968 631.756 588.563 632.205 587.162 632.666C583.414 633.837 580.769 634.226 577 633C576 632 576 632 575.938 628.937C575.968 627.483 575.968 627.483 576 626C581.59 622.815 587.501 621.34 593.688 619.687C602.429 617.301 611.096 614.776 619.719 611.993C623.811 610.677 627.9 609.455 632.062 608.375C640.998 606.003 653.938 602.348 660 595C660 594.34 660 593.68 660 593C647.848 588.949 631.724 596.009 620 599.25C595.157 606.043 595.157 606.043 583.5 608.922C582.67 609.134 581.84 609.347 580.986 609.566C575.741 610.833 570.397 611.791 565 611C563 609 563 609 562.875 606.562C564 604 564 604 567.438 602.492C572.25 600.817 577.159 599.678 582.125 598.562C589.364 596.89 596.496 595.058 603.625 592.965C613.676 590.091 623.886 587.762 634.066 585.394C635.054 585.164 635.054 585.164 636.062 584.929C637.036 584.704 637.036 584.704 638.03 584.474C639.373 584.151 640.711 583.808 642.044 583.449C649.468 581.46 657.203 580.667 664.562 583.25Z" fill="#0B6B3A"/>
<path d="M515.375 419.438C524.535 420.859 531.668 426.987 537.477 433.887C540.684 438.335 541.73 441.436 541 447C537.69 454.48 532.305 458.625 525 462C516.806 464.599 507.833 463.108 500 460C494.089 456.773 489.53 452.308 487 446C485.776 440.747 486.681 436.902 489.438 432.312C494.044 426.141 499.582 422.287 507.125 420.625C511.254 420.064 511.254 420.064 515.375 419.438Z" fill="#E7F8EB"/>
<path d="M926 467C926.33 468.32 926.66 469.64 927 471C902.057 491.45 866.932 503.223 836 511C834.656 511.348 833.312 511.697 831.969 512.047C827.989 513.072 823.997 514.045 820 515C819.278 515.174 818.556 515.348 817.812 515.528C802.572 519.176 786.755 522.436 771 521C770.34 520.34 769.68 519.68 769 519C769.188 517 769.188 517 770 515C773.466 512.689 775.459 512.553 779.57 512.113C787.695 511.149 795.603 509.51 803.579 507.706C805.864 507.19 808.153 506.687 810.441 506.185C820.771 503.892 830.885 501.098 841 498C842.188 497.642 843.376 497.283 844.6 496.914C847.741 495.965 850.871 494.986 854 494C855.087 493.667 856.173 493.335 857.293 492.992C872.151 488.276 886.527 482.118 900.594 475.426C901.228 475.125 901.862 474.825 902.515 474.515C905.628 473.039 908.731 471.547 911.823 470.027C912.947 469.488 914.072 468.95 915.23 468.394C916.225 467.908 917.219 467.422 918.243 466.921C921.32 465.893 922.934 466.069 926 467Z" fill="#0B6B3A"/>
<path d="M272 413C276.669 417.489 279.883 422.812 282.875 428.5C283.277 429.221 283.679 429.941 284.094 430.684C286.532 435.269 287.675 438.687 287 444C284.331 449.761 279.147 452.226 273.465 454.371C270.879 455.031 268.657 455.119 266 455C265.67 454.34 265.34 453.68 265 453C265.782 452.637 266.565 452.273 267.371 451.899C268.383 451.396 269.395 450.893 270.437 450.375C271.447 449.888 272.456 449.401 273.496 448.899C276.29 447.173 276.29 447.173 276.91 443.852C276.955 442.44 276.955 442.44 277 441C275.966 439.765 275.966 439.765 273.75 439.688C270.137 440.098 268.804 441.718 266 444C258.501 447.684 250.502 448.528 242.5 445.813C239.144 443.38 236.853 440.706 235 437C234.35 432.355 234.868 429.672 237.562 425.938C245.942 415.768 258.5 406.394 272 413Z" fill="#E7F8EB"/>
<path d="M424.375 319.75C427 320 427 320 428.875 321.188C430 323 430 323 429.75 325.266C426.648 336.575 416.856 348.12 407.375 354.938C393.766 362.34 378.392 363.942 363.438 360.5C351.08 356.816 341.036 350.189 332 341C331.42 340.419 330.84 339.837 330.242 339.238C328.812 337.688 328.812 337.688 327 335C327.387 332.832 327.387 332.832 328 331C331.453 330.491 334.557 330.363 338 331C340.207 332.695 341.842 334.605 343.672 336.699C351.893 344.823 364.139 350.316 375.663 350.469C376.558 350.458 377.453 350.448 378.375 350.438C379.306 350.429 380.237 350.421 381.196 350.412C387.811 350.249 393.323 349.637 399 346C400.141 345.271 400.141 345.271 401.305 344.527C409.357 338.793 415.087 330.924 420.09 322.496C421.479 320.213 421.584 320.044 424.375 319.75Z" fill="#0B6B3A"/>
<path d="M943 501C943.495 503.475 943.495 503.475 944 506C925.372 519.942 904.259 531.947 882 539C880.526 539.485 879.052 539.971 877.578 540.457C853.09 548.446 853.09 548.446 844 548C843 547 843 547 842.938 544.437C842.958 543.633 842.979 542.829 843 542C851.44 538.75 859.83 535.599 868.547 533.152C878.526 529.822 888.141 525.261 897.75 521C898.37 520.726 898.99 520.451 899.629 520.168C909.867 515.619 919.711 510.588 929.411 504.963C937.777 500.206 937.777 500.206 943 501Z" fill="#0B6B3A"/>
<path d="M781 345C788.5 345.955 794.744 355.317 799.176 360.973C801.751 364.342 804.25 367.762 806.715 371.211C807.82 372.749 808.952 374.265 810.09 375.777C813.439 380.388 814.836 383.269 814 389C813 390 813 390 810.375 390.5C802.182 389.286 796.985 379.416 792.293 373.133C779.309 355.392 779.309 355.392 780.367 347.137C780.576 346.432 780.785 345.726 781 345Z" fill="#0B6B3A"/>
<path d="M450 262C450.66 262 451.32 262 452 262C452.66 265.96 453.32 269.92 454 274C443.453 282.496 431.819 288.506 418 289C417.34 284.71 416.68 280.42 416 276C416.906 275.746 417.812 275.492 418.746 275.23C422.502 274.169 426.251 273.088 430 272C430.852 271.762 431.704 271.523 432.582 271.277C438.645 269.453 445.463 266.537 450 262Z" fill="#E7F8EB"/>
<path d="M407 673C406.34 673.33 405.68 673.66 405 674C407.475 674.495 407.475 674.495 410 675C410 675.33 410 675.66 410 676C408.784 676.181 408.784 676.181 407.543 676.367C400.337 677.457 393.162 678.65 386 680C386 679.01 386 678.02 386 677C380.39 676.67 374.78 676.34 369 676C369 675.67 369 675.34 369 675C369.71 674.98 370.42 674.96 371.152 674.94C374.414 674.843 377.676 674.734 380.938 674.625C382.613 674.578 382.613 674.578 384.322 674.531C390.128 674.327 395.501 673.916 401.1 672.317C403.335 671.944 404.858 672.32 407 673Z" fill="#E7F8EB"/>
<path d="M852 591C854.438 592.75 854.438 592.75 856 595C856.25 597.75 856.25 597.75 856 600C855.01 600.495 855.01 600.495 854 601C851.717 599.923 849.564 598.805 847.375 597.563C846.764 597.224 846.153 596.886 845.523 596.537C844.012 595.699 842.505 594.85 841 594C841 593.34 841 592.68 841 592C844.781 589.429 847.679 589.92 852 591Z" fill="#E7F8EB"/>
<path d="M433 667C430.03 667.99 427.06 668.98 424 670C424.66 670.66 425.32 671.32 426 672C423.647 672.509 421.293 673.007 418.938 673.5C418.281 673.643 417.624 673.786 416.947 673.934C412.569 674.84 408.496 675.141 404 675C406.709 671.329 410.602 670.865 414.812 669.938C416.215 669.616 417.618 669.292 419.02 668.965C419.696 668.81 420.372 668.655 421.069 668.496C423.248 667.97 423.248 667.97 426.262 666.817C429 666 429 666 433 667Z" fill="#E7F8EB"/>
<path d="M836 602C840.74 603.835 845.364 605.919 850 608C849.67 608.99 849.34 609.98 849 611C842.831 612.452 842.831 612.452 839.125 610.438C836.632 607.578 836.255 605.736 836 602Z" fill="#E7F8EB"/>
<path d="M457 478C457 481 457 481 455.072 483.268C454.192 484.132 453.313 484.996 452.406 485.887C451.94 486.349 451.474 486.81 450.994 487.286C449.503 488.761 448.002 490.224 446.5 491.688C445.488 492.685 444.476 493.683 443.465 494.682C440.984 497.129 438.495 499.567 436 502C435.34 501.67 434.68 501.34 434 501C441.304 492.867 448.757 485.189 457 478Z" fill="#0B6B3A"/>
<path d="M662.543 257.707C664.153 257.722 664.153 257.722 665.795 257.737C666.914 257.762 668.034 257.787 669.188 257.813C670.319 257.826 671.45 257.84 672.615 257.854C675.411 257.889 678.205 257.939 681 258C681 258.33 681 258.66 681 259C673.41 259 665.82 259 658 259C657.67 260.98 657.34 262.96 657 265C657.99 265.66 658.98 266.32 660 267C658.35 266.67 656.7 266.34 655 266C654.312 263.688 654.312 263.688 654 261C656.349 257.583 658.579 257.644 662.543 257.707Z" fill="#0B6B3A"/>
<path d="M351.375 298.187C351.911 298.455 352.447 298.723 353 299C352.113 299.536 351.226 300.072 350.312 300.625C345.247 304.006 341.942 308.734 339 314C338.67 313.34 338.34 312.68 338 312C340.14 306.58 344.599 297.652 351.375 298.187Z" fill="#0B6B3A"/>
<path d="M493 416C491.875 419.376 490.839 420.284 488.188 422.562C487.5 423.162 486.813 423.761 486.105 424.379C484.134 425.896 482.26 426.979 480 428C482.144 423.579 487.601 416 493 416Z" fill="#0B6B3A"/>
<path d="M340 229C340.66 229.33 341.32 229.66 342 230C337.38 234.62 332.76 239.24 328 244C328 239.399 330.898 237.193 334 234C335.947 232.242 337.935 230.622 340 229Z" fill="#E7F8EB"/>
<path d="M340 327C338.02 327.99 338.02 327.99 336 329C336.33 329.66 336.66 330.32 337 331C334.03 331 331.06 331 328 331C327.67 330.01 327.34 329.02 327 328C328.79 327.638 330.582 327.286 332.375 326.938C333.872 326.642 333.872 326.642 335.398 326.34C338 326 338 326 340 327Z" fill="#E7F8EB"/>
<path d="M475 306C474.67 306.99 474.34 307.98 474 309C473.01 309 472.02 309 471 309C470.732 309.598 470.464 310.196 470.188 310.812C469.015 312.972 467.806 314.358 466 316C465.01 315.67 464.02 315.34 463 315C464.101 313.872 465.206 312.748 466.312 311.625C466.927 310.999 467.542 310.372 468.176 309.727C472.113 306 472.113 306 475 306Z" fill="#0B6B3A"/>
<path d="M498 424C498.66 424.33 499.32 424.66 500 425C496.7 428.3 493.4 431.6 490 435C490 431.023 491.38 429.911 494 427C496.25 425.188 496.25 425.188 498 424Z" fill="#E7F8EB"/>
<path d="M310 394C304.636 396.682 300.99 397.315 295 397C299.571 394.44 304.859 391.943 310 394Z" fill="#0B6B3A"/>
<path d="M572 603C566.25 607 566.25 607 564 607C563.67 607.66 563.34 608.32 563 609C563.33 607.35 563.66 605.7 564 604C569.75 601.875 569.75 601.875 572 603Z" fill="#0B6B3A"/>
<path d="M407 673C406.01 673.495 406.01 673.495 405 674C406.65 674.33 408.3 674.66 410 675C410 675.33 410 675.66 410 676C407.69 676 405.38 676 403 676C403 675.34 403 674.68 403 674C401.35 674 399.7 674 398 674C398 673.67 398 673.34 398 673C401.378 672.156 403.675 671.892 407 673Z" fill="#E7F8EB"/>
<path d="M349 360C351.97 360.495 351.97 360.495 355 361C352.333 362.333 349.667 363.667 347 365C347.66 363.35 348.32 361.7 349 360Z" fill="#0B6B3A"/>
<path d="M781 345C782.938 345.375 782.938 345.375 785 346C785.33 346.66 785.66 347.32 786 348C784.68 347.67 783.36 347.34 782 347C782 348.65 782 350.3 782 352C781.34 351.34 780.68 350.68 780 350C780.375 347.375 780.375 347.375 781 345Z" fill="#0B6B3A"/>
<path d="M394 674C396.97 674 399.94 674 403 674C403 674.66 403 675.32 403 676C401.35 676.33 399.7 676.66 398 677C398 676.34 398 675.68 398 675C396.68 674.67 395.36 674.34 394 674Z" fill="#E7F8EB"/>
<path d="M586 624C584.711 624.672 583.419 625.338 582.125 626C581.406 626.372 580.686 626.743 579.945 627.125C578 628 578 628 576 628C577 625 577 625 579.312 623.75C582.166 622.954 583.248 623.179 586 624Z" fill="#0B6B3A"/>
<path d="M662 234C662.66 234.33 663.32 234.66 664 235C662.35 236.98 660.7 238.96 659 241C658.34 240.67 657.68 240.34 657 240C658.65 238.02 660.3 236.04 662 234Z" fill="#0B6B3A"/>
</g>
<defs>
<clipPath id="clip0_75_732">
<rect width="1024" height="1024" fill="white"/>
</clipPath>
</defs>
</svg>
