<svg width="1024" height="1024" viewBox="0 0 1024 1024" fill="none" xmlns="http://www.w3.org/2000/svg">
<g clip-path="url(#clip0_75_708)">
<path d="M0 0C337.92 0 675.84 0 1024 0C1024 337.92 1024 675.84 1024 1024C686.08 1024 348.16 1024 0 1024C0 686.08 0 348.16 0 0Z" fill="#E7F8EB"/>
<path d="M550.851 303.625C568.349 316.824 578.917 334.15 582 356C583.651 379.923 575.911 401.276 560.902 419.828C559 422 559 422 556 424.563C553.409 427.72 553.331 429.794 553.59 433.793C554.515 438.77 557.333 441.764 561.312 444.625C567.367 448.112 574.272 449.37 581 451C601.255 455.932 621.201 461.367 633 480C643.126 497.019 646.371 516.621 650.109 535.777C655.499 566.297 655.499 566.298 670 593C670.787 593.95 670.787 593.95 671.59 594.918C684.618 609.2 714.101 628.719 733.684 630.297C738.474 630.231 741.923 628.515 746.062 626.25C747.065 625.728 747.065 625.728 748.088 625.195C751.294 623.513 754.437 621.747 757.555 619.906C767.577 614.361 778.539 611.256 790 613C793.666 614.245 796.77 615.88 800 618C800.928 618.578 801.856 619.155 802.812 619.75C806.563 623.608 810 628.511 810 634C810.866 633.67 811.732 633.34 812.625 633C816.841 631.751 819.884 631.045 824.016 632.91C828.575 635.536 831.883 638.061 834 643C835.231 651.771 834.12 658.76 829 666C820.371 677.153 809.923 685.446 796 689C795.359 689.203 794.719 689.405 794.059 689.613C788.394 691.296 782.869 691.194 777 691C777.531 691.629 778.062 692.258 778.609 692.906C788.475 704.861 792.12 715.266 791.243 730.707C789.728 745.022 780.634 756.05 771 766C770.285 766.741 769.569 767.483 768.832 768.246C757.344 779.339 742.559 786.756 728 793C726.77 793.545 726.77 793.545 725.516 794.102C704.508 803.012 676.902 812.01 654 811C652.125 809.875 652.125 809.875 651 808C650.575 803.922 650.687 802.469 653 799C655.433 798.336 657.713 797.856 660.191 797.457C661.697 797.19 663.202 796.923 664.707 796.655C665.499 796.518 666.292 796.381 667.108 796.24C700.758 790.376 739.933 780.018 764 754C764.829 753.144 764.829 753.144 765.676 752.27C775.007 742.26 777.503 732.502 777.281 719.153C777.066 714.317 775.934 710.867 773 707C772.319 705.99 771.639 704.979 770.937 703.938C759.91 691.566 741.867 687.069 726 686C686.417 684.295 648.473 689.684 609.711 697.276C546.306 709.648 546.306 709.648 527 710C525.937 710.026 524.874 710.052 523.779 710.078C488.437 710.85 454.074 704.996 419.641 697.406C412.306 695.803 404.92 694.628 397.5 693.5C396.088 693.283 394.676 693.066 393.265 692.849C382.668 691.225 372.066 689.64 361.428 688.309C359.861 688.11 358.296 687.902 356.732 687.684C326.739 683.515 284.573 680.175 259 699C252.04 704.704 247.667 710.387 246.59 719.449C246.057 732.735 250.09 743.239 259 753C259.634 753.726 260.268 754.452 260.922 755.199C271.885 767.007 287.04 775.402 302 781C303.374 781.531 304.747 782.062 306.121 782.594C322.39 788.816 338.751 793.872 356.019 796.36C358.728 796.758 361.324 797.311 363.969 798.016C368.18 799.113 372.362 799.587 376.687 800C381.826 800.525 386.909 801.109 392 802C400.694 803.404 409.49 803.859 418.266 804.496C425.246 805.006 432.213 805.631 439.179 806.303C454.314 807.734 469.5 808.465 484.687 809.063C486.395 809.13 486.395 809.13 488.136 809.199C534.382 810.926 580.731 810.168 627 810C626.732 808.557 626.449 807.116 626.16 805.676C626.004 804.873 625.848 804.071 625.688 803.244C624.35 798.882 621.006 797.119 617.269 795.035C609.791 791.409 601.778 790.076 593.687 788.5C576.036 785.037 561.891 781.725 549.5 767.938C542.837 760.579 537.88 755.927 527.562 755.313C518.824 755.68 513.129 759.682 507.125 765.75C506.612 766.323 506.099 766.895 505.57 767.485C502.1 770.834 499.047 771.275 494.312 771.25C476.892 770.894 458.608 763.119 443.074 755.77C435.226 752.081 427.319 748.539 419.375 745.063C418.684 744.76 417.992 744.457 417.28 744.145C405.651 739.063 393.95 734.283 382 730C381.317 729.749 380.635 729.499 379.932 729.24C371.432 726.128 363.067 724.057 354.168 722.578C351 722 351 722 349 721C346.944 720.755 344.883 720.559 342.82 720.387C341.581 720.273 340.343 720.159 339.066 720.041C336.447 719.806 333.828 719.582 331.207 719.369C329.966 719.251 328.724 719.133 327.445 719.012C326.306 718.914 325.166 718.815 323.993 718.714C320.485 717.877 319.141 716.872 317 714C317.148 710.302 317.358 708.642 320 706C329.063 705.078 338.148 706.102 347.125 707.375C348.457 707.564 348.457 707.564 349.816 707.757C354.412 708.458 358.606 709.439 363 711C366.284 711.789 369.578 712.504 372.879 713.219C375.753 713.938 378.265 714.876 381 716C382.359 716.461 383.722 716.914 385.086 717.36C400.111 722.316 414.796 728.037 429 735C431.933 736.406 434.871 737.799 437.812 739.188C438.538 739.53 439.263 739.873 440.011 740.227C444.452 742.312 448.914 744.257 453.5 746.008C456.608 747.242 459.637 748.631 462.687 750C472.922 754.379 485.768 759.711 497 757C499.575 755.254 501.6 753.339 503.766 751.11C511.163 744.126 520.208 742.525 530.008 742.731C540.577 743.243 548.509 747.761 556 755C557.725 756.902 559.433 758.819 561.125 760.75C569.233 769.821 578.483 771.347 590 774C593.188 774.736 596.375 775.476 599.561 776.223C601.72 776.729 603.88 777.228 606.043 777.718C618.218 780.567 629.909 784.32 637.035 795.285C639.876 800.335 640.73 805.299 640 811C638.283 815.698 636.183 818.276 632 821C626.709 823.263 621.907 823.278 616.258 823.243C614.807 823.246 614.807 823.246 613.327 823.249C610.116 823.253 606.906 823.242 603.695 823.231C601.42 823.229 599.144 823.229 596.869 823.229C592.069 823.228 587.269 823.219 582.469 823.206C576.472 823.189 570.476 823.185 564.479 823.186C540.461 823.185 516.451 823.038 492.437 822.547C490.954 822.518 490.954 822.518 489.442 822.488C475.021 822.195 460.707 821.494 446.334 820.266C442.605 819.969 438.874 819.726 435.141 819.496C434.471 819.455 433.801 819.413 433.112 819.37C429.897 819.17 426.683 818.974 423.468 818.786C416.296 818.332 409.259 817.528 402.153 816.455C398.915 815.988 395.698 815.672 392.438 815.419C343.025 811.492 281.833 799.226 247.328 760.571C240.339 752.301 233.56 741.007 233 730C232.926 728.983 232.853 727.966 232.777 726.918C232.248 714.619 235.714 704.191 244 695C244.997 693.997 245.996 692.997 247 692C246.446 691.93 245.893 691.86 245.323 691.788C226.583 689.363 210.743 685.085 198 670C191.354 661.164 188.858 654.198 190 643C192.135 638.494 194.918 635.826 199 633C203.527 631.491 208.064 631.226 212.5 633C212.995 633.33 213.49 633.66 214 634C214.082 633.299 214.165 632.598 214.25 631.875C216.208 624.369 222.352 618.75 228.875 614.891C237.033 611.288 247.737 611.977 256 615C264.32 618.655 272.338 622.965 279.984 627.871C284.194 630.229 288.231 630.385 293 630C312.002 624.486 331.663 612.222 347 600C347.602 599.575 348.204 599.149 348.824 598.711C366.827 585.575 370.489 553.339 374.32 532.97C384.569 478.921 384.569 478.921 406.922 463.301C417.992 456.371 430.048 453.421 442.625 450.5C455.858 448.088 455.858 448.088 467.062 441.375C469.595 436.963 471.606 433.19 471 428C469.099 425.349 466.962 423.412 464.512 421.262C454.91 412.616 448.322 398.37 445 386C444.723 385.051 444.446 384.103 444.16 383.125C439.089 364.056 442.065 344.402 451.562 327.164C461.464 310.799 475.806 298.781 494.375 293.688C514.218 288.817 534.162 291.721 550.851 303.625Z" fill="#0B6B3A"/>
<path d="M443 465C443.329 466.095 443.329 466.095 443.664 467.211C444.549 470.126 445.449 473.035 446.358 475.942C446.793 477.335 447.223 478.73 447.649 480.125C452.437 495.712 458.162 511.581 470.203 523.11C472 525 472 525 472 527C472.563 527.261 473.127 527.521 473.707 527.79C476.225 529.119 478.396 530.685 480.688 532.375C493.217 541.225 506.889 543.763 522 542C538.473 538.488 552.605 527.575 561.75 513.625C570.934 498.254 576.231 482.394 580 465C593.009 465.323 608.599 470.963 617.75 480.5C629.969 495.964 633.107 515.912 636.77 534.693C643.034 566.789 649.137 596.552 677.125 616.625C679.403 618.117 681.684 619.573 684 621C684.688 621.431 685.376 621.861 686.085 622.304C710.996 638.412 710.996 638.412 739 643C748.529 639.635 757.47 634.846 766.328 630.022C772.007 626.93 776.365 624.692 783 625C782.525 630.017 781.065 632.788 778 636.75C773.523 642.57 773.523 642.57 772.66 649.77C773.286 653.88 775.224 656.959 778 660C782.712 662.793 786.567 663.668 792 663C798.732 661.015 802.919 656.288 807.676 651.356C810.361 648.635 812.569 646.676 816 645C820.286 645.286 820.286 645.286 822 647C821.859 655.045 818.646 659.075 813.316 664.813C803.628 674.147 792.011 678.179 778.875 678.188C777.525 678.206 777.525 678.206 776.148 678.225C765.383 678.248 755.168 675.773 745.15 671.898C734.778 667.912 724.243 665.737 713.375 663.563C663.219 653.511 663.219 653.511 644 639C643.359 638.554 642.719 638.108 642.059 637.649C626.252 625.693 616.248 601.993 607.75 584.688C607.177 583.537 606.603 582.386 606.012 581.201C600.466 569.645 602.495 561.726 605.223 549.6C606.781 542.294 607.302 535.465 607 528C602.99 527.822 602.99 527.822 599 528C596.452 530.549 596.488 532.044 595.957 535.582C595.774 536.732 595.591 537.881 595.403 539.066C595.208 540.302 595.013 541.539 594.813 542.813C592.698 555.417 589.461 567.051 585 579C572.954 611.636 578.235 635.883 592.441 666.784C593.422 668.891 594.41 670.995 595.406 673.094C595.859 674.053 596.311 675.012 596.777 676C597.182 676.846 597.587 677.692 598.004 678.563C599.016 681.039 599.565 683.367 600 686C593.372 687.462 586.739 688.903 580.104 690.329C577.343 690.926 574.585 691.538 571.828 692.153C560.169 694.688 548.597 695.959 536.701 696.796C533.952 697.004 531.212 697.266 528.469 697.536C504.245 699.758 479.735 696.892 456 692C453.877 691.636 451.752 691.281 449.625 690.938C441.351 689.583 433.176 687.847 425 686C426.403 679.573 428.604 673.826 431.25 667.813C431.651 666.886 432.052 665.959 432.466 665.004C434.653 659.974 436.933 655.005 439.313 650.063C444.37 639.273 447.162 627.907 447.25 616C447.271 615.334 447.291 614.668 447.313 613.981C447.413 600.471 442.378 587.58 438 575C433.114 560.96 429.421 547.338 427.527 532.547C427.211 529.845 427.211 529.845 425 528C422 527.667 422 527.667 419 528C416.643 529.899 416.643 529.899 416.918 533.133C416.994 534.465 417.085 535.796 417.188 537.125C417.237 537.828 417.285 538.531 417.336 539.255C418.212 551.995 418.212 551.995 422 564C422.635 572.631 418.668 579.458 415 587C414.576 587.874 414.153 588.747 413.716 589.646C408.325 600.628 402.491 611.223 395.75 621.438C395.196 622.283 394.643 623.128 394.072 623.999C384.453 638.192 372.708 645.19 357.046 651.208C355.177 651.932 353.324 652.697 351.473 653.465C344.858 655.926 337.865 657.292 331 658.875C329.472 659.233 327.944 659.591 326.416 659.949C317.661 661.99 308.887 663.844 300.063 665.563C291.031 667.34 282.734 670.109 274.164 673.418C260.043 678.85 242.394 681.157 227.813 676C218.838 671.842 210.827 666.048 205 658C204.381 657.155 203.763 656.309 203.125 655.438C201.732 652.419 201.635 650.289 202 647C202.99 646.01 202.99 646.01 204 645C209.015 645.202 211.39 646.755 214.938 650.188C215.795 650.997 216.652 651.807 217.535 652.641C218.349 653.42 219.162 654.198 220 655C221.281 656.158 222.572 657.306 223.875 658.438C224.645 659.117 224.645 659.117 225.43 659.809C229.098 662.592 232.18 663.457 236.844 663.309C241.399 662.657 245.286 660.902 248.391 657.457C250.637 654 251.79 650.432 251.594 646.247C250.275 641.259 246.915 637.176 244 633C241 628.416 241 628.416 241 625C246.179 625.538 250.496 626.78 255.25 628.938C256.268 629.386 256.268 629.386 257.307 629.842C262.133 632.013 266.734 634.488 271.349 637.07C279.848 641.789 286.192 645.058 296.016 642.469C298.078 641.765 300.015 640.901 302 640C302.776 639.707 303.552 639.413 304.352 639.11C322.667 632.037 342.781 622.267 356.773 608.215C359 606 359 606 362 605C363.065 603.157 363.065 603.157 364 601C364.922 599.635 365.86 598.282 366.813 596.938C378.955 578.768 382.719 556.25 387.063 535.25C397.133 486.622 397.133 486.622 412.215 475.344C421.347 469.543 432.071 464.752 443 465Z" fill="#E7F8EB"/>
<path d="M518 304C519.764 304.093 519.764 304.093 521.563 304.187C537.419 307.935 551.906 317.403 560.938 331.062C569.636 346.505 571.432 363.824 567 381C561.003 400.917 549.556 417.121 531.438 427.812C521.802 432.828 510.228 433.83 499.684 431.16C480.545 423.749 468.128 408.263 460 390C458.809 387.036 457.834 384.082 457 381C456.795 380.28 456.59 379.561 456.379 378.82C452.526 363.036 454.814 346.657 462.461 332.371C465.451 327.764 469.131 323.876 473 320C473.64 319.349 474.279 318.698 474.938 318.027C486.805 306.778 502.079 303.161 518 304Z" fill="#E7F8EB"/>
<path d="M483 437C483.683 437.276 484.366 437.552 485.07 437.836C486.521 438.412 486.521 438.412 488 439C489.605 439.638 489.605 439.638 491.242 440.289C506.247 445.807 520.414 445.395 535.125 438.812C535.829 438.468 536.533 438.124 537.258 437.77C539 437 539 437 541 437C541.34 437.785 541.681 438.57 542.031 439.379C546.805 449.726 551.341 454.771 562 458.938C563.994 459.642 565.992 460.336 568 461C566.433 483.162 557.554 504.909 541 520C530.334 528.62 519.588 531.788 506 531C493.013 528.857 481.575 520.18 473.652 509.977C464.345 496.687 455 477.491 455 461C455.701 460.769 456.402 460.539 457.125 460.301C466.866 456.952 475.346 453.307 480.191 443.617C481.176 441.428 482.113 439.231 483 437Z" fill="#E7F8EB"/>
<path d="M513.942 128.117C519.039 130.303 522.996 134.259 527 138C527.738 138.669 528.475 139.338 529.235 140.028C543.921 153.946 554.409 175.574 555.336 195.903C555.757 218.851 550.519 242.775 534.883 260.5C533 262 533 262 529.188 262.813C526 262 526 262 524.063 260.813C522.607 258.33 522.693 256.857 523 254C524.504 251.633 524.504 251.633 526.563 249.125C540.235 231.089 543.43 209.818 540.707 187.611C537.781 170.677 526.669 153.401 513 143C501.235 146.943 494.389 159.558 489 170C487.441 173.282 486.072 176.529 485 180C484.646 181.145 484.291 182.29 483.926 183.469C478.728 204.888 483.841 227.495 495 246C495.907 247.252 496.824 248.496 497.754 249.731C500 253 500 253 500 256.813C499 260 499 260 496 262C493.17 262.357 491.646 262.442 489.262 260.813C473.17 242.286 467.538 216.901 469 193C469.97 183.086 472.609 173.946 477 165C477.454 164.066 477.908 163.131 478.375 162.168C481.841 155.434 486.135 149.777 491 144C491.743 142.99 492.485 141.979 493.25 140.938C497.874 135.499 506.316 127.135 513.942 128.117Z" fill="#0B6B3A"/>
<path d="M428 587C430.566 589.566 431.021 591.782 432.062 595.25C432.404 596.369 432.746 597.488 433.098 598.641C438.584 619.066 432.357 639.754 422.96 658.068C421.075 661.861 419.396 665.75 417.688 669.625C417.181 670.764 417.181 670.764 416.665 671.925C415.038 675.592 413.478 679.27 412 683C403.486 681.996 395.002 680.884 386.531 679.562C385.316 679.373 385.316 679.373 384.077 679.18C382.406 678.92 380.735 678.659 379.065 678.399C364.834 676.187 350.712 674.261 336.332 673.324C333.148 673.117 330.111 672.754 327 672C327 671.67 327 671.34 327 671C327.683 670.86 328.366 670.72 329.069 670.576C344.367 667.389 358.803 663.595 373 657C373.648 656.699 374.296 656.399 374.964 656.089C402.362 643.073 414.839 612.625 428 587Z" fill="#E7F8EB"/>
<path d="M594 587C594.66 587 595.32 587 596 587C596.526 588.062 596.526 588.062 597.063 589.145C605.063 605.188 613.562 620.375 624 635C624.726 636.056 625.451 637.111 626.199 638.199C641.353 658.944 670.551 665.256 694 671C694 671.33 694 671.66 694 672C693.142 672.1 692.283 672.2 691.399 672.304C667.597 675.098 643.814 678.011 620.258 682.484C617.427 682.932 614.856 683.109 612 683C611.743 682.282 611.487 681.564 611.222 680.824C608.641 673.845 605.72 667.142 602.5 660.438C590.258 634.835 584.903 614.484 594 587Z" fill="#E7F8EB"/>
<path d="M633.973 177.242C637.999 184.131 634.782 196.1 632.977 203.526C629.609 215.933 623.103 227.092 615 237C613.911 238.351 613.911 238.351 612.801 239.73C598.781 256.16 576.618 269.811 554.844 272.371C552.467 272.429 550.328 272.474 548 272C546 270 546 270 545.688 267.062C546 264 546 264 547.07 262.449C549.838 260.37 552.901 259.657 556.188 258.75C579.49 251.827 599.987 239.72 612.324 218.136C612.877 217.101 613.43 216.066 614 215C614.481 214.119 614.962 213.239 615.457 212.332C619.47 204.317 621.171 195.714 623 187C604.129 187.126 589.581 189.499 572.988 198.644C569.975 200.011 568.253 200.395 565 200C562.368 198.366 562.05 197.206 561.312 194.187C562.243 189.871 564.212 188.974 567.693 186.487C583.342 176.399 616.528 166.257 633.973 177.242Z" fill="#0B6B3A"/>
<path d="M459 188C461.545 190.131 461.948 190.581 462.375 194C462 197 462 197 460.937 198.938C457.824 200.645 455.416 199.692 452 199C449.374 198.016 446.883 196.814 444.375 195.563C433.126 190.085 423.392 187.797 410.875 187.375C409.44 187.317 409.44 187.317 407.976 187.258C405.651 187.165 403.326 187.079 401 187C406.486 211.15 416.544 231.959 437.812 245.813C448.118 252.24 459.294 257.382 471.027 260.547C475.848 261.849 475.848 261.849 478 264C477.75 267.563 477.75 267.563 477 271C470.432 274.284 462.726 271.595 456.187 269.438C430.617 260.618 408.936 242.781 396.542 218.65C390.62 206.43 387.075 192.662 389 179C402.611 161.766 445.179 179.67 459 188Z" fill="#0B6B3A"/>
<path d="M695.016 705.84C702.481 705.615 702.481 705.615 704.789 707.328C706.664 709.917 706.387 711.902 706 715C704.384 717.182 703.409 717.906 700.745 718.521C699.427 718.629 699.427 718.629 698.082 718.738C697.087 718.833 696.092 718.927 695.067 719.025C693.456 719.167 693.456 719.167 691.812 719.313C660.313 722.622 631.636 734.279 603.188 747.625C602.035 748.165 600.883 748.705 599.695 749.262C597.711 750.193 595.731 751.129 593.753 752.073C591.363 753.209 588.964 754.325 586.562 755.438C585.829 755.792 585.095 756.147 584.339 756.512C579.302 758.82 575.543 759.459 570 759C567.422 757.47 567.139 756.481 566.312 753.625C567.255 750.025 569.346 749.246 572.421 747.41C577.572 744.595 582.911 742.185 588.25 739.75C589.499 739.177 590.748 738.603 591.996 738.03C594.491 736.884 596.988 735.743 599.486 734.604C602.615 733.176 605.738 731.737 608.859 730.293C616.492 726.783 624.032 723.355 632.102 720.949C634.699 720.099 637.173 719.125 639.699 718.086C644.781 716.032 649.912 714.415 655.188 712.938C656.098 712.681 657.009 712.424 657.947 712.16C670.203 708.765 682.306 706.515 695.016 705.84Z" fill="#0B6B3A"/>
<path d="M400.324 237.367C402 239 402 239 402.5 241.437C401.828 244.88 400.766 245.851 398 248C395.33 248.534 392.94 248.869 390.25 249.062C384.356 249.624 379.438 250.654 374 253C373.01 253 372.02 253 371 253C378.406 265.881 393.065 274.096 406.988 278.191C407.982 278.458 408.976 278.725 410 279C410.983 279.298 411.967 279.595 412.98 279.902C422.185 282.335 431.087 282.2 440.557 281.89C441.604 281.864 442.651 281.839 443.73 281.812C444.673 281.778 445.615 281.743 446.587 281.707C449 282 449 282 450.837 283.289C452 285 452 285 451.875 288.562C451 292 451 292 448 294C426.988 299.97 402.814 292.112 384.25 282.687C374.74 277.383 366.717 270.56 360 262C359.196 261.01 358.391 260.02 357.562 259C355.869 255.748 355.15 253.53 355.379 249.883C356.429 246.698 358.511 245.667 361.391 244.156C390.179 231.399 390.179 231.399 400.324 237.367Z" fill="#0B6B3A"/>
<path d="M636 236C647.69 237.822 658.089 241.393 668 248C668.875 252.765 667.937 255.567 665.375 259.5C664.269 261.015 663.145 262.515 662 264C661.578 264.587 661.157 265.173 660.723 265.778C647.13 283.336 624.24 291.442 603.078 294.582C598.697 295.096 594.345 295.184 589.938 295.188C589.174 295.2 588.41 295.212 587.623 295.225C582.701 295.238 578.64 294.685 574 293C572 291 572 291 571.75 287.5C572 284 572 284 574 282C576.205 281.837 576.205 281.837 578.961 281.946C579.98 281.973 580.999 282.001 582.049 282.03C583.147 282.061 584.244 282.093 585.375 282.125C608.296 282.401 628.344 277.251 646 262C648.492 259.447 650.807 256.814 653 254C651.005 253.318 649.003 252.657 647 252C646.261 251.748 645.523 251.495 644.762 251.235C640.149 249.734 635.979 248.835 631.125 248.563C627.666 248.313 626.272 248.177 623.312 246.25C621.721 243.522 621.442 242.107 622 239C625.589 234.291 630.614 235.454 636 236Z" fill="#0B6B3A"/>
<path d="M793 631C796.875 632.875 796.875 632.875 798 634C798.646 638.269 798.862 642.306 796.871 646.219C794.335 649.45 792.852 650.836 788.75 651.625C786 651 786 651 784 648C783.698 640.614 788.319 636.3 793 631Z" fill="#E7F8EB"/>
<path d="M228 632C231.265 632.305 232.692 632.694 235.055 635.039C240.574 642.88 240.574 642.88 240 647.062C239 650 239 650 238 651C235.25 651.438 235.25 651.438 232 651C228.003 647.003 226.117 644.177 225.812 638.5C226 635 226 635 228 632Z" fill="#E7F8EB"/>
</g>
<defs>
<clipPath id="clip0_75_708">
<rect width="1024" height="1024" fill="white"/>
</clipPath>
</defs>
</svg>
