<svg width="1024" height="1024" viewBox="0 0 1024 1024" fill="none" xmlns="http://www.w3.org/2000/svg">
<g clip-path="url(#clip0_75_591)">
<path d="M0 0C337.92 0 675.84 0 1024 0C1024 337.92 1024 675.84 1024 1024C686.08 1024 348.16 1024 0 1024C0 686.08 0 348.16 0 0Z" fill="#E7F8EB"/>
<path d="M510.781 281.831C511.794 281.828 512.806 281.824 513.849 281.821C515.984 281.816 518.118 281.814 520.253 281.814C523.463 281.812 526.673 281.793 529.883 281.774C551.248 281.716 571.619 284.282 592.25 289.937C593.156 290.177 594.062 290.418 594.995 290.666C603.198 293.001 603.198 293.001 606 296.999C605.838 300.391 605.417 301.582 603 303.999C596.744 304.544 590.492 302.362 584.562 300.624C575.158 297.873 565.714 296.221 556 294.999C555.296 294.903 554.593 294.808 553.867 294.709C545.097 293.656 536.258 293.756 527.438 293.749C526.573 293.748 525.708 293.747 524.817 293.746C510.364 293.757 496.27 294.556 482 296.999C481.077 297.154 480.153 297.309 479.202 297.469C456.716 301.273 456.716 301.273 439.721 315.722C436.825 319.893 434.168 324.208 431.52 328.539C429.94 331.097 428.318 333.624 426.684 336.147C418.606 348.633 410.924 361.318 403.575 374.246C402.113 376.801 400.62 379.336 399.121 381.87C394.57 389.737 390.856 396.618 393 405.999C395.13 410.496 397.426 413.024 402 414.999C407.346 416.226 410.903 416.105 416.043 414.276C421.605 410.646 424.871 404.203 428.188 398.624C429.055 397.178 429.923 395.733 430.793 394.288C431.28 393.478 431.767 392.668 432.269 391.834C433.561 389.718 434.865 387.614 436.186 385.516C436.582 384.886 436.978 384.257 437.386 383.609C438.235 382.261 439.084 380.914 439.934 379.567C442.277 375.833 444.552 372.073 446.743 368.248C463.56 338.907 463.56 338.907 472.207 334.285C478.647 332.744 484.562 333.798 490.918 335.321C494.969 336.212 498.94 336.424 503.073 336.643C508.065 336.925 513.028 337.48 518 337.999C519.095 338.106 520.19 338.213 521.318 338.324C524.631 338.652 527.941 339.008 531.25 339.374C532.778 339.526 532.778 339.526 534.336 339.682C541.327 340.512 541.327 340.512 544.68 342.937C546 344.999 546 344.999 545.875 347.624C545 349.999 545 349.999 543 351.999C541.887 352.062 540.773 352.125 539.626 352.19C535.769 352.634 535.769 352.634 533.819 355.96C533.18 357.276 532.571 358.605 531.984 359.944C531.647 360.657 531.31 361.37 530.962 362.104C529.866 364.433 528.808 366.778 527.75 369.124C526.995 370.746 526.237 372.367 525.477 373.987C523.973 377.199 522.484 380.416 521.006 383.64C518.958 388.105 516.84 392.535 514.699 396.957C511.153 404.281 507.692 411.646 504.23 419.011C503.898 419.719 503.565 420.427 503.222 421.157C501.501 424.818 499.782 428.48 498.067 432.143C494.854 438.996 491.614 445.831 488.262 452.616C473.129 483.197 473.129 483.197 474.688 516.499C476.565 521.388 478.886 525.79 482 529.999C482.589 530.805 483.178 531.61 483.785 532.44C491.132 540.927 501.547 545.609 512 548.999C512.667 549.221 513.334 549.443 514.021 549.672C526.703 553.893 539.571 557.454 552.451 561.013C556.236 562.065 560.017 563.129 563.797 564.198C565.147 564.58 566.497 564.961 567.847 565.343C569.89 565.92 571.932 566.498 573.975 567.075C581.172 569.109 588.374 571.112 595.605 573.022C596.792 573.336 597.979 573.65 599.201 573.974C601.418 574.557 603.636 575.134 605.855 575.704C615.741 578.301 615.741 578.301 620 580.999C621.062 583.999 621.062 583.999 621 586.999C620.062 588.874 620.062 588.874 618 589.999C614.259 590.24 611.242 590.358 607.644 589.319C604.251 588.908 603.278 589.682 600.559 591.683C599.734 592.276 598.909 592.87 598.06 593.482C596.762 594.449 596.762 594.449 595.438 595.437C593.628 596.746 591.818 598.055 590.008 599.362C589.139 599.996 588.271 600.63 587.376 601.283C584.568 603.311 581.713 605.23 578.812 607.124C574.119 610.22 569.522 613.433 564.938 616.687C556.41 622.733 547.821 628.683 539.157 634.534C537.248 635.831 535.353 637.146 533.461 638.468C525.65 643.762 517.602 647.656 508.901 651.287C498.414 655.779 498.414 655.779 491 663.999C488.37 683.537 509.709 709.318 520.719 724.32C526.794 732.585 526.794 732.585 535.938 736.468C540.658 736.516 544.058 736.479 548.312 734.312C553.04 725.031 547.74 712.079 545.062 702.562C544.698 701.227 544.334 699.891 543.971 698.556C542.082 691.639 542.082 691.639 539.912 684.807C538.758 681.253 538.45 678.709 539 674.999C544.346 670.619 550.927 668.179 557.188 665.374C567.484 660.69 577.521 655.706 587.476 650.341C590.264 648.859 593.071 647.416 595.883 645.979C609.61 638.957 623.029 631.542 636.265 623.632C638.818 622.108 641.379 620.599 643.941 619.093C657.816 610.867 672.186 602.069 682 588.999C682.471 588.393 682.941 587.787 683.426 587.163C687.534 580.697 686.846 572.32 686 564.999C683.234 556.156 677.312 549.475 669.812 544.249C669.207 543.824 668.602 543.399 667.978 542.962C654.135 533.458 638.891 526.384 623.727 519.282C621.289 518.135 618.861 516.971 616.438 515.796C606.371 510.929 596.175 506.367 585.938 501.874C585.243 501.569 584.548 501.264 583.832 500.95C574.965 497.068 566.076 493.277 556.949 490.04C553.413 488.749 552.16 488.239 550 484.999C549.75 481.937 549.75 481.937 550 478.999C552 476.999 552 476.999 554.752 476.739C558.242 477.018 560.738 477.821 563.965 479.159C565.087 479.62 566.209 480.08 567.365 480.554C568.544 481.052 569.723 481.549 570.938 482.062C572.153 482.566 573.369 483.07 574.621 483.59C582.011 486.678 589.315 489.887 596.535 493.354C599.621 494.819 602.726 496.204 605.859 497.566C660.515 521.383 660.515 521.383 680 536.999C680.656 537.504 681.312 538.01 681.988 538.53C683.375 539.627 684.698 540.803 686 541.999C686 542.659 686 543.319 686 543.999C686.66 543.999 687.32 543.999 688 543.999C696.252 553.881 700.065 564.083 699 576.999C696.5 593.767 685.705 605.441 672.534 615.228C654.352 628.268 634.355 639.004 614.665 649.559C611.95 651.026 609.251 652.518 606.555 654.019C594.431 660.748 582.113 666.884 569.566 672.781C563.996 675.424 558.497 678.208 553 680.999C552.432 687.172 554.506 692.523 556.375 698.312C565.324 726.378 565.324 726.378 560.5 737.499C557.051 743.218 551.239 746.929 545 748.999C536.495 750.142 530.119 748.7 523 743.999C522.348 743.572 521.695 743.146 521.023 742.706C503.598 729.332 483.745 695.446 479 673.999C478.119 666.893 477.953 660.636 482.418 654.757C482.94 654.177 483.462 653.597 484 652.999C484.512 652.419 485.024 651.839 485.551 651.241C492.702 644.17 502.68 640.412 511.715 636.312C525.118 630.092 536.926 621.44 549 612.999C551.04 611.585 553.08 610.172 555.121 608.761C562.49 603.657 569.851 598.543 577.145 593.331C577.937 592.766 578.729 592.201 579.545 591.619C581.017 590.568 582.486 589.512 583.951 588.451C588.779 584.999 588.779 584.999 591 584.999C591 584.339 591 583.679 591 582.999C589.928 582.898 588.855 582.798 587.75 582.694C582.026 581.974 576.551 580.408 571 578.874C569.859 578.563 568.719 578.251 567.543 577.931C557.987 575.307 548.468 572.564 538.965 569.753C534.881 568.545 530.79 567.369 526.691 566.214C510.495 561.631 495.687 557.197 482 546.999C481.346 546.541 480.693 546.084 480.02 545.612C469.57 537.649 463.068 524.776 461 511.999C458.482 489.748 465.686 470.302 475.636 450.764C479.236 443.65 482.522 436.398 485.792 429.127C488.995 422.048 492.42 415.101 495.912 408.162C499.338 401.347 502.67 394.486 506 387.624C506.347 386.911 506.693 386.197 507.05 385.462C511.462 376.375 515.807 367.271 519.793 357.986C521.028 355.115 522.258 352.612 524 349.999C523.381 349.974 522.761 349.949 522.123 349.923C519.27 349.806 516.416 349.684 513.562 349.562C512.589 349.522 511.615 349.483 510.611 349.442C504.7 349.185 498.874 348.691 493 347.999C483.964 346.925 483.964 346.925 475 347.999C471.345 351.045 469.904 354.709 468 358.999C466.83 360.836 465.62 362.649 464.375 364.437C456.386 376.381 448.519 388.401 441.062 400.687C439.75 402.843 438.437 404.999 437.124 407.155C436.158 408.739 435.194 410.324 434.23 411.909C429.311 419.684 423.892 424.48 415.027 427.362C407.445 428.957 400.374 428.169 393.562 424.437C387.422 420.283 383.409 414.995 381 407.999C380.516 405.386 380.516 405.386 380.25 402.687C380.152 401.804 380.054 400.921 379.953 400.011C380.083 391.684 383.714 385.117 387.562 377.937C388.1 376.922 388.637 375.907 389.19 374.861C393.527 366.733 398.135 358.82 403 350.999C403.642 349.942 404.284 348.885 404.945 347.796C412.275 335.748 419.954 323.916 427.875 312.249C428.535 311.266 428.535 311.266 429.208 310.263C440.437 293.876 456.669 289.153 475.331 285.549C487.157 283.399 498.744 281.845 510.781 281.831Z" fill="#0B6B3A"/>
<path d="M792 317C797.983 322.274 801.444 327.922 802.312 335.856C802.971 352.098 791.285 363.775 782 376C781.536 376.615 781.073 377.23 780.595 377.864C773.32 387.494 765.387 396.327 757 405C756.386 405.642 755.772 406.283 755.139 406.944C746.644 415.791 737.87 423.72 728 431C727.094 431.69 726.188 432.379 725.254 433.09C714.658 440.909 705.057 443.455 692 442C672.997 437.079 654.956 420.025 640.969 406.793C639.121 404.948 639.121 404.948 637 404C636.742 404.677 636.484 405.354 636.219 406.051C628.156 425.562 616.722 443.887 605.463 461.665C604.158 463.748 602.892 465.847 601.641 467.961C600.975 469.046 600.31 470.132 599.625 471.25C598.809 472.619 598.809 472.619 597.977 474.016C595.174 476.829 592.887 476.911 589 477C587 475 587 475 586.555 471.903C587.143 466.744 589.232 463.778 592.125 459.563C593.238 457.868 594.347 456.172 595.453 454.473C596.328 453.135 596.328 453.135 597.221 451.77C620.065 416.205 644.775 373.318 649.078 330.545C649.847 323.153 649.847 323.153 653 320C657.219 320.201 659.364 320.382 662.449 323.379C663.188 324.43 663.926 325.48 664.688 326.563C665.544 327.749 666.401 328.935 667.258 330.121C667.702 330.751 668.145 331.382 668.603 332.031C671.024 335.444 673.548 338.78 676.062 342.125C676.57 342.805 677.078 343.484 677.602 344.185C681.905 349.928 686.407 355.486 691 361C692.691 363.06 694.377 365.124 696.062 367.188C696.817 368.109 697.571 369.031 698.348 369.981C698.893 370.647 699.438 371.314 700 372C704.169 371.474 706.268 369.195 709.25 366.375C710.234 365.454 711.218 364.533 712.203 363.613C713.126 362.751 714.049 361.889 715 361C716.327 359.847 717.66 358.701 719 357.563C727.466 350.192 735.136 342.008 742.332 333.408C755.782 317.35 770.655 302.31 792 317Z" fill="#E7F8EB"/>
<path d="M655.5 184.688C656.809 184.663 656.809 184.663 658.145 184.639C673.193 184.628 687.195 191.799 698 202C710.493 214.781 716.424 230.151 716.366 247.871C716.038 265.197 709.122 278.813 697 291C696.223 291.83 696.223 291.83 695.43 292.676C685.367 302.449 670.951 306.901 657.313 307.313C640.565 306.968 625.264 302.006 613.055 290.258C599.711 275.595 592.952 260.173 593.66 240.273C594.638 224.868 601.71 210.55 613 200C625.865 189.249 638.858 184.626 655.5 184.688Z" fill="#E7F8EB"/>
<path d="M449 521C450.875 522.25 450.875 522.25 452 524C451.673 529.125 448.818 533.144 446.25 537.438C445.763 538.266 445.275 539.095 444.773 539.948C443.189 542.637 441.595 545.319 440 548C437.853 551.624 435.708 555.25 433.563 558.875C433.02 559.791 432.477 560.707 431.918 561.651C424.868 573.569 417.997 585.591 411.272 597.695C409.535 600.809 407.765 603.903 406 607C405.54 607.858 405.08 608.715 404.606 609.598C400.529 616.581 394.228 620.905 387.836 625.636C385.548 627.336 383.293 629.077 381.04 630.823C377.834 633.304 374.613 635.764 371.396 638.23C364.759 643.317 358.151 648.439 351.582 653.613C345.972 658.03 340.334 662.411 334.695 666.79C329.368 670.93 324.056 675.088 318.766 679.274C317.724 680.096 316.678 680.913 315.628 681.725C314.508 682.603 313.404 683.502 312.315 684.419C305.685 689.787 297.965 692.868 290.202 696.248C280.108 700.667 269.189 705.622 264 716C261.664 731.057 276.108 748.908 284.578 760.614C291.702 770.214 298.116 778.616 310 782C313.794 782.475 317.495 782.475 321.313 782.375C322.275 782.374 323.237 782.373 324.229 782.371C331.683 782.474 331.683 782.474 338 779C338.173 774.937 337.732 772.922 335.172 769.7C333.589 768.011 332 766.328 330.406 764.649C324.499 758.147 320.609 750.565 317 742.625C316.685 741.947 316.369 741.269 316.044 740.57C314.813 737.742 314.009 735.334 313.926 732.239C315.555 728.844 317.814 728.156 321.188 726.563C336.602 718.903 350.84 709.006 364.801 698.989C369.271 695.786 373.822 692.709 378.375 689.625C387.289 683.564 395.968 677.214 404.612 670.775C407.826 668.387 411.053 666.016 414.28 663.645C417.433 661.328 420.58 659.003 423.728 656.678C425.226 655.572 426.725 654.468 428.226 653.366C444.803 641.188 458.216 627.848 470.782 611.574C471.803 610.254 472.834 608.943 473.867 607.633C477.97 602.431 481.884 597.097 485.793 591.748C488.863 587.547 491.948 583.356 495.063 579.188C495.775 578.233 496.488 577.277 497.223 576.293C499 574 499 574 501 572C504 572.188 504 572.188 507 573C509 576 509 576 508.965 578.719C507.679 583.093 505.379 585.969 502.563 589.5C501.457 590.926 500.353 592.353 499.25 593.782C498.698 594.492 498.147 595.202 497.578 595.934C495.317 598.895 493.192 601.944 491.063 605C485.89 612.347 480.217 619.263 474.493 626.183C473.165 627.799 471.86 629.434 470.559 631.071C460.438 643.78 448.989 653.423 436 663C434.392 664.195 432.784 665.391 431.176 666.586C422.403 673.093 413.565 679.504 404.656 685.824C402.405 687.423 400.16 689.031 397.915 690.639C395.566 692.32 393.214 693.997 390.861 695.673C389.596 696.575 388.332 697.478 387.068 698.382C334.449 736 334.449 736 327 736C331.361 745.027 335.771 752.255 342.723 759.528C347.692 764.923 350.25 769.678 350.75 777.063C350.492 782.532 349.036 785.637 345.133 789.446C341.659 791.978 338.169 793.106 334 794C332.577 794.341 332.577 794.341 331.125 794.688C316.567 796.144 302.176 794.118 289.813 785.875C277.769 774.495 268.265 759.194 259.938 745C259.485 744.236 259.032 743.472 258.565 742.684C253.039 733.044 250.649 724.2 252 713C255.585 701.88 265.984 694.499 275.787 689.12C279.347 687.319 283.012 685.769 286.671 684.181C298.035 679.232 307.064 673.775 316.275 665.516C318.901 663.209 321.654 661.115 324.438 659C325.48 658.204 326.523 657.407 327.598 656.586C328.732 655.724 329.866 654.862 331 654C339.23 647.745 347.45 641.487 355.5 635C360.841 630.698 366.24 626.48 371.688 622.313C372.405 621.757 373.123 621.202 373.862 620.63C376.968 618.239 380.037 615.977 383.356 613.883C392.804 607.796 396.683 599.475 401.603 589.716C403.889 585.274 406.38 580.953 408.875 576.625C409.373 575.757 409.871 574.889 410.383 573.995C416.16 563.94 422.051 553.954 428 544C428.629 542.947 429.257 541.894 429.905 540.809C431.826 537.598 433.755 534.392 435.688 531.188C436.288 530.184 436.889 529.181 437.507 528.147C438.345 526.766 438.345 526.766 439.199 525.356C439.693 524.538 440.186 523.719 440.694 522.876C443.134 519.371 445.17 519.879 449 521Z" fill="#0B6B3A"/>
<path d="M792 317C797.983 322.274 801.444 327.922 802.312 335.856C802.971 352.098 791.285 363.775 782 376C781.536 376.615 781.073 377.23 780.595 377.864C773.32 387.494 765.387 396.327 757 405C756.386 405.642 755.772 406.283 755.139 406.944C746.644 415.791 737.87 423.72 728 431C727.094 431.69 726.188 432.379 725.254 433.09C714.658 440.909 705.057 443.455 692 442C672.997 437.079 654.956 420.025 640.969 406.793C639.121 404.948 639.121 404.948 637 404C636.742 404.677 636.484 405.354 636.219 406.051C628.156 425.562 616.722 443.887 605.463 461.665C604.158 463.748 602.892 465.847 601.641 467.961C600.975 469.046 600.31 470.132 599.625 471.25C598.809 472.619 598.809 472.619 597.977 474.016C595.174 476.829 592.887 476.911 589 477C587 475 587 475 586.555 471.903C587.143 466.744 589.232 463.778 592.125 459.563C593.238 457.868 594.347 456.172 595.453 454.473C596.328 453.135 596.328 453.135 597.221 451.77C620.065 416.205 644.775 373.318 649.078 330.545C649.847 323.153 649.847 323.153 653 320C657.219 320.201 659.364 320.382 662.449 323.379C663.188 324.43 663.926 325.48 664.688 326.563C665.544 327.749 666.401 328.935 667.258 330.121C667.702 330.751 668.145 331.382 668.603 332.031C671.024 335.444 673.548 338.78 676.062 342.125C676.57 342.805 677.078 343.484 677.602 344.185C681.905 349.928 686.407 355.486 691 361C692.691 363.06 694.377 365.124 696.062 367.188C696.817 368.109 697.571 369.031 698.348 369.981C698.893 370.647 699.438 371.314 700 372C704.169 371.474 706.268 369.195 709.25 366.375C710.234 365.454 711.218 364.533 712.203 363.613C713.126 362.751 714.049 361.889 715 361C716.327 359.847 717.66 358.701 719 357.563C727.466 350.192 735.136 342.008 742.332 333.408C755.782 317.35 770.655 302.31 792 317ZM752.312 339.141C745.238 347.889 737.174 355.9 729.25 363.875C728.749 364.381 728.248 364.887 727.731 365.408C724.247 368.877 724.247 368.877 722 370C722 370.66 722 371.32 722 372C721.459 372.226 720.917 372.451 720.359 372.684C717.866 374.075 715.9 375.774 713.788 377.684C706.069 384.603 706.069 384.603 701.75 385.563C687.753 383.463 675.086 359.663 667 349C665.587 347.143 664.171 345.288 662.75 343.438C662.229 342.756 661.708 342.074 661.172 341.371C660.785 340.919 660.398 340.466 660 340C659.67 340 659.34 340 659 340C658.841 340.814 658.683 341.627 658.52 342.465C655.714 356.243 652.117 369.305 646 382C643.237 387.844 643.237 387.844 644 394C648.857 400.277 655.856 405.076 662 410C663.207 411.008 663.207 411.008 664.438 412.035C671.244 417.667 678.477 422.398 686 427C687.114 427.721 687.114 427.721 688.25 428.457C693.856 431.762 699.642 431.931 706 431C713.788 428.5 719.88 423.244 726 418C727.146 417.04 728.291 416.081 729.438 415.121C741.519 404.918 753.109 394.097 762.91 381.649C765.121 378.847 767.429 376.148 769.75 373.438C774.026 368.316 778.017 363.023 781.938 357.625C782.493 356.864 783.049 356.103 783.622 355.318C790.017 346.537 790.017 346.537 791 336C789.301 330.402 786.512 326.654 781.332 323.867C767.416 318.692 760.094 329.037 752.312 339.141Z" fill="#0B6B3A"/>
<path d="M655.5 184.688C656.809 184.663 656.809 184.663 658.145 184.639C673.193 184.628 687.195 191.799 698 202C710.493 214.781 716.424 230.151 716.366 247.871C716.038 265.197 709.122 278.813 697 291C696.223 291.83 696.223 291.83 695.43 292.676C685.367 302.449 670.951 306.901 657.313 307.313C640.565 306.968 625.264 302.006 613.055 290.258C599.711 275.595 592.952 260.173 593.66 240.273C594.638 224.868 601.71 210.55 613 200C625.865 189.249 638.858 184.626 655.5 184.688ZM623 207C621.969 207.701 620.938 208.403 619.875 209.125C611.038 216.729 606.031 229.664 605 241C604.603 253.207 607.591 265.166 615 275C615.587 275.779 616.173 276.557 616.778 277.359C624.564 286.85 635.421 293.093 647.375 295.75C648.571 295.833 649.768 295.915 651 296C651.872 296.063 652.743 296.126 653.641 296.191C667.394 296.749 678.841 291.834 689.285 283.086C697.764 275.13 704.416 262.712 705.203 250.969C705.411 235.57 701.652 222.318 690.977 210.844C679.312 199.962 665.882 195.243 650.106 195.691C639.438 196.291 631.231 200.455 623 207Z" fill="#0B6B3A"/>
<path d="M273.149 456.613C274.41 456.603 275.672 456.593 276.972 456.583C278.368 456.587 279.764 456.592 281.16 456.597C282.632 456.591 284.104 456.584 285.576 456.576C289.572 456.558 293.567 456.559 297.563 456.565C300.898 456.568 304.233 456.562 307.568 456.556C315.435 456.542 323.302 456.543 331.169 456.555C339.287 456.566 347.405 456.552 355.524 456.525C362.493 456.503 369.462 456.496 376.431 456.502C380.594 456.506 384.757 456.503 388.92 456.486C392.833 456.471 396.747 456.475 400.66 456.493C402.097 456.497 403.534 456.494 404.971 456.484C406.931 456.47 408.891 456.484 410.851 456.5C412.497 456.5 412.497 456.5 414.176 456.5C417.68 457.121 418.894 458.173 421 461.001C420.937 464.126 420.937 464.126 420 467.001C416.489 469.341 415.08 469.254 410.927 469.261C409.656 469.269 408.386 469.276 407.077 469.283C405.667 469.281 404.256 469.278 402.846 469.275C401.362 469.28 399.879 469.285 398.396 469.291C394.365 469.304 390.334 469.305 386.303 469.302C382.941 469.301 379.578 469.306 376.216 469.311C368.285 469.322 360.355 469.322 352.424 469.316C344.236 469.31 336.048 469.323 327.859 469.344C320.834 469.362 313.809 469.368 306.784 469.364C302.586 469.363 298.388 469.365 294.19 469.379C290.243 469.392 286.297 469.39 282.351 469.377C280.901 469.374 279.451 469.377 278.001 469.385C276.025 469.396 274.049 469.386 272.073 469.375C270.966 469.375 269.859 469.375 268.719 469.375C266 469.001 266 469.001 264.148 467.665C262.335 465.037 262.549 463.094 263 460.001C266.174 456.788 268.743 456.623 273.149 456.613Z" fill="#0B6B3A"/>
<path d="M226.149 501.613C227.41 501.603 228.672 501.593 229.972 501.583C231.368 501.587 232.764 501.592 234.16 501.597C235.632 501.591 237.104 501.584 238.576 501.576C242.572 501.558 246.567 501.559 250.563 501.565C253.898 501.568 257.233 501.562 260.568 501.556C268.435 501.542 276.302 501.543 284.169 501.555C292.287 501.566 300.405 501.552 308.524 501.525C315.493 501.503 322.462 501.496 329.431 501.502C333.594 501.506 337.757 501.503 341.92 501.486C345.833 501.471 349.747 501.475 353.66 501.493C355.097 501.497 356.534 501.494 357.971 501.484C359.931 501.47 361.891 501.484 363.851 501.5C365.497 501.5 365.497 501.5 367.176 501.5C370.68 502.121 371.894 503.173 374 506.001C373.937 509.126 373.937 509.126 373 512.001C369.489 514.341 368.08 514.254 363.927 514.261C362.656 514.269 361.386 514.276 360.077 514.283C358.667 514.281 357.256 514.278 355.846 514.275C354.362 514.28 352.879 514.285 351.396 514.291C347.365 514.304 343.334 514.305 339.303 514.302C335.941 514.301 332.578 514.306 329.216 514.311C321.285 514.322 313.355 514.322 305.424 514.316C297.236 514.31 289.048 514.323 280.859 514.344C273.834 514.362 266.809 514.368 259.784 514.364C255.586 514.363 251.388 514.365 247.19 514.379C243.243 514.392 239.297 514.39 235.351 514.377C233.901 514.374 232.451 514.377 231.001 514.385C229.025 514.396 227.049 514.386 225.073 514.375C223.966 514.375 222.859 514.375 221.719 514.375C219 514.001 219 514.001 217.148 512.665C215.335 510.037 215.549 508.094 216 505.001C219.174 501.788 221.743 501.623 226.149 501.613Z" fill="#0B6B3A"/>
<path d="M279.074 546.838C280.325 546.831 280.325 546.831 281.602 546.823C284.369 546.809 287.136 546.802 289.902 546.796C291.821 546.791 293.739 546.785 295.657 546.779C299.681 546.769 303.705 546.763 307.729 546.759C312.892 546.754 318.055 546.73 323.218 546.701C327.181 546.683 331.143 546.678 335.106 546.676C337.01 546.673 338.913 546.665 340.817 546.652C343.477 546.635 346.137 546.637 348.797 546.643C349.587 546.634 350.377 546.625 351.191 546.615C356.489 546.656 356.489 546.656 358.985 548.334C360.609 550.998 360.443 552.966 360 556C357.54 558.688 356.015 558.998 352.357 559.387C350.871 559.408 349.385 559.412 347.899 559.404C347.085 559.411 346.272 559.417 345.433 559.424C342.747 559.443 340.061 559.439 337.375 559.433C335.507 559.438 333.639 559.443 331.771 559.449C327.857 559.458 323.943 559.456 320.029 559.446C315.012 559.434 309.995 559.454 304.978 559.484C301.121 559.502 297.264 559.502 293.407 559.496C291.557 559.496 289.707 559.502 287.857 559.514C285.272 559.529 282.687 559.518 280.102 559.501C278.954 559.516 278.954 559.516 277.784 559.531C274.322 559.482 272.334 559.239 269.486 557.199C268 555 268 555 268.125 551.312C268.414 550.219 268.703 549.126 269 548C272.171 546.414 275.591 546.843 279.074 546.838Z" fill="#0B6B3A"/>
</g>
<defs>
<clipPath id="clip0_75_591">
<rect width="1024" height="1024" fill="white"/>
</clipPath>
</defs>
</svg>
