<svg width="1024" height="1024" viewBox="0 0 1024 1024" fill="none" xmlns="http://www.w3.org/2000/svg">
<g clip-path="url(#clip0_78_774)">
<path d="M0 0C337.92 0 675.84 0 1024 0C1024 337.92 1024 675.84 1024 1024C686.08 1024 348.16 1024 0 1024C0 686.08 0 348.16 0 0Z" fill="#E7F8EB"/>
<path d="M696.691 391.328C704.887 397.263 711.438 404.999 714 415C714.516 418.779 714.665 422.501 714.688 426.313C714.695 427.231 714.702 428.15 714.709 429.096C714.538 435.492 713.007 440.369 710 446C711.052 445.237 712.104 444.474 713.188 443.688C722.096 438.167 733.716 436.586 744 438C758.208 441.504 768.88 448.697 777 461C782.468 470.568 783.476 479.696 781.301 490.461C779.007 498.766 775.609 505.784 769.125 511.563C766.54 513.95 766.54 513.95 767.25 517.875C767.329 518.9 767.329 518.9 767.41 519.945C766.801 522.999 765.137 523.918 762.688 525.75C761.487 526.547 761.487 526.547 760.262 527.36C757.215 529.569 755.28 531.441 754.602 535.219C754.651 540.005 754.937 542.23 758 546C758.855 548.966 759.449 551.965 760 555C764.404 555.321 764.404 555.321 768.301 553.481C771.669 551.633 773.702 551.85 777.5 552.125C782.658 552.307 782.658 552.307 787.125 549.875C787.744 548.926 788.363 547.978 789 547C789.598 546.093 790.196 545.185 790.813 544.25C792.325 540.112 792.611 536.364 792 532C791.503 531.084 791.503 531.084 790.997 530.149C787.73 523.107 790.617 513.635 792 506.375C795.345 487.418 796.211 467.602 785 451C784.609 450.408 784.219 449.817 783.816 449.207C775.109 437.486 756.847 431.484 743 429C738.266 428.55 733.534 428.383 728.78 428.364C727.499 428.35 727.499 428.35 726.191 428.336C725.43 428.342 724.669 428.347 723.885 428.353C723.263 428.237 722.641 428.12 722 428C719.851 424.776 719.617 423.733 720 420C722.447 417.553 723.81 417.743 727.154 417.722C727.846 417.731 728.537 417.741 729.25 417.75C729.964 417.756 730.677 417.762 731.413 417.768C753.71 418.176 773.736 425.393 789.949 440.86C798.672 450.017 803.808 462.746 804.07 475.383C804.047 476.247 804.024 477.11 804 478C805.071 478.379 805.071 478.379 806.164 478.766C811.308 481.005 815.56 484.615 820 488C820.621 488.451 821.243 488.903 821.883 489.367C846.731 508.693 854.236 543.676 858 573C859.358 586.307 857.167 599.575 850 611C848.673 612.49 847.334 613.968 845.984 615.438C841.095 621.473 840.345 627.264 839.438 634.813C837.588 647.346 834.733 655.877 827 666C827.703 666.242 828.405 666.485 829.129 666.735C845.156 673.799 858.386 690.46 868.63 704.169C870.051 706.068 871.487 707.955 872.926 709.84C902.908 749.285 902.908 749.285 902 760C899.522 765.055 896.249 768.049 891 770C887.025 770.936 883.054 771.524 879 772C878.302 772.088 877.603 772.177 876.884 772.268C869.526 773.118 862.213 773.154 854.812 773.125C853.528 773.121 852.244 773.117 850.921 773.113C821.851 772.941 821.851 772.941 815 767.375C813.441 763.672 813.321 759.948 814 756C816.09 751.321 818.957 749.437 823.313 746.875C824.422 746.213 825.532 745.55 826.676 744.867C829.743 743.145 832.838 741.54 836 740C835.449 739.705 834.898 739.409 834.33 739.105C777.051 708.329 777.051 708.329 766 693C765.625 690.34 765.625 690.34 766 688C768 686 768 686 770.367 685.613C773.925 686.136 774.794 687.482 777.125 690.188C795.964 709.946 823.996 722.783 848.621 733.871C851 735 851 735 852 736C852.625 738.688 852.625 738.688 852 742C846.929 746.964 839.504 749.962 833.23 753.197C828.358 755.712 828.358 755.712 824 759C824 759.66 824 760.32 824 761C832.948 762.146 841.848 762.22 850.855 762.24C853.466 762.25 856.077 762.281 858.688 762.313C870.087 762.382 880.827 761.249 892 759C890.628 752.591 890.628 752.591 887.453 746.949C886.945 746.26 886.437 745.571 885.913 744.861C885.364 744.144 884.815 743.427 884.25 742.688C883.679 741.92 883.107 741.152 882.519 740.361C881.308 738.735 880.092 737.113 878.872 735.494C876.997 732.996 875.149 730.48 873.309 727.957C867.38 719.832 861.458 711.716 855 704C854.538 703.439 854.076 702.877 853.6 702.299C846.38 693.552 839.12 685.821 830 679C828.72 677.935 828.72 677.935 827.414 676.848C824.885 674.961 823.077 673.718 820 673C816.804 674.093 814.392 675.525 811.641 677.477C808.505 679.286 806.565 679.357 803 679C802 678 802 678 801.59 675.184C802 672 802 672 804.379 669.91C805.955 668.996 805.955 668.996 807.563 668.063C818.531 661.218 824.964 653.262 828.375 640.5C829.117 636.936 829.117 636.936 829 633C828.282 633.632 827.564 634.263 826.824 634.914C812.966 646.95 797.987 657.598 782.754 667.819C781.098 668.934 779.453 670.066 777.809 671.199C772.817 674.548 769.082 676.865 763 677C760.03 673.04 760.03 673.04 757 669C753.448 669.599 750.469 670.549 747.207 672.067C746.33 672.469 745.453 672.872 744.549 673.287C743.646 673.708 742.743 674.129 741.813 674.563C740.008 675.401 738.202 676.235 736.395 677.067C735.599 677.437 734.803 677.808 733.984 678.19C732 679 732 679 730 679C730.144 680.088 730.289 681.176 730.438 682.297C730.625 683.781 730.813 685.266 731 686.75C731.143 687.816 731.143 687.816 731.289 688.902C732.665 700.009 731.891 711.008 731 722.125C729.331 737.062 729.331 737.062 731.438 751.75C731.711 752.669 731.984 753.588 732.266 754.535C732.508 755.349 732.75 756.162 733 757C734.279 762.928 734.916 768.494 732.813 774.25C729.166 779.783 725.33 781.497 719 783C716.309 783.189 713.721 783.294 711.033 783.291C710.269 783.297 709.506 783.304 708.719 783.311C706.216 783.33 703.714 783.334 701.211 783.336C699.462 783.343 697.713 783.349 695.963 783.356C692.307 783.368 688.651 783.372 684.994 783.371C680.312 783.371 675.631 783.398 670.949 783.432C667.341 783.455 663.733 783.459 660.124 783.458C658.398 783.46 656.671 783.469 654.945 783.484C652.533 783.504 650.121 783.498 647.709 783.486C646.999 783.497 646.289 783.508 645.558 783.52C640.776 783.459 638.359 782.382 635 779C633.445 775.891 633.714 773.437 634 770C637.929 762.294 644.857 759.453 652.438 756.25C659.285 753.295 665.89 750.07 672.404 746.439C676.81 744 676.81 744 679 744C678.798 743.004 678.597 742.008 678.389 740.981C677.625 737.192 676.871 733.4 676.119 729.608C675.796 727.984 675.47 726.361 675.142 724.739C672.009 709.26 669.614 693.835 669.75 678C669.738 676.602 669.738 676.602 669.727 675.176C669.779 656.47 676.753 644.161 689.688 631.125C692.295 628.536 694.868 626.105 697.75 623.824C700.106 622.141 700.106 622.141 701.313 619.688C703.388 616.383 705.924 614.321 708.891 611.82C710.859 610.122 712.683 608.359 714.5 606.5C716.891 604.066 719.35 601.787 721.938 599.563C725.525 596.477 728.85 593.196 732.141 589.797C733.99 588.01 735.912 586.497 738 585C736.875 582.028 735.777 579.666 734 577C728.324 577.622 723.477 579.651 718.25 581.813C716.547 582.507 714.844 583.201 713.141 583.895C710.557 584.952 707.974 586.011 705.392 587.075C690.439 593.168 672.461 598.112 656.688 592.063C654.759 591.104 652.864 590.079 651 589C649.326 588.035 649.326 588.035 647.617 587.051C630.711 576.897 613.15 561.62 601.338 545.769C599.747 543.665 598.683 543.248 596.188 542.5C589.859 540.333 584.471 536.867 581 531C580.042 528.381 579.272 525.775 578.578 523.074C578.19 521.027 578.19 521.027 577 520C576.612 516.699 576.31 514.11 578.117 511.203C579.346 509.745 580.668 508.365 582 507C581.67 506.67 581.34 506.34 581 506C580.619 502.038 580.576 499.717 582.625 496.25C586.458 492.619 589.902 490.994 595.125 490.625C599.016 490.324 599.016 490.324 601.5 488C603.301 484.398 603.251 481.94 602.945 477.988C603 476 603 476 605 474C607.359 473.578 607.359 473.578 610 474C612.203 476.047 612.203 476.047 614.25 478.75C614.936 479.632 615.622 480.514 616.328 481.422C617.827 483.734 618.573 485.314 619 488C619.866 488.083 620.733 488.165 621.625 488.25C627.671 489.594 631.583 492.933 635 498C637.962 503.046 637.967 506.404 637.813 512.25C638.036 516.87 638.405 519.854 641.715 523.102C644.661 525.562 647.816 527.674 651.053 529.732C652.974 530.983 654.789 532.317 656.609 533.711C662.289 538.46 662.289 538.46 669.238 539.801C671.708 539.085 673.729 538.175 676 537C676.99 537 677.98 537 679 537C679.006 532.561 678.946 528.126 678.875 523.688C678.878 522.444 678.88 521.201 678.883 519.92C678.697 511.077 676.885 505.333 672 498C671.183 496.668 670.367 495.336 669.551 494.004C668.809 492.854 668.063 491.707 667.313 490.563C666.935 489.978 666.558 489.393 666.17 488.791C664.598 486.369 663.014 484.018 661.215 481.758C660 480 660 480 660.25 477.313C661 475 661 475 662 474C664.188 473.5 664.188 473.5 667 474C671.976 479.238 675.854 485.061 679.75 491.125C680.326 492.006 680.902 492.886 681.496 493.793C685.384 499.802 688.274 504.4 688.195 511.738C688.189 512.805 688.182 513.872 688.176 514.971C688.151 516.625 688.151 516.625 688.125 518.313C688.116 519.435 688.107 520.557 688.098 521.713C688.074 524.476 688.041 527.238 688 530C688.565 529.697 689.13 529.394 689.712 529.082C692.264 527.717 694.82 526.359 697.375 525C698.709 524.285 698.709 524.285 700.07 523.555C700.921 523.104 701.772 522.653 702.648 522.188C703.434 521.769 704.219 521.35 705.029 520.918C707 520 707 520 709 520C709 519.34 709 518.68 709 518C708.42 517.749 707.84 517.497 707.242 517.238C698.722 512.533 694.181 502.771 691 494C688.792 483.696 689.658 473.926 693 464C692.443 464.266 691.886 464.531 691.313 464.805C679.021 470.494 665.996 472.58 653 467.875C647.72 465.555 643.293 462.837 639 459C638.095 458.25 638.095 458.25 637.172 457.485C629.271 450.408 625.482 440.969 624.762 430.555C624.486 416.881 627.476 406.131 637 396C654.738 380.703 676.798 378.469 696.691 391.328Z" fill="#0B6B3A"/>
<path d="M384 389.75C389.496 393.782 395.252 400.197 396.336 407.156C396.494 416.652 393.465 424.629 388.813 432.812C385.56 438.54 384.98 443.212 384.992 449.711C384.994 450.918 384.994 450.918 384.996 452.15C384.997 452.76 384.999 453.371 385 454C385.742 453.624 385.742 453.624 386.499 453.241C407.502 442.7 429.468 434.619 452 428C453.014 427.699 454.029 427.399 455.074 427.089C458.4 426.109 461.73 425.145 465.063 424.187C466.616 423.734 466.616 423.734 468.2 423.271C473.695 421.721 478.946 420.603 484.646 420.204C490.323 419.711 494.913 418.353 500.024 415.867C500.687 415.552 501.351 415.237 502.035 414.913C504.152 413.907 506.264 412.892 508.375 411.875C513.907 409.228 519.446 406.6 525 404C525.715 403.664 526.431 403.328 527.167 402.981C529.293 401.989 531.426 401.016 533.563 400.047C534.197 399.749 534.832 399.45 535.487 399.143C541.864 396.295 548.113 395.797 555 397C561.484 399.874 566.293 403.029 569.262 409.602C571.031 415.348 571.15 421.088 568.93 426.711C561.259 440.334 544.149 454.678 529 459C523.194 459.909 519.952 459.164 515 456C512.258 456.213 512.258 456.213 510 457C510.032 457.998 510.032 457.998 510.065 459.016C509.905 466.038 509.905 466.038 507.523 468.569C505.383 469.867 503.236 470.885 500.938 471.875C500.1 472.274 499.262 472.674 498.399 473.085C496.578 473.954 494.75 474.807 492.915 475.646C488.861 477.529 484.882 479.55 480.894 481.567C474.481 484.809 468.047 488.009 461.586 491.152C439.956 501.713 420.394 514.494 401.859 529.828C398.149 532.896 394.365 535.861 390.563 538.812C385.95 542.406 381.512 546.131 377.18 550.059C374.814 552.166 372.391 554.182 369.938 556.187C369.025 556.957 368.112 557.727 367.172 558.519C364.871 560.398 362.486 561.962 359.953 563.512C351.484 569.01 347.356 573.74 345.007 583.742C344.095 588.434 343.294 593.137 342.55 597.859C341.826 601.993 340.711 605.903 339.375 609.875C338.77 611.704 338.77 611.704 338.152 613.57C337.582 615.268 337.582 615.268 337 617C336.306 619.248 335.619 621.498 334.938 623.75C334.293 625.834 333.647 627.917 333 630C332.706 630.972 332.412 631.944 332.109 632.945C329.68 640.666 326.437 647.889 322.893 655.146C322.062 656.872 321.271 658.617 320.484 660.363C310.872 681.02 295.35 699.105 280.035 715.781C278.713 717.223 277.407 718.681 276.121 720.156C270.738 726.308 265.069 732.199 259.375 738.062C258.563 738.921 257.751 739.779 256.915 740.664C250.271 747.426 250.271 747.426 246.067 748.023C245.055 748.016 244.043 748.008 243 748C241.661 748.309 240.324 748.629 239 749C239.355 751.746 239.833 752.84 241.863 754.781C247.528 758.757 252.733 761.207 259.434 762.98C262.434 764.172 263.431 765.21 265 768C265.537 772.145 265.283 774.422 263.438 778.187C259.771 782.419 255.562 784.93 250 786C248.335 786.091 246.667 786.131 245 786.133C243.544 786.135 243.544 786.135 242.059 786.137C241.049 786.133 240.04 786.129 239 786.125C238.022 786.129 237.043 786.133 236.035 786.137C230.006 786.129 224.083 785.791 218.08 785.241C214.858 784.989 211.653 784.87 208.422 784.789C207.324 784.761 206.225 784.732 205.094 784.703C202.849 784.651 200.604 784.606 198.359 784.57C191.083 784.364 184.988 783.872 178.906 779.492C176.299 776.494 174.569 773.957 174.188 769.937C175.119 757.74 184.625 747.095 192 738C193.217 736.402 194.427 734.799 195.625 733.187C196.409 732.136 197.193 731.084 198 730C196.78 727.309 196.78 727.309 195 725C194.414 721.044 194.897 718.733 197.168 715.547C198.161 714.271 199.169 713.005 200.188 711.75C201.295 710.333 202.4 708.915 203.504 707.496C204.369 706.394 204.369 706.394 205.251 705.269C208.141 701.521 210.876 697.665 213.625 693.812C218.936 686.419 224.391 679.17 230 672C230.892 670.849 231.784 669.698 232.676 668.547C236.391 663.769 240.098 659.005 244.07 654.437C244.822 653.571 244.822 653.571 245.588 652.687C246.541 651.597 247.502 650.513 248.473 649.437C253.186 644.051 254.199 638.625 255.113 631.664C255.256 630.607 255.256 630.607 255.401 629.529C255.71 627.228 256.011 624.927 256.313 622.625C256.743 619.386 257.179 616.148 257.617 612.91C257.728 612.089 257.84 611.267 257.954 610.421C258.722 604.827 259.582 599.254 260.508 593.684C260.629 592.95 260.749 592.216 260.874 591.46C261.45 587.968 262.04 584.479 262.652 580.993C262.858 579.749 263.065 578.504 263.277 577.223C263.466 576.137 263.654 575.052 263.848 573.934C264.017 570.679 263.425 568.897 262 566C261.647 565.212 261.294 564.425 260.93 563.613C260.223 562.071 259.514 560.529 258.805 558.988C258 557 258 557 258 555C257.34 555 256.68 555 256 555C255.83 555.532 255.66 556.064 255.484 556.613C253.551 562.549 251.343 568.339 249 574.125C248.657 574.98 248.314 575.834 247.961 576.715C246.982 579.147 245.993 581.574 245 584C244.581 585.042 244.581 585.042 244.152 586.104C243.013 588.871 242.139 590.861 240 593C235.445 592.444 235.445 592.444 234 591C234.291 583.012 236.86 576.366 239.813 569C240.252 567.876 240.69 566.752 241.143 565.594C243.377 559.91 245.698 554.299 248.314 548.78C249.328 546.15 249.073 544.575 248 542C245.659 537.709 242.746 534.173 239.563 530.5C238.605 529.386 237.648 528.271 236.692 527.156C236.237 526.626 235.782 526.097 235.313 525.551C233.495 523.404 231.743 521.208 230 519C229.394 519.519 228.788 520.039 228.164 520.574C217.661 529.316 208.672 533.732 194.91 533.41C187.694 532.653 181.729 529.319 176.938 523.875C171.398 515.655 171.91 506.676 173.469 497.129C178.704 470.675 187.806 431.778 211.465 415.457C217.75 411.845 224.367 408.909 231 406C231.713 405.684 232.427 405.368 233.162 405.042C235.184 404.155 237.214 403.291 239.25 402.437C240.431 401.941 241.612 401.445 242.828 400.934C246.124 399.963 247.777 399.924 251 401C252 402 252 402 252.188 404.937C252 408 252 408 250 410C247.998 410.759 245.972 411.457 243.938 412.125C226.841 418.04 211.729 424.679 203.067 441.574C193.44 461.602 179.775 491.2 183 514C184.801 517.869 187.631 519.791 191.313 521.875C199.518 524.378 205.559 522.913 213 519C219.766 514.712 225.759 509.603 231.633 504.18C234.527 501.515 237.508 498.96 240.504 496.41C242.118 495.051 242.118 495.051 243 493C242.434 492.758 241.868 492.515 241.285 492.266C235.146 488.865 229.361 482.611 227 476C227 475.01 227 474.02 227 473C225.353 474.185 223.707 475.373 222.063 476.562C221.061 477.286 220.059 478.009 219.027 478.754C215.601 481.296 212.318 483.984 209.07 486.75C206.526 488.286 204.924 488.317 202 488C201 487 201 487 200.438 484.375C201.326 479.045 204.85 477.184 209 474C210.089 473.132 211.176 472.262 212.262 471.391C213.445 470.447 214.628 469.504 215.813 468.562C216.411 468.086 217.01 467.609 217.627 467.118C221.375 464.171 225.23 461.572 229.25 459C232.887 456.41 232.887 456.41 234.875 452.555C235.13 450.734 235.338 448.905 235.504 447.074C236.814 438.959 241.628 429.911 248.309 425.039C255.915 420.366 263.145 419.02 272 420C283.797 423.216 292.78 429.14 300 439C302.686 444.254 302.779 450.22 302 456C300.224 460.965 297.599 463.998 292.938 466.437C288.867 468.235 285.207 469.137 280.75 469.062C278.894 469.032 278.894 469.032 277 469C276.959 469.66 276.918 470.32 276.875 471C274.555 478.955 268.216 483.578 261.938 488.508C258.259 491.628 255.126 495.071 251.94 498.681C248.679 502.35 245.249 505.51 241.363 508.5C239.552 510.155 239.552 510.155 240 514C241.378 516.261 241.378 516.261 243.25 518.437C243.886 519.219 244.521 520 245.176 520.805C245.778 521.529 246.38 522.254 247 523C247.804 524.011 248.609 525.021 249.438 526.062C250.211 527.022 250.211 527.022 251 528C254.44 527.41 256.154 526.231 258.676 523.855C275.225 508.865 295.619 497.874 315.625 488.25C316.52 487.819 317.415 487.388 318.338 486.944C319.582 486.361 319.582 486.361 320.852 485.766C321.582 485.423 322.312 485.08 323.065 484.727C325 484 325 484 328 484C327.639 483.275 327.278 482.551 326.906 481.805C326.442 480.838 325.978 479.871 325.5 478.875C325.036 477.924 324.572 476.972 324.094 475.992C322.915 472.768 322.724 470.405 323 467C324 466 324 466 326.875 465.625C330 466 330 466 331.563 467.937C332.037 468.948 332.511 469.959 333 471C333.891 472.565 334.787 474.128 335.688 475.687C338 479.746 338 479.746 338 482C343.118 479.263 347.801 476.093 352.507 472.697C355.772 470.389 359.058 468.398 362.621 466.578C370.959 462.833 370.959 462.833 376.078 455.922C376.064 453.084 375.791 450.719 375 448C374.227 448.046 373.453 448.093 372.656 448.141C363.908 448.444 359.131 446.754 352 442C352.041 443.114 352.083 444.227 352.125 445.375C352 449 352 449 350 451C346.39 450.944 345.074 450.067 342.379 447.629C341.433 446.613 340.495 445.59 339.563 444.562C332.672 437.307 324.857 431.285 316.117 426.383C315.419 425.926 314.72 425.47 314 425C313.563 422.437 313.563 422.437 314 420C314.99 419.01 314.99 419.01 316 418C321.258 418.246 324.535 419.572 328.813 422.562C329.835 423.275 330.857 423.988 331.91 424.723C336.382 428.019 340.729 431.447 345 435C345.237 433.071 345.47 431.142 345.684 429.211C346 427 346 427 347 423.562C347 418.655 344.818 416.609 341.664 413.016C338.559 409.254 338.593 405.312 338.668 400.629C339.355 395.191 342.013 391.623 346.195 388.207C358.06 379.964 371.945 382.284 384 389.75Z" fill="#0B6B3A"/>
<path d="M799 147C799.669 147.151 800.338 147.302 801.028 147.457C825.161 153.046 847.441 165.418 860.971 186.698C863.652 191.113 865.464 195.502 867.039 200.399C868.724 204.961 871.39 208.921 874 213C874.487 213.868 874.974 214.736 875.477 215.629C876.961 217.939 878.097 219.019 880.312 220.563C885.939 225.127 888.752 232.258 891 239C892.136 259.087 887.04 279.25 874 295C872.931 296.294 872.931 296.294 871.84 297.614C865.204 305.296 858.303 310.918 849 315C847.639 315.619 847.639 315.619 846.25 316.25C841.198 317.416 836.161 317.151 831 317C830.76 317.581 830.52 318.161 830.273 318.758C825.197 327.696 813.308 332.336 804.281 336.149C800.593 337.106 797.307 337.194 793.514 337.226C782.273 337.323 782.273 337.323 772.465 342.372C759.426 350.988 740.444 352.02 725.445 349.282C714.67 346.934 705.411 343.367 699 334C696.566 329.686 696.836 325.841 697 321C696.299 320.815 695.597 320.629 694.875 320.438C687.38 316.691 684.803 309.808 681.98 302.282C679.918 295.38 679.806 288.58 679.812 281.438C679.813 280.467 679.814 279.495 679.815 278.494C679.893 269.257 680.804 260.407 683.125 251.438C684.253 247.234 684.253 247.234 684 243C682.833 241.116 681.569 239.384 680.191 237.649C675.498 231.155 677.278 218.324 678.3 210.788C680.78 197.71 685.872 185.749 697 178C700.893 175.708 704.432 174.585 709 175C709.268 174.409 709.536 173.817 709.812 173.208C716.409 160.947 733.279 153.026 745.727 148.708C762.607 143.701 781.796 143.056 799 147Z" fill="#0B6B3A"/>
<path d="M618 430.001C620 432.001 620 432.001 620.125 434.626C620.084 435.409 620.042 436.193 620 437.001C618.863 437.618 617.726 438.236 616.555 438.872C606.778 444.218 597.221 449.739 588 456.001C586.704 456.857 586.704 456.857 585.383 457.731C577.521 463.303 570.917 472.398 569 482.001C568.395 488.509 568.047 493.536 572 499.001C572.722 499.496 573.444 499.991 574.187 500.501C576 502.001 576 502.001 576.375 504.563C576 507.001 576 507.001 574 509.001C570.323 509.716 569.08 509.054 565.937 506.938C562.717 504.017 560.881 500.908 559 497.001C559 496.011 559 495.021 559 494.001C551.99 499.562 546.541 506.023 541 513.001C540.388 513.698 539.775 514.395 539.145 515.114C537.81 516.911 537.81 516.911 538.113 518.946C544.651 534.095 560.454 546.496 574 555.001C575.642 556.064 575.642 556.064 577.316 557.149C591.084 566.455 591.084 566.455 607 569.001C608.755 567.941 608.755 567.941 610.25 566.501C613 564.001 613 564.001 615.812 564.126C618 565.001 618 565.001 619 566.001C619.562 568.688 619.562 568.688 619 572.001C616.618 574.455 614.009 576.378 611 578.001C610.01 578.001 609.02 578.001 608 578.001C608.534 578.644 609.067 579.287 609.617 579.95C611.656 582.423 613.683 584.906 615.7 587.398C616.917 588.899 618.142 590.393 619.367 591.887C634.461 610.817 650.735 633.736 648 659.001C643.875 681.667 632.316 702.683 622.36 723.188C620.482 727.071 618.638 730.968 616.812 734.876C616.283 736.007 615.753 737.139 615.207 738.305C613.94 741.015 613.94 741.015 613 744.001C614.033 744.391 614.033 744.391 615.086 744.79C618.369 746.154 621.479 747.719 624.625 749.376C625.752 749.961 626.878 750.546 628.039 751.149C630.866 752.917 632.334 754.156 634 757.001C634.893 761.269 633.759 763.925 631.625 767.563C626.406 774.841 619.169 776.92 610.733 778.567C606.533 779.233 602.398 779.325 598.152 779.337C597.256 779.343 596.359 779.35 595.435 779.357C593.555 779.367 591.675 779.372 589.796 779.371C586.941 779.376 584.087 779.412 581.232 779.45C579.393 779.456 577.554 779.46 575.715 779.462C574.874 779.476 574.033 779.49 573.167 779.505C565.974 779.45 559.771 777.634 554.48 772.606C551.604 767.543 552.163 762.63 553 757.001C554.095 753.597 555.348 750.357 556.731 747.065C560.109 738.992 562.878 730.74 565.625 722.438C565.867 721.711 566.108 720.983 566.357 720.234C569.344 711.231 572.172 702.206 574.738 693.075C576.633 686.674 579.093 680.441 581.499 674.219C581.837 673.324 582.175 672.43 582.523 671.508C582.986 670.312 582.986 670.312 583.458 669.091C584.246 666.832 584.246 666.832 583 664.001C580.822 662.304 578.655 660.734 576.375 659.188C571.335 655.69 566.557 652.123 562 648.001C561.755 648.765 561.51 649.529 561.258 650.317C557.887 659.977 553.005 667.783 547 676.001C546.265 677.016 545.53 678.032 544.773 679.079C524.18 705.887 484.32 719.66 454 732.001C458.246 736.378 462.803 740.131 467.574 743.915C470.095 746.082 471.775 747.738 472.371 751.087C472.485 755.027 472.374 757.377 470.312 760.813C457.18 769.486 441.607 767.868 426.927 764.968C425.239 764.621 423.551 764.269 421.865 763.912C419.309 763.375 416.749 762.872 414.186 762.372C391.163 757.711 391.163 757.711 385.25 750.063C383.46 745.677 383.134 742.563 384.672 738.012C389.527 727.797 399.584 720.067 407.971 712.786C411.304 709.852 414.524 706.801 417.75 703.751C419.155 702.43 420.559 701.11 421.965 699.79C422.649 699.147 423.333 698.504 424.039 697.841C431.254 691.07 438.523 684.437 446.242 678.235C449.081 675.935 451.849 673.563 454.625 671.188C459.527 667.093 464.598 663.315 469.812 659.626C470.518 659.126 471.223 658.626 471.95 658.111C472.633 657.634 473.316 657.156 474.02 656.665C474.685 656.199 475.35 655.733 476.035 655.253C477.914 654.056 479.773 653.216 481.805 652.317C486.557 648.872 487.068 644.867 488.312 639.313C488.55 638.357 488.788 637.401 489.033 636.417C490.116 632.018 491.091 627.597 492.059 623.173C492.82 619.714 493.731 616.332 494.75 612.938C495.506 610.294 496.255 607.648 497 605.001C497.265 604.071 497.529 603.141 497.802 602.183C498.683 599.045 499.532 595.899 500.375 592.751C500.806 591.242 500.806 591.242 501.245 589.704C502.821 583.694 503.092 579.369 501.56 573.345C500.697 569.731 500.657 566.201 500.687 562.501C500.693 561.766 500.699 561.031 500.705 560.274C501.087 543.122 511.635 530.116 523.5 518.563C527.878 514.281 531.4 509.865 534.887 504.848C538.832 499.532 543.432 494.782 548 490.001C548.526 489.386 549.052 488.771 549.594 488.137C551 487.001 551 487.001 554.687 487.313C555.781 487.54 556.874 487.767 558 488.001C558 486.681 558 485.361 558 484.001C559.224 472.033 567.002 459.653 576 452.001C584.747 445.351 594.227 439.706 603.75 434.251C604.488 433.82 605.226 433.39 605.986 432.946C610.107 430.657 613.153 429.275 618 430.001Z" fill="#0B6B3A"/>
<path d="M485 431C493.394 438.451 499.062 451.021 500 462C499.357 462.291 498.714 462.583 498.051 462.883C485.935 468.379 473.831 473.87 462.004 479.967C460.596 480.693 459.185 481.415 457.773 482.135C434.43 494.042 412.925 508.029 392.658 524.642C391.148 525.879 389.631 527.106 388.113 528.332C383.129 532.37 378.234 536.501 373.375 540.688C332.26 576.064 332.26 576.064 309 586C309 587.98 309 589.96 309 592C314.78 592.569 318.603 590.645 323.625 588.125C324.375 587.76 325.125 587.395 325.898 587.02C327.938 586.025 329.971 585.017 332 584C332.74 583.63 333.481 583.26 334.244 582.879C334.823 582.589 335.403 582.299 336 582C333.897 594.599 330.425 606.703 326.625 618.875C326.395 619.623 326.164 620.371 325.927 621.142C322.941 630.797 319.481 639.914 315 649C314.326 650.426 313.653 651.851 312.98 653.277C306.228 667.195 297.99 679.433 288.261 691.435C287.14 692.826 286.041 694.234 284.945 695.645C280.208 701.728 275.062 707.355 269.801 712.981C267.681 715.252 265.632 717.565 263.625 719.938C262.422 721.297 261.213 722.65 260 724C259.502 724.57 259.005 725.141 258.492 725.728C256.733 727.723 254.933 729.675 253.125 731.625C252.56 732.279 251.995 732.932 251.413 733.605C247.287 737.951 247.287 737.951 243.897 738.08C241.479 737.594 239.304 736.877 237 736C236.204 735.722 235.408 735.444 234.587 735.157C232.074 734.244 229.6 733.262 227.125 732.25C225.819 731.723 225.819 731.723 224.487 731.186C218.057 728.545 211.954 725.605 206 722C207.333 718.261 208.982 715.434 211.414 712.305C212.426 710.993 212.426 710.993 213.458 709.654C214.53 708.278 214.53 708.278 215.625 706.875C217.095 704.971 218.563 703.066 220.031 701.16C220.729 700.257 221.426 699.353 222.145 698.422C224.189 695.754 226.172 693.049 228.125 690.313C232.721 683.921 237.592 677.741 242.449 671.547C244.729 668.639 246.981 665.715 249.207 662.766C249.702 662.117 250.196 661.468 250.706 660.8C251.628 659.59 252.543 658.374 253.448 657.151C256.559 653.101 256.559 653.101 259.18 652.504C259.78 652.338 260.381 652.171 261 652C262.745 647.677 263.506 643.414 264.148 638.813C264.246 638.125 264.343 637.437 264.443 636.728C264.759 634.486 265.067 632.243 265.375 630C265.594 628.443 265.813 626.887 266.032 625.33C267.119 617.59 268.158 609.844 269.145 602.09C269.323 600.7 269.502 599.31 269.68 597.92C270.016 595.304 270.339 592.687 270.656 590.068C270.878 588.316 270.878 588.316 271.105 586.527C271.231 585.504 271.356 584.48 271.485 583.426C272 581 272 581 274 579C274.496 579.422 274.993 579.843 275.504 580.277C280.07 583.96 283.11 585.755 289 586C289.99 583.03 289.99 583.03 291 580C290.34 579.814 289.68 579.629 289 579.438C280.814 575.515 272.133 566.625 269 558C268.984 555.57 268.984 555.57 270 553C272.052 551.096 273.998 549.503 276.25 547.875C277.534 546.909 278.817 545.94 280.098 544.969C280.75 544.478 281.403 543.987 282.075 543.481C285.029 541.209 287.86 538.802 290.688 536.375C294.58 533.044 298.505 529.771 302.5 526.563C307.241 522.711 311.702 518.62 316.157 514.448C320.425 510.474 324.866 506.772 329.418 503.125C331.874 501.104 334.183 498.99 336.5 496.813C348.658 485.808 362.152 476.784 376.668 469.229C379.07 467.963 381.441 466.651 383.812 465.328C398.016 457.507 412.822 451.65 428 446C428.825 445.687 429.65 445.374 430.5 445.051C442.474 440.508 454.767 437.147 467.125 433.811C470.704 432.802 474.229 431.645 477.748 430.442C480.473 429.907 482.346 430.23 485 431Z" fill="#E7F8EB"/>
<path d="M531 526C532.191 527.617 532.191 527.617 533.562 529.875C545.96 549.059 568.436 566.06 589.938 573.875C595.924 576.392 599.193 581.982 603 587C604.618 588.902 606.243 590.798 607.875 592.688C622.449 610.195 640.184 632.746 638.375 656.571C636.825 666.601 632.98 676.228 629.125 685.562C628.66 686.699 628.194 687.835 627.715 689.005C621.714 703.408 615.003 717.621 607.722 731.422C605.803 735.071 604.431 738.027 604.438 742.188C604.416 742.985 604.394 743.783 604.371 744.605C605.615 749.343 609.53 751.831 613.551 754.238C614.8 754.938 616.054 755.629 617.312 756.312C617.958 756.672 618.603 757.031 619.268 757.4C620.841 758.274 622.42 759.138 624 760C623.812 761.812 623.812 761.812 623 764C613.5 770.547 602.098 770.461 591.008 770.336C588.739 770.312 586.472 770.316 584.203 770.322C566.254 770.254 566.254 770.254 562 766C562.233 758.825 564.269 753.039 566.938 746.438C571.359 735.124 575.035 723.659 578.549 712.041C580.503 705.606 582.57 699.304 585.154 693.092C586.275 690.32 587.119 687.499 587.938 684.625C589.579 679.093 591.654 673.903 594.047 668.656C595.106 665.705 595.676 664.081 595 661C592.888 659.135 590.97 657.695 588.625 656.188C587.324 655.306 586.025 654.421 584.727 653.535C584.086 653.103 583.446 652.672 582.786 652.227C574.255 646.367 566.538 639.247 558.721 632.481C557.516 631.444 556.306 630.415 555.092 629.39C554.47 628.864 553.848 628.339 553.207 627.797C552.643 627.323 552.08 626.85 551.499 626.362C549.398 624.453 547.756 622.224 546 620C545.237 619.402 544.474 618.804 543.688 618.188C539.979 615.169 537.078 611.646 534 608C532.834 606.666 532.834 606.666 531.645 605.305C520.751 592.638 508.625 577.288 509.582 559.648C510.942 551.032 520.477 526 531 526Z" fill="#E7F8EB"/>
<path d="M317.61 172.22C320.918 174.967 323.979 177.944 327 181C327.85 181.838 328.699 182.676 329.574 183.54C342.587 196.741 352.575 214.118 352.491 232.96C352.116 242.556 348.419 250.414 341.836 257.313C338.239 260.62 334.69 263.437 330 265C329.45 266.779 329.45 266.779 329.25 268.938C327.6 277.244 322.742 283.189 315.813 287.875C294.575 300.069 268.683 298.452 245 298C244.753 299.217 244.505 300.434 244.25 301.688C242.195 309.651 236.248 313.327 229.875 317.938C228.669 318.83 228.669 318.83 227.438 319.741C204.293 336.655 204.293 336.655 192 335C174.852 329.7 160.938 308.991 152.945 294.024C150.521 289.4 148.23 284.721 146 280C145.541 279.048 145.082 278.095 144.61 277.114C142.118 271.525 140.555 266.093 142 260C146.037 252.897 153.719 247.981 160 243C161.918 241.397 163.834 239.793 165.75 238.188C172.588 232.599 178.223 228.819 187.25 228.938C188.588 228.952 188.588 228.952 189.953 228.965C190.629 228.977 191.304 228.989 192 229C191.876 227.845 191.753 226.69 191.625 225.5C191.639 217.9 198.386 212.379 203.454 207.32C204.088 206.699 204.722 206.078 205.375 205.438C206.041 204.78 206.706 204.123 207.392 203.445C211.791 199.123 216.254 194.94 221 191C221.887 190.236 222.774 189.472 223.688 188.684C250.234 166.044 285.321 147.758 317.61 172.22ZM219.53 205.463C217.763 207.239 215.914 208.884 214 210.5C205.996 216.669 205.996 216.669 201.727 225.215C201.436 233.01 203.302 238.218 207 245C207.57 246.094 208.14 247.187 208.727 248.313C213.604 257.305 219.463 265.155 226 273C227.071 274.321 227.071 274.321 228.164 275.668C230.06 277.923 231.831 280.005 234 282C234.527 282.516 235.054 283.032 235.597 283.563C242.629 289.394 250.249 288.813 258.926 288.618C261.401 288.564 263.874 288.556 266.35 288.557C282.305 288.452 302.881 288.018 315.125 276.5C318.552 272.632 319.794 269.647 320.438 264.5C319.884 260.067 318.413 258.763 315 256C312.148 254.574 309.676 254.868 306.5 254.875C305.335 254.873 304.17 254.87 302.969 254.868C300.071 254.796 300.071 254.796 298 256C278.934 257.226 278.934 257.226 271.715 251.043C268.482 247.696 265.705 244.702 264.938 240C265 237 265 237 266 236C268.379 235.668 268.379 235.668 271 236C272.59 237.864 272.59 237.864 273.938 240.313C276.302 244.593 278.391 246.273 283 248C286.589 248.397 286.589 248.397 290.25 248.25C292.083 248.227 292.083 248.227 293.953 248.204C296.917 248.203 296.917 248.203 299 247C308.132 246.201 316.408 246.231 324 252C325.766 254.172 325.766 254.172 327 256C334.635 252.375 338.914 247.724 342.117 239.852C345.595 228.618 340.93 217.407 335.813 207.375C332.198 200.978 327.916 195.446 323 190C321.9 188.777 321.9 188.777 320.778 187.528C311.639 177.874 299.367 170.907 285.895 169.832C259.476 169.585 237.191 187.486 219.53 205.463Z" fill="#0B6B3A"/>
<path d="M510 592C513.311 595.218 515.911 598.632 518.5 602.438C523.731 609.914 529.638 616.478 536 623C536.917 623.947 536.917 623.947 537.852 624.914C547.646 635.03 547.646 635.03 558.559 643.898C559.034 644.262 559.51 644.625 560 645C560 645.33 560 645.66 560 646C558.969 645.917 557.938 645.835 556.875 645.75C554.863 645.93 554.863 645.93 553 647C551.194 649.753 549.933 652.602 548.586 655.605C531.287 692.631 486.316 708.381 450.962 723.118C449.823 723.596 448.685 724.074 447.512 724.566C445.987 725.2 445.987 725.2 444.432 725.846C441.891 726.885 441.891 726.885 440 729C439.2 731.327 439.2 731.327 440 734C442.267 736.329 444.892 738.1 447.562 739.938C448.982 740.944 450.4 741.953 451.816 742.965C452.511 743.458 453.206 743.952 453.922 744.46C457.097 746.813 460.037 749.388 463 752C462 755 462 755 460.477 756.152C447.673 760.535 431.951 756.364 419.125 753.688C418.379 753.533 417.632 753.379 416.863 753.22C398.338 749.338 398.338 749.338 394 745C394.525 734.414 406.268 726.719 413.672 720.008C414.227 719.507 414.782 719.006 415.354 718.489C417.438 716.604 419.508 714.704 421.577 712.802C423.06 711.44 424.545 710.081 426.031 708.723C428.039 706.885 430.038 705.038 432.031 703.184C437.594 698.021 443.261 693.052 449.18 688.297C451.656 686.28 454.074 684.211 456.484 682.116C462.204 677.167 468.13 672.571 474.25 668.125C474.982 667.59 475.715 667.054 476.469 666.503C489.718 657 489.718 657 494 657C494.102 655.733 494.204 654.466 494.309 653.16C494.92 647.696 496.432 642.672 498.062 637.438C501.16 627.194 503.87 616.886 506.438 606.5C506.617 605.776 506.796 605.053 506.98 604.307C507.993 600.206 508.999 596.104 510 592Z" fill="#E7F8EB"/>
<path d="M709.188 629C725.723 633.337 740.986 644.052 751 658C751 658.66 751 659.32 751 660C749.903 660.476 749.903 660.476 748.784 660.962C745.459 662.409 742.136 663.861 738.812 665.312C737.662 665.812 736.512 666.312 735.326 666.826C734.214 667.313 733.103 667.799 731.957 668.301C730.425 668.968 730.425 668.968 728.863 669.65C726.119 670.944 723.57 672.392 721 674C721.108 675.245 721.108 675.245 721.219 676.516C721.926 685.91 722.11 695.267 722.125 704.688C722.13 705.917 722.134 707.146 722.139 708.413C722.137 709.58 722.135 710.747 722.133 711.949C722.132 712.994 722.131 714.039 722.129 715.116C722.006 717.861 721.548 720.315 721 723C720.758 727.039 720.769 731.079 720.75 735.125C720.729 736.203 720.709 737.28 720.688 738.391C720.656 744.89 721.419 750.411 723.314 756.625C724.132 759.457 724.401 762.055 724.375 765C724.387 766.33 724.387 766.33 724.398 767.688C724 770 724 770 722.852 771.75C718.577 774.636 712.869 774.123 707.893 774.114C707.209 774.114 706.526 774.114 705.821 774.114C703.581 774.113 701.342 774.106 699.102 774.098C697.541 774.096 695.98 774.094 694.419 774.093C690.326 774.09 686.232 774.08 682.139 774.069C677.956 774.058 673.773 774.054 669.59 774.049C661.393 774.038 653.197 774.021 645 774C645 773.01 645 772.02 645 771C649.415 767.513 654.285 765.429 659.438 763.25C665.522 760.607 671.506 757.846 677.375 754.75C678.292 754.275 678.292 754.275 679.228 753.79C682.689 751.931 685.722 750.237 688 747C688.232 743.637 688.232 743.637 687.562 739.812C687.413 738.724 687.413 738.724 687.26 737.614C686.106 729.743 684.461 721.942 682.766 714.171C680.201 702.117 679.804 690.106 679.75 677.812C679.729 676.619 679.709 675.426 679.688 674.197C679.623 659.519 683.996 650.022 694.176 639.58C704.715 629 704.715 629 709.188 629Z" fill="#E7F8EB"/>
<path d="M608 493C608.33 493 608.66 493 609 493C609.66 495.31 610.32 497.62 611 500C614.344 499.443 617.033 498.648 620 497C626.634 501.038 626.634 501.038 628 505C628.106 507.012 628.205 509.026 628.224 511.041C628.077 518.929 628.077 518.929 631.188 525.875C632.87 527.423 632.87 527.423 635 529C636.008 529.847 637.016 530.694 638.055 531.566C645.608 537.815 653.565 543.028 662 548C663.485 548.99 663.485 548.99 665 550C671.886 551.023 676.427 548.068 682.188 544.75C683.139 544.216 684.09 543.682 685.069 543.131C688.058 541.441 691.031 539.725 694 538C694.976 537.434 695.952 536.869 696.958 536.286C699.75 534.661 702.534 533.023 705.313 531.375C706.172 530.867 707.032 530.359 707.917 529.835C709.097 529.124 709.097 529.124 710.301 528.398C710.994 527.983 711.686 527.567 712.4 527.138C714.158 526.077 714.158 526.077 715 524C721.63 524.892 721.63 524.892 723.817 525.527C731.845 527.265 740.926 526.114 749 525C748.526 525.743 748.051 526.485 747.563 527.25C745.413 531.034 744.838 534.236 744.75 538.562C744.724 539.327 744.699 540.091 744.672 540.879C744.781 543.081 744.781 543.081 746.446 544.277C748.56 546.621 748.715 548.596 749.188 551.688C749.346 552.681 749.505 553.675 749.668 554.699C749.778 555.458 749.887 556.218 750 557C733.612 565.146 717.236 572.784 700 579C699.144 579.316 698.288 579.632 697.406 579.958C685.391 584.348 673.376 587.977 660.75 583.438C641.067 574.167 621.829 556.65 608.5 539.562C605.157 535.588 601.478 534.35 596.551 532.984C592.773 531.526 590.699 529.458 588.953 525.816C586.504 517.966 586.504 517.966 587 514C587.33 513.67 587.66 513.34 588 513C587.968 511.561 587.9 510.124 587.813 508.688C587.808 505.601 587.862 504.251 589.375 501.5C592.223 499.873 593.658 499.79 596.875 499.625C600.884 499.406 602.759 498.849 605.563 495.938C606.367 494.968 607.171 493.999 608 493Z" fill="#E7F8EB"/>
<path d="M848 574C848.651 588.243 846.99 599.38 838 611C837.526 611.615 837.051 612.23 836.562 612.863C832.82 617.449 828.504 621.185 824 625C823.024 625.864 822.048 626.727 821.043 627.617C808.004 639.116 793.932 649.145 779.5 658.812C778.598 659.418 777.695 660.023 776.765 660.646C775.925 661.202 775.085 661.759 774.219 662.332C773.476 662.824 772.732 663.316 771.967 663.823C770 665 770 665 767 666C766.478 665.201 765.956 664.402 765.418 663.578C753.558 645.754 738.611 630.034 717.926 622.789C716 622 716 622 714 620C718.747 615.154 723.53 610.435 728.691 606.031C730.572 604.377 732.398 602.692 734.215 600.969C734.787 600.429 735.359 599.889 735.948 599.333C737.086 598.257 738.218 597.175 739.345 596.087C745.873 589.933 745.873 589.933 751.083 590.045C753.65 590.256 756.194 590.555 758.75 590.875C792.134 594.504 820.194 574 848 574Z" fill="#E7F8EB"/>
<path d="M859 206C861.446 208.61 862 209.371 862 213C861.117 213.075 860.234 213.15 859.324 213.227C844.846 214.813 834.282 221.041 825.066 232.379C823.275 234.865 821.626 237.403 820 240C819.403 240.892 818.806 241.784 818.191 242.703C812.921 250.999 810.416 259.574 808 269C807.819 269.658 807.638 270.316 807.451 270.994C805.374 280.226 805.79 293.326 810.48 301.618C813.738 306.579 816.756 310.187 822 313C820.044 318.869 813.398 321.644 808.23 324.567C800.115 328.463 791.791 329.996 783 328C779.174 325.308 776.418 322.095 773.42 318.532C770.058 314.906 765.831 312.183 761.848 309.289C758.339 306.469 755.443 304.055 754.469 299.535C754.541 293.833 755.076 290.428 759 286C762.572 282.567 766.499 279.62 770.438 276.625C781.389 268.128 788.361 258.125 794.938 246.063C804.219 229.084 816.868 210.643 836 204C843.573 202.119 852.395 201.259 859 206Z" fill="#E7F8EB"/>
<path d="M871.285 224.742C877.103 229.01 880.24 235.119 881.336 242.155C882.881 262.228 875.521 279.136 862.688 294.375C855.065 302.459 846.255 307.757 835.063 308.438C828.426 308.296 824.37 305.242 819.688 300.813C814.113 291.521 813.319 280.392 815.914 269.969C820.961 252.027 830.393 234.386 846.813 224.563C854.535 220.777 863.726 220.321 871.285 224.742Z" fill="#E7F8EB"/>
<path d="M808 207.999C809.441 210.288 809.441 210.288 810 211.999C808.948 213.02 808.948 213.02 807.875 214.062C802.274 219.694 797.738 225.645 793.625 232.437C793.175 233.168 792.725 233.9 792.261 234.654C791.169 236.432 790.083 238.215 789 239.999C785.088 239.137 782.221 237.461 778.75 235.437C757.056 223.462 725.708 214.855 700.894 220.867C697.859 221.79 694.938 222.808 692 223.999C690.515 224.494 690.515 224.494 689 224.999C689 225.659 689 226.319 689 226.999C688.34 226.999 687.68 226.999 687 226.999C686.027 215.134 689.007 200.129 696.48 190.593C720.697 165.193 785.086 191.19 808 207.999Z" fill="#E7F8EB"/>
<path d="M804 488C824.376 499.732 835.993 520.299 842.215 542.387C843.237 546.239 844.137 550.111 845 554C845.255 555.061 845.51 556.122 845.773 557.215C846.38 560.52 846.746 562.788 844.945 565.715C837.831 572.67 826.948 575.9 817.625 578.75C816.991 578.949 816.357 579.147 815.704 579.352C804.052 582.712 791.964 583.336 779.911 583.261C777.869 583.25 775.827 583.261 773.785 583.273C751.942 583.303 751.942 583.303 746.554 579.085C744.685 577.126 743.202 575.429 742 573C743.34 568.979 745.822 568.11 749.375 566.25C749.965 565.921 750.556 565.593 751.164 565.254C752.733 564.416 754.365 563.7 756 563C756.99 563.33 757.98 563.66 759 564C763.501 564.305 766.725 564.285 770.875 562.5C774.105 561.126 776.498 560.896 780 561.062C785.203 561.19 788.895 560.286 793 557C799.629 549.502 801.204 542.031 801.266 532.297C801.129 529.964 801.129 529.964 799.969 527.949C798.25 524.491 799.421 520.691 800 517C800.148 516.038 800.296 515.077 800.449 514.086C800.782 511.937 801.119 509.789 801.457 507.641C802.431 501.11 803.209 494.555 804 488Z" fill="#E7F8EB"/>
<path d="M755 452C755.703 452.413 756.405 452.825 757.129 453.25C764.447 458.138 769.735 465.505 772 474C773.117 484.841 771.502 494.165 765.375 503.25C759.823 510.061 751.762 515.623 743 517C732.838 517.981 723.579 518.207 715 512C714.36 511.566 713.719 511.131 713.059 510.684C706.794 505.934 702.342 498.45 700 491C698.77 480.956 699.016 471.472 705 463C705.578 462.093 706.155 461.185 706.75 460.25C710.132 456.869 713.905 454.442 718 452C718.967 451.372 718.967 451.372 719.953 450.731C729.945 445.164 745.371 446.262 755 452Z" fill="#E7F8EB"/>
<path d="M688 396.999C689.052 397.577 690.104 398.154 691.187 398.749C698.223 404.378 703.517 410.947 705 419.999C705.883 431.853 704.544 440.095 696.875 449.312C689.592 456.942 680.223 460.958 669.687 461.312C659.603 461.064 651.523 457.767 644 450.999C637.981 443.868 634.61 437.681 634.687 428.249C634.693 427.538 634.699 426.826 634.704 426.093C634.946 415.618 638.435 408.778 645.629 401.308C656.963 390.816 674.557 389.303 688 396.999Z" fill="#E7F8EB"/>
<path d="M718 229C742.378 227.972 763.346 235.647 784 248C779.096 258.073 772.022 265.638 763.039 272.145C755.762 277.418 748.387 282.885 746 292C745.563 295.327 745.247 298.654 745 302C736.676 301.969 730.549 300.277 724 295C712.891 282.783 714.114 265.787 714.777 250.359C715.257 243.127 716.429 236.069 718 229Z" fill="#E7F8EB"/>
<path d="M837 174C837.971 174.7 837.971 174.7 838.961 175.414C844.693 179.849 849.034 185.992 853 192C853 192.66 853 193.32 853 194C852.045 194.026 851.09 194.052 850.105 194.078C838.67 194.58 829.75 196.913 819.973 203.145C818 204 818 204 816.008 203.824C813.62 202.844 811.865 201.569 809.812 200C786.832 183.604 759.473 175.678 731.5 174.438C730.582 174.394 729.664 174.351 728.719 174.307C726.479 174.202 724.24 174.1 722 174C731.587 163.905 742.836 159.43 756 156C757.307 155.631 757.307 155.631 758.641 155.254C784.547 148.865 816.319 158.034 837 174Z" fill="#E7F8EB"/>
<path d="M709 229C708.909 229.628 708.818 230.255 708.724 230.902C704.799 257.01 704.799 257.01 708 283C708.332 284.236 708.332 284.236 708.672 285.496C711.462 293.932 717.277 301.23 724.957 305.735C727.609 306.942 730.267 307.992 733 309C734.342 309.649 735.679 310.309 737 311C731.275 314.817 725.702 314.293 719 314C718.698 317.598 718.698 317.598 720.183 320.782C723.997 323.34 728.629 322.612 733 322C739.191 319.851 744.211 316.411 749 312C752.85 313.687 756.023 316.181 759.312 318.75C759.887 319.196 760.461 319.641 761.053 320.1C765.141 323.284 769.116 326.568 773 330C769.425 334.352 765.118 336.023 760 338C759.282 338.303 758.564 338.606 757.824 338.918C744.596 343.785 728.987 341.629 716 337C711.759 334.883 708.708 332.524 707 328C706.805 324.985 706.805 324.985 706.875 321.75C706.893 320.673 706.911 319.595 706.93 318.485C706.953 317.665 706.976 316.845 707 316C706.408 315.781 705.817 315.562 705.207 315.336C699.963 313.232 695.626 311.234 693 306C685.713 287.256 688.527 266.918 693.552 247.913C694.457 244.05 694.238 239.95 694.328 235.996C695 233 695 233 697.422 231.141C701.497 229.338 704.558 228.964 709 229Z" fill="#E7F8EB"/>
<path d="M302 804C307.398 804.223 311.176 806.571 315.688 809.25C341.386 823.944 368.738 835.27 397 844C397.775 844.242 398.55 844.483 399.348 844.732C424.074 852.362 449.326 857.001 475 860C475.987 860.119 476.975 860.237 477.992 860.359C505.503 863.56 533.446 862.591 560.914 859.445C563.928 859.104 566.902 858.84 569.938 858.812C570.668 858.798 571.399 858.784 572.152 858.77C574 859 574 859 576 861C576.25 863.5 576.25 863.5 576 866C570.855 871.145 559.824 870.551 552.879 871.105C551.841 871.189 550.802 871.273 549.733 871.36C538.469 872.206 527.229 872.354 515.938 872.312C514.876 872.31 513.814 872.308 512.721 872.306C449.449 872.101 346.936 858.936 300 812C299.812 809.062 299.812 809.062 300 806C300.66 805.34 301.32 804.68 302 804Z" fill="#0B6B3A"/>
<path d="M153.063 343.938C154.517 343.968 154.517 343.968 156 344C157.293 345.926 157.293 345.926 158 349C156.849 352.278 155.052 355.19 153.313 358.188C116.888 424.423 108.486 502.987 129.239 575.497C130.641 580.106 132.307 584.598 134.117 589.062C135.16 592.533 135.286 595.395 135 599C133 601 133 601 130.563 601.375C128 601 128 601 126.457 599.266C115.074 581.565 111.17 552.558 109 532C108.816 530.562 108.629 529.125 108.442 527.688C103.341 486.531 108.589 442.211 122 403C122.297 402.131 122.594 401.261 122.901 400.365C127.035 388.468 131.766 376.932 137.188 365.562C137.674 364.539 138.161 363.515 138.663 362.461C147.649 344.048 147.649 344.048 153.063 343.938Z" fill="#0B6B3A"/>
<path d="M628.82 815.441C631 816 631 816 633 818C633.531 820.691 633.531 820.691 633 824C631.138 826.636 628.861 828.75 626.5 830.938C625.861 831.551 625.222 832.164 624.563 832.796C622.725 834.549 620.867 836.278 619 838C618.14 838.802 617.28 839.604 616.395 840.43C611.539 844.82 611.539 844.82 608 846C608 846.66 608 847.32 608 848C608.501 847.711 609.003 847.423 609.52 847.125C618.344 842.795 627.425 843.646 637 844C635.433 839.504 634.092 838.369 630 836C630 835.01 630 834.02 630 833C631.437 832.919 632.874 832.861 634.312 832.812C635.513 832.76 635.513 832.76 636.738 832.707C639 833 639 833 640.422 834.52C641.971 836.286 641.971 836.286 644.715 836.18C662.557 834.493 679.63 828.708 695.874 821.272C702.367 818.303 702.367 818.303 705 818C707.312 819.688 707.312 819.688 709 822C708.798 824.701 708.332 825.713 706.27 827.494C705.532 827.951 704.795 828.408 704.035 828.879C703.219 829.392 702.404 829.905 701.563 830.434C700.717 830.951 699.871 831.468 699 832C698.223 832.492 697.445 832.985 696.644 833.492C672.987 848.414 648.284 858.753 620 860C620.605 860.257 621.209 860.514 621.833 860.779C624.598 861.955 627.361 863.134 630.125 864.312C631.076 864.717 632.028 865.121 633.008 865.537C646.15 871.15 646.15 871.15 648 873C648.188 875.438 648.188 875.438 648 878C646 880 646 880 642.246 880.008C636.02 879.155 630.589 876.429 624.952 873.767C621.756 872.258 618.542 870.788 615.328 869.316C614.382 868.881 614.382 868.881 613.416 868.438C607.409 865.693 601.305 863.271 595.104 861.005C590.188 859.188 590.188 859.188 588 857C587.543 854.207 587.543 854.207 588 851C589.741 848.918 591.257 847.393 593.312 845.688C593.859 845.21 594.405 844.733 594.968 844.241C599.205 840.568 603.61 837.105 607.996 833.613C612.544 829.657 616.689 825.295 620.786 820.876C625.33 816.133 625.33 816.133 628.82 815.441Z" fill="#0B6B3A"/>
<path d="M320.438 341.874C321.646 342.892 322.834 343.933 324 344.999C324.903 345.767 324.903 345.767 325.824 346.55C332.691 352.791 337.668 361.207 338.203 370.538C338.476 384.55 335.857 395.344 326.117 406.073C315.037 416.413 302.676 418.588 288.094 418.312C282.384 418.063 277.9 416.993 273 413.999C271.842 413.346 271.842 413.346 270.66 412.679C260.153 406.28 254.836 397.507 251 385.999C250.207 370.722 251.533 360.148 261.594 348.089C276.801 331.77 302.11 328.712 320.438 341.874ZM277 347.999C276.305 348.435 275.61 348.871 274.895 349.32C267.894 354.127 262.421 360.795 260 368.999C258.939 378.862 260.109 387.56 265.953 395.73C271.325 402.088 277.598 407.474 286 408.999C298.229 410.023 307.587 409.172 317.406 400.995C323.985 394.715 327.479 388.603 328.336 379.386C328.44 369.525 327.687 361.652 320.813 354.187C311.801 345.987 301.84 343.388 289.918 343.687C284.822 344.093 281.265 345.247 277 347.999Z" fill="#0B6B3A"/>
<path d="M195 239C196.252 241.486 197.359 243.94 198.438 246.5C204.198 259.416 212.432 270.785 222.16 281.02C223.93 282.925 225.48 284.893 227 287C225.478 291.651 221.72 293.544 217.812 296.063C217.165 296.497 216.517 296.93 215.85 297.377C204.2 305.023 204.2 305.023 198 304C183.118 294.959 170.478 273.246 166 257C165.25 253.813 165.25 253.813 166 251C173.089 241.611 183.197 235.066 195 239Z" fill="#E7F8EB"/>
<path d="M894 406C896.938 406 896.938 406 900 407C928.044 453.933 918.785 526.958 906.563 576.625C897.666 611.334 897.666 611.334 892 617C889.241 617.29 887.563 617.319 885.125 615.938C883.374 612.922 884.219 610.246 885 607C886.029 603.906 887.155 600.856 888.289 597.798C894.802 580.196 898.619 562.428 902 544C902.196 543.018 902.392 542.036 902.594 541.024C905.222 527.648 905.214 514.156 905.24 500.574C905.25 497.599 905.281 494.625 905.313 491.65C905.415 473.36 903.187 455.687 899.063 437.875C898.823 436.787 898.584 435.699 898.338 434.578C896.874 428.102 895.048 421.897 892.767 415.661C891.977 412.921 891.704 410.832 892 408C892.66 407.34 893.32 406.68 894 406Z" fill="#0B6B3A"/>
<path d="M274 430C282.01 432.702 288.021 437.669 292.133 445.027C293.372 447.846 293.311 449.95 293 453C291.671 456.076 290.797 457.586 287.805 459.14C284.487 460.157 281.774 460.126 278.312 460C274.961 459.832 274.961 459.832 272 460C269.659 462.341 269.636 463.387 269 466.562C267.071 473.382 262.382 476.731 257 481C255.62 482.182 254.245 483.369 252.875 484.562C251.926 485.367 250.977 486.171 250 487C245.592 485.631 243.601 483.76 240.812 480.125C239.801 478.829 239.801 478.829 238.769 477.508C236.055 473.661 234.279 470.804 235 466C236.875 463.687 236.875 463.687 239 462C239.66 462 240.32 462 241 462C241.309 461.381 241.619 460.762 241.937 460.125C242.625 458.75 243.312 457.375 244 456C244.24 453.98 244.467 451.959 244.687 449.937C245.862 442.075 248.535 436.808 254.723 431.793C260.61 428.572 267.485 428.948 274 430Z" fill="#E7F8EB"/>
<path d="M553 406C556.061 407.738 558.402 409.803 560 413C560.733 417.992 560.822 422.583 557.938 426.875C550.576 435.475 538.425 445.721 528 450C524.934 449.792 522.679 449.346 519.941 447.949C517.488 446.75 515.654 446.767 512.938 446.812C512.08 446.819 511.223 446.825 510.34 446.832C507.845 446.914 507.845 446.914 505 448C504.529 447.036 504.059 446.071 503.574 445.078C502.946 443.802 502.317 442.526 501.688 441.25C501.379 440.616 501.07 439.981 500.752 439.328C499.082 435.953 497.271 432.99 495 430C495 429.34 495 428.68 495 428C502.454 424.524 509.92 421.074 517.398 417.651C519.716 416.589 522.031 415.522 524.344 414.45C527.409 413.033 530.484 411.638 533.562 410.25C534.482 409.82 535.401 409.39 536.348 408.948C541.84 406.503 546.95 404.813 553 406Z" fill="#E7F8EB"/>
<path d="M207 734C211.734 734.504 215.84 736.557 220.125 738.5C225.489 740.933 225.489 740.933 231 743C230.67 743.701 230.34 744.402 230 745.125C228.825 748.504 228.431 750.448 229 754C234.232 763.246 245.209 768.271 255 771C254.812 772.875 254.812 772.875 254 775C249.657 777.699 244.813 777.262 239.875 777.188C239.083 777.187 238.292 777.186 237.476 777.186C233.202 777.155 228.996 776.935 224.742 776.512C220.578 776.102 216.449 775.891 212.265 775.789C210.539 775.747 210.539 775.747 208.777 775.703C206.41 775.651 204.043 775.607 201.676 775.57C195.388 775.401 190.557 775.039 185 772C184.44 765.707 185.944 762.48 189.312 757.438C189.754 756.753 190.196 756.068 190.652 755.363C195.482 748.018 200.764 740.236 207 734Z" fill="#E7F8EB"/>
<path d="M523.375 166.625C525.202 166.627 525.202 166.627 527.065 166.628C561.741 166.71 618.111 167.184 647 189C648 191.5 648 191.5 648 194C647 195.875 647 195.875 645 197C640.338 196.55 636.083 195.536 631.633 194.11C630.43 193.732 629.227 193.355 627.988 192.966C627.359 192.767 626.729 192.568 626.081 192.364C590.969 181.351 554.499 176.828 517.75 176.813C516.483 176.812 515.216 176.811 513.91 176.81C508.16 176.846 502.688 177.1 497 178C494.228 178.159 491.464 178.185 488.688 178.188C487.973 178.2 487.258 178.212 486.521 178.225C484.679 178.23 482.838 178.123 481 178C479 176 479 176 478.75 173.5C479 171 479 171 481 169C494.76 165.92 509.372 166.601 523.375 166.625Z" fill="#0B6B3A"/>
<path d="M153.938 608.812C157 609 157 609 159 611C159.414 612.343 159.784 613.699 160.125 615.062C162.343 622.008 167.301 627.658 173.562 631.375C177.015 633.007 180.465 634.557 184 636C184 637.98 184 639.96 184 642C183.42 642.242 182.84 642.485 182.242 642.734C171.783 647.222 163.477 653.162 159 664C158.3 665.989 157.623 667.986 157 670C154.125 670.125 154.125 670.125 151 670C148.773 667.773 148.363 666.386 147.375 663.438C143.852 654.558 138.72 649.487 130.062 645.5C128.042 644.665 126.022 643.831 124 643C123 642 123 642 122.938 638.938C122.958 637.968 122.979 636.999 123 636C123.629 635.781 124.258 635.562 124.906 635.336C136.22 631.144 142.247 625.681 148 615C148.678 613.338 149.348 611.672 150 610C151 609 151 609 153.938 608.812Z" fill="#0B6B3A"/>
<path d="M440.5 155.75C443 156 443 156 445 158C445.578 159.675 446.114 161.365 446.625 163.062C449.454 171.124 454.512 176.911 462 181C463.661 181.68 465.327 182.349 467 183C468 184 468 184 468.188 186.438C468 189 468 189 466 191C465.092 191.289 464.185 191.577 463.25 191.875C456.658 194.157 451.837 198.25 448 204C446.78 206.619 445.735 209.241 444.762 211.961C444 214 444 214 443 215C441 215.041 439 215.043 437 215C436.804 214.383 436.608 213.765 436.406 213.129C433.555 205.056 429.644 198.411 421.848 194.363C418.923 193.15 415.979 192.068 413 191C412 190 412 190 411.812 187.562C412 185 412 185 414 183C415.052 182.567 416.104 182.134 417.188 181.688C424.057 178.817 429.524 174.695 433 168C433.903 165.398 434.657 162.809 435.324 160.137C436.313 157.01 437.213 156.079 440.5 155.75Z" fill="#0B6B3A"/>
<path d="M876 338C879.257 338.418 880.634 338.634 883 341C883.598 342.549 884.155 344.114 884.688 345.688C887.564 353.017 891.781 357.208 898.938 360.438C900.285 360.975 901.637 361.502 903 362C902.797 364.316 902.797 364.316 902 367C899.891 368.59 899.891 368.59 897.25 369.938C889.491 374.308 886.437 379.683 883.016 387.707C882 390 882 390 881 391C878.562 391.188 878.562 391.188 876 391C873.762 388.762 873.24 387.205 872.188 384.25C868.986 376.159 864.91 372.546 857.109 368.98C855 368 855 368 854 367C853.812 364.562 853.812 364.562 854 362C856 360 856 360 859.312 358.625C867.609 355.121 870.903 349.034 874.25 341C874.498 340.34 874.745 339.68 875 339C875.33 338.67 875.66 338.34 876 338Z" fill="#0B6B3A"/>
<path d="M375.652 395.864C380.499 398.211 383.925 400.978 386 406.001C387.22 414.351 384.835 421.531 380.375 428.563C378.348 432.156 377.746 435.973 377 440.001C368.447 440.632 363.425 439.023 356.437 434.251C354.174 430.708 355.192 428.042 356 424.001C356.771 424.024 357.542 424.047 358.336 424.071C359.84 424.098 359.84 424.098 361.375 424.126C362.373 424.149 363.37 424.172 364.398 424.196C367.163 424.273 367.163 424.273 369 422.001C368.68 419.398 368.68 419.398 368 417.001C367.287 416.914 366.574 416.828 365.84 416.739C359.214 415.767 355.029 414.483 350 410.001C348.636 405.908 348.26 402.271 349 398.001C355.375 389.323 366.905 392.277 375.652 395.864Z" fill="#E7F8EB"/>
<path d="M860 243C863.025 244.736 865.418 246.836 867 250C868.189 260.875 865.166 271.181 858.758 280.02C854.5 284.817 849.79 288.274 843.25 288.688C839.693 288.445 838.965 287.972 836 285.625C832.17 280.598 832.557 276.167 833 270C835.071 259.327 841.344 250.375 850 244C853.229 242.386 856.51 242.404 860 243Z" fill="#0B6B3A"/>
<path d="M158 257C158.092 257.996 158.183 258.993 158.277 260.02C158.902 264.346 160.558 267.837 162.563 271.688C163.098 272.733 163.098 272.733 163.645 273.8C170.703 287.307 182.204 307.913 197.617 312.836C208.051 313.734 218.334 306.271 226.188 300.125C226.841 299.571 227.495 299.016 228.168 298.445C230.026 296.979 231.853 295.981 234 295C234.813 297.688 234.813 297.688 235 301C233.386 303.115 232.052 304.367 230 306C229.305 306.597 228.61 307.194 227.895 307.809C218.809 315.412 206.773 325.202 194.563 326.312C188.912 324.231 185.23 320.182 181 316C180.392 315.452 179.783 314.904 179.156 314.34C168.633 304.635 161.888 291.838 156 279C155.459 277.855 154.917 276.711 154.359 275.531C150.453 266.861 150.453 266.861 152 261C155.263 257 155.263 257 158 257Z" fill="#E7F8EB"/>
<path d="M540 327C544.213 327.527 546.892 330.088 550 332.75C550.781 333.396 550.781 333.396 551.578 334.055C554.799 336.771 557.565 339.558 560 343C560 343.66 560 344.32 560 345C561.052 344.897 562.104 344.794 563.188 344.688C567 345 567 345 569.625 347C576.798 356.061 576.798 356.061 577.312 361C577.209 361.66 577.106 362.32 577 363C575.02 363 573.04 363 571 363C571.012 363.955 571.023 364.91 571.035 365.895C571.089 373.666 570.9 381.268 570 389C569.34 389 568.68 389 568 389C567.732 388.348 567.464 387.695 567.188 387.023C563.062 377.822 557.358 373.519 548.137 369.746C545.031 368.662 542.292 368.219 539 368C538.054 367.937 537.108 367.874 536.133 367.809C527.737 367.497 520.858 369.148 513 372C511.515 372.495 511.515 372.495 510 373C512.4 367 518.523 363.716 524.121 360.953C528.924 359.059 533.945 357.995 539 357C539 357.66 539 358.32 539 359C539.75 359.075 540.5 359.15 541.273 359.227C550.307 360.387 557.683 363.239 564 370C564.039 368.861 564.039 368.861 564.078 367.699C564.163 366.208 564.163 366.208 564.25 364.688C564.296 363.701 564.343 362.715 564.391 361.699C565 359 565 359 567.047 357.145C567.691 356.767 568.336 356.389 569 356C567.879 355.546 567.879 355.546 566.734 355.082C556.815 350.862 556.815 350.862 554 346C553.505 344.515 553.505 344.515 553 343C552.706 343.855 552.412 344.709 552.109 345.59C550.679 349.113 549.332 351.987 547 355C542.94 356.475 539.262 356.651 535 356C534.34 355.34 533.68 354.68 533 354C533.375 351.375 533.375 351.375 534 349C535.258 348.938 536.516 348.876 537.812 348.812C540.896 348.403 541.732 348.268 544 346C545.362 341.913 545.865 338.255 545 334C542.646 331.06 542.646 331.06 540 329C540 328.34 540 327.68 540 327Z" fill="#0B6B3A"/>
<path d="M321 496C321.99 496.495 321.99 496.495 323 497C312.549 506.548 312.549 506.548 308 510.5C304.791 513.288 301.641 516.135 298.5 519C287.752 528.78 276.737 538.409 265 547C260.789 545.496 259.168 542.793 257 539C257 538.01 257 537.02 257 536C259.268 534.022 261.507 532.258 263.938 530.5C264.66 529.97 265.383 529.439 266.128 528.893C282.076 517.314 299.027 507.183 316.504 498.086C317.318 497.661 318.132 497.236 318.971 496.798C319.975 496.403 319.975 496.403 321 496Z" fill="#E7F8EB"/>
<path d="M552 342C554 343 554 343 555.375 346.25C558.308 351.764 564.413 353.094 570 355C569.355 355.531 568.711 356.062 568.047 356.609C565.482 359.605 565.419 361.357 565.25 365.25C565.193 366.328 565.137 367.405 565.078 368.516C565.052 369.335 565.027 370.155 565 371C564.238 370.403 564.238 370.403 563.461 369.793C555.66 363.789 548.568 361.183 539 359C539 358.34 539 357.68 539 357C538.01 357.33 537.02 357.66 536 358C536 357.34 536 356.68 536 356C537.121 355.923 537.121 355.923 538.266 355.844C544.026 355.357 544.026 355.357 548.586 352.227C550.221 348.92 551.149 345.579 552 342Z" fill="#E7F8EB"/>
<path d="M153 627C153.436 627.375 153.871 627.75 154.32 628.137C154.916 628.648 155.511 629.16 156.125 629.688C156.758 630.233 157.391 630.778 158.043 631.34C159.816 632.844 161.621 634.298 163.438 635.75C164.283 636.493 165.129 637.235 166 638C166 638.66 166 639.32 166 640C164.355 641.551 164.355 641.551 162.188 643.312C159.066 645.953 156.81 648.267 155 652C151.609 650.569 149.762 648.829 147.438 646C145.326 643.442 143.8 641.867 141 640C141 639.34 141 638.68 141 638C142.696 636.803 144.394 635.61 146.109 634.441C148.917 632.301 150.856 629.794 153 627Z" fill="#E7F8EB"/>
<path d="M857 252C857.869 261.22 856.437 267.441 851 275C848.375 277.75 848.375 277.75 846 279C843.687 278.75 843.687 278.75 842 278C841.256 269.965 843.829 264.279 848.597 257.844C853.471 252 853.471 252 857 252Z" fill="#E7F8EB"/>
<path d="M440 175C440.701 175.722 441.402 176.444 442.125 177.188C444.09 179.169 446.132 180.947 448.312 182.688C449.643 183.832 449.643 183.832 451 185C451 185.66 451 186.32 451 187C449.355 188.621 449.355 188.621 447.188 190.438C444.689 192.545 442.276 194.652 440 197C439.625 196.541 439.25 196.082 438.863 195.609C435.825 191.967 432.846 188.828 429 186C429.459 185.625 429.918 185.25 430.391 184.863C434.033 181.825 437.172 178.846 440 175Z" fill="#E7F8EB"/>
<path d="M878 356C879.129 356.933 880.253 357.871 881.375 358.812C882.001 359.335 882.628 359.857 883.273 360.395C885 362 885 362 887 365C884.147 367.932 881.349 370.643 878 373C877.423 372.257 876.845 371.515 876.25 370.75C874.277 368.339 872.24 366.16 870 364C870.619 363.752 871.238 363.505 871.875 363.25C874.389 361.771 874.853 360.621 876 358C876.66 357.34 877.32 356.68 878 356Z" fill="#E7F8EB"/>
<path d="M630 833C631.457 832.919 632.916 832.861 634.375 832.812C635.187 832.778 635.999 832.743 636.836 832.707C637.55 832.804 638.264 832.9 639 833C639.66 833.99 640.32 834.98 641 836C639.68 836 638.36 836 637 836C637 836.66 637 837.32 637 838C638.32 838.66 639.64 839.32 641 840C641 841.32 641 842.64 641 844C638.547 845.226 636.949 845.114 634.211 845.098C633.27 845.094 632.329 845.091 631.359 845.088C630.375 845.08 629.39 845.071 628.375 845.062C626.886 845.056 626.886 845.056 625.367 845.049C622.911 845.037 620.456 845.021 618 845C618 844.67 618 844.34 618 844C624.27 844 630.54 844 637 844C634.863 838.658 634.503 838.607 630 836C630 835.01 630 834.02 630 833Z" fill="#0B6B3A"/>
<path d="M213 198C213.66 198.33 214.32 198.66 215 199C209.287 205.302 203.578 211.559 197.461 217.477C195.899 218.954 195.899 218.954 195 221C194.34 221 193.68 221 193 221C194.355 216.939 196.085 214.558 199.133 211.574C199.938 210.778 200.744 209.982 201.574 209.162C202.416 208.345 203.258 207.529 204.125 206.688C204.974 205.852 205.824 205.016 206.699 204.154C208.793 202.096 210.893 200.045 213 198Z" fill="#0B6B3A"/>
<path d="M553.938 486.562C554.958 486.779 554.958 486.779 556 487C555.381 487.083 554.762 487.165 554.125 487.25C553.424 487.498 552.723 487.745 552 488C551.737 488.563 551.474 489.127 551.203 489.707C549.562 492.835 547.149 495.023 544.625 497.438C541.157 500.78 537.935 504.168 535 508C534.34 507.67 533.68 507.34 533 507C549.438 487.233 549.438 487.233 553.938 486.562Z" fill="#0B6B3A"/>
<path d="M522 362C522.66 362.33 523.32 362.66 524 363C522.68 364.65 521.36 366.3 520 368C520.66 368.33 521.32 368.66 522 369C518 370.333 514 371.667 510 373C511.497 369.11 513.704 367.531 517.125 365.25C518.49 364.33 518.49 364.33 519.883 363.391C520.931 362.702 520.931 362.702 522 362Z" fill="#0B6B3A"/>
<path d="M836 221C836 224 836 224 833.918 226.34C833.017 227.197 832.116 228.054 831.188 228.938C828.174 231.82 825.391 234.576 823 238C822.34 237.67 821.68 237.34 821 237C825.575 230.986 830.066 225.698 836 221Z" fill="#0B6B3A"/>
<path d="M636 839C638.475 839.495 638.475 839.495 641 840C641 841.32 641 842.64 641 844C638.547 845.226 636.949 845.114 634.211 845.098C633.27 845.094 632.329 845.091 631.359 845.088C630.375 845.08 629.39 845.071 628.375 845.062C627.382 845.058 626.39 845.053 625.367 845.049C622.911 845.037 620.456 845.021 618 845C618 844.67 618 844.34 618 844C624.27 844 630.54 844 637 844C636.67 842.35 636.34 840.7 636 839Z" fill="#0B6B3A"/>
<path d="M213 471C213 474 213 474 210.883 476.121C209.973 476.886 209.063 477.65 208.125 478.438C203.752 482.107 203.752 482.107 201 487C200.5 484.438 200.5 484.438 201 481C204.472 477.081 208.82 474.116 213 471Z" fill="#0B6B3A"/>
<path d="M868 650C869.65 650 871.3 650 873 650C873.33 651.65 873.66 653.3 874 655C871.69 655 869.38 655 867 655C867.33 653.35 867.66 651.7 868 650Z" fill="#E7F8EB"/>
<path d="M322 497C322.66 497.33 323.32 497.66 324 498C317.07 504.435 317.07 504.435 310 511C309.67 510.01 309.34 509.02 309 508C310.602 506.539 312.207 505.082 313.812 503.625C314.706 502.813 315.599 502.001 316.52 501.164C319 499 319 499 322 497Z" fill="#0B6B3A"/>
<path d="M572 351C574.325 353.853 575.751 356.541 577 360C576.01 359.34 575.02 358.68 574 358C574 357.34 574 356.68 574 356C573.051 356.516 572.103 357.031 571.125 357.562C570.094 358.037 569.062 358.511 568 359C567.34 358.67 566.68 358.34 566 358C566.99 357.34 567.98 356.68 569 356C568.34 355.34 567.68 354.68 567 354C568.65 354 570.3 354 572 354C572 353.01 572 352.02 572 351Z" fill="#0B6B3A"/>
<path d="M719 319C726.425 319.99 726.425 319.99 734 321C733.67 321.66 733.34 322.32 733 323C731.231 323.108 729.459 323.186 727.688 323.25C726.701 323.296 725.715 323.343 724.699 323.391C722 323 722 323 719 319Z" fill="#0B6B3A"/>
<path d="M321 496C321.66 496.33 322.32 496.66 323 497C319.04 500.465 319.04 500.465 315 504C313.68 503.01 312.36 502.02 311 501C312.62 500.136 314.246 499.284 315.875 498.438C316.78 497.962 317.685 497.486 318.617 496.996C319.797 496.503 319.797 496.503 321 496Z" fill="#E7F8EB"/>
<path d="M713 169C713.99 169.33 714.98 169.66 716 170C712.575 174.128 710.575 176.315 705.125 176.875C703.751 176.943 702.376 176.994 701 177C704.228 174.848 705.284 174.799 709 175C709.433 174.072 709.433 174.072 709.875 173.125C711 171 711 171 713 169Z" fill="#0B6B3A"/>
<path d="M778 257C778.33 257.99 778.66 258.98 779 260C776.03 262.97 773.06 265.94 770 269C769.01 268.67 768.02 268.34 767 268C767.459 267.625 767.918 267.25 768.391 266.863C772.033 263.825 775.172 260.846 778 257Z" fill="#0B6B3A"/>
<path d="M585 457C585.66 457.33 586.32 457.66 587 458C583.37 461.63 579.74 465.26 576 469C576 465.001 577.353 463.933 580 461C581.634 459.626 583.293 458.281 585 457Z" fill="#E7F8EB"/>
<path d="M696 179C696 182 696 182 694.469 183.824C693.819 184.439 693.169 185.054 692.5 185.688C691.85 186.31 691.201 186.933 690.531 187.574C690.026 188.045 689.521 188.515 689 189C688.34 188.67 687.68 188.34 687 188C688.121 186.684 689.247 185.372 690.375 184.062C691.001 183.332 691.628 182.601 692.273 181.848C694 180 694 180 696 179Z" fill="#0B6B3A"/>
<path d="M734 588C734.66 588.33 735.32 588.66 736 589C735.095 590.155 734.176 591.299 733.25 592.438C732.74 593.076 732.229 593.714 731.703 594.371C729.803 596.188 728.564 596.604 726 597C726.957 595.874 727.916 594.749 728.875 593.625C729.409 592.999 729.942 592.372 730.492 591.727C731.614 590.442 732.794 589.206 734 588Z" fill="#0B6B3A"/>
<path d="M577 360C577.33 361.32 577.66 362.64 578 364C577.196 364.227 576.391 364.454 575.562 364.688C574.717 365.121 573.871 365.554 573 366C572.106 368.548 572.106 368.548 572 371C571.67 371 571.34 371 571 371C571 368.36 571 365.72 571 363C572.98 363 574.96 363 577 363C577 362.01 577 361.02 577 360Z" fill="#E7F8EB"/>
<path d="M756 276C756.66 276 757.32 276 758 276C756.445 279.817 753.964 282.192 751 285C750.34 284.67 749.68 284.34 749 284C750.118 282.661 751.245 281.329 752.375 280C753.315 278.886 753.315 278.886 754.273 277.75C754.843 277.173 755.413 276.595 756 276Z" fill="#0B6B3A"/>
<path d="M574 454C574.33 454.99 574.66 455.98 575 457C573.02 458.98 571.04 460.96 569 463C568.34 462.67 567.68 462.34 567 462C569.31 459.36 571.62 456.72 574 454Z" fill="#0B6B3A"/>
<path d="M540 327C543.796 327.542 545.472 329.201 548 332C546.25 332.75 546.25 332.75 544 333C541.75 331.188 541.75 331.188 540 329C540 328.34 540 327.68 540 327Z" fill="#0B6B3A"/>
<path d="M565 381C567.475 381.495 567.475 381.495 570 382C570 384.31 570 386.62 570 389C569.34 389 568.68 389 568 389C567.01 386.36 566.02 383.72 565 381Z" fill="#0B6B3A"/>
<path d="M335 582C336.274 584.547 335.802 585.428 335.062 588.125C334.868 588.849 334.673 589.574 334.473 590.32C334.239 591.152 334.239 591.152 334 592C333.67 592 333.34 592 333 592C333 590.02 333 588.04 333 586C332.01 585.67 331.02 585.34 330 585C331.65 584.01 333.3 583.02 335 582Z" fill="#E7F8EB"/>
<path d="M232 504C232 507 232 507 230.688 508.387C229.125 509.591 227.562 510.796 226 512C225.34 511.67 224.68 511.34 224 511C226.64 508.69 229.28 506.38 232 504Z" fill="#0B6B3A"/>
<path d="M543 439C543 439.99 543 440.98 543 442C540 444.188 540 444.188 537 446C536.34 445.67 535.68 445.34 535 445C537.64 443.02 540.28 441.04 543 439Z" fill="#0B6B3A"/>
<path d="M641 393C641 396 641 396 638.5 398.688C637.675 399.451 636.85 400.214 636 401C635.34 400.67 634.68 400.34 634 400C636.333 397.667 638.667 395.333 641 393Z" fill="#0B6B3A"/>
<path d="M346 388C346.66 388 347.32 388 348 388C346.707 390.884 345.341 392.872 343 395C342.34 394.67 341.68 394.34 341 394C342.616 391.959 344.286 389.959 346 388Z" fill="#0B6B3A"/>
<path d="M633 838C634.32 838.66 635.64 839.32 637 840C636.67 840.99 636.34 841.98 636 843C634.35 843 632.7 843 631 843C631.66 841.35 632.32 839.7 633 838Z" fill="#E7F8EB"/>
<path d="M393 727C393 730.908 391.494 732.116 389 735C388.34 734.67 387.68 734.34 387 734C388.98 731.69 390.96 729.38 393 727Z" fill="#0B6B3A"/>
<path d="M153.062 343.938C154.517 343.968 154.517 343.968 156 344C155.402 344.268 154.804 344.536 154.188 344.812C151.957 345.889 151.957 345.889 150.375 347.625C149.921 348.079 149.468 348.532 149 349C148.34 349 147.68 349 147 349C149.414 344.012 149.414 344.012 153.062 343.938Z" fill="#0B6B3A"/>
</g>
<defs>
<clipPath id="clip0_78_774">
<rect width="1024" height="1024" fill="white"/>
</clipPath>
</defs>
</svg>
