<svg width="1024" height="1024" viewBox="0 0 1024 1024" fill="none" xmlns="http://www.w3.org/2000/svg">
<g clip-path="url(#clip0_75_602)">
<path d="M0 0C337.92 0 675.84 0 1024 0C1024 337.92 1024 675.84 1024 1024C686.08 1024 348.16 1024 0 1024C0 686.08 0 348.16 0 0Z" fill="#E7F8EB"/>
<path d="M561.625 267.625C569.666 275.201 574.034 284.633 577.75 294.875C578.165 295.985 578.581 297.095 579.009 298.238C580.35 301.821 581.675 305.411 583 309C583.933 311.503 584.867 314.006 585.805 316.508C586.036 317.129 586.268 317.749 586.507 318.389C587.674 321.505 588.865 324.609 590.087 327.704C592.139 332.911 594.085 337.926 595.242 343.41C596.518 348.581 597.807 352.507 602 356C612.178 361.647 624.019 364.428 635.17 367.486C638.829 368.514 642.412 369.75 646 371C647.488 371.501 648.976 372.001 650.465 372.5C652.749 373.266 655.033 374.032 657.316 374.803C661.394 376.17 665.46 377.415 669.625 378.5C677.617 380.866 682.69 386.077 687 393C689.636 400.91 688.556 409.844 685.375 417.433C681.242 425.147 675.421 430.371 667.453 433.965C654.959 437.71 642.178 434.393 630 431C628.615 430.632 627.229 430.267 625.844 429.902C615.73 427.202 605.753 424.079 595.767 420.947C588.933 418.827 582.093 416.995 575.125 415.375C554.677 410.501 541.386 398.557 530.437 380.937C527 375.302 527 375.302 527 373C513.608 380.2 501.213 387.927 489.937 398.187C489.413 398.662 488.889 399.137 488.349 399.626C484.661 403.088 481.84 406.815 479 411C480.067 411.412 480.067 411.412 481.156 411.832C484.011 413.004 486.747 414.308 489.508 415.687C490.568 416.216 491.628 416.745 492.72 417.29C493.843 417.854 494.967 418.419 496.125 419C497.284 419.581 498.443 420.162 499.637 420.76C508.806 425.369 517.914 430.082 526.965 434.918C528.918 435.956 530.879 436.978 532.844 437.996C543.494 443.573 550.617 449.365 556.18 460.324C559.484 471.104 556.694 483.376 553.624 493.846C552.991 496.029 552.4 498.22 551.82 500.418C549.38 509.613 546.788 518.764 544.156 527.906C543.104 531.562 542.052 535.219 541 538.875C540.736 539.79 540.473 540.705 540.202 541.648C536.331 555.111 532.657 568.591 529.474 582.236C529 584 529 584 528 586C527.393 588.913 527.194 590.203 528 593C529.778 595.319 529.778 595.319 532.062 597.625C539.445 605.381 544.634 613.269 544.75 624.187C544.539 631.929 542.582 638.001 537.39 643.797C535.677 645.385 533.938 646.697 532 648C531.427 648.412 530.855 648.825 530.265 649.25C523.118 653.648 514.699 652.795 506.722 651.445C488.513 646.898 461.39 635.534 451 619C445.606 609.213 445.967 598.36 448.93 587.872C449.221 586.904 449.512 585.935 449.812 584.937C450.118 583.884 450.423 582.83 450.738 581.744C454.138 570.196 457.9 558.758 461.645 547.318C464.166 539.613 466.602 531.888 468.937 524.125C474.982 504.036 474.982 504.036 477 500C475.769 499.603 474.538 499.206 473.269 498.797C456.45 493.181 440.03 486.088 423.639 479.332C422.117 478.706 420.595 478.083 419.071 477.462C395.504 467.853 365.666 455.437 355.043 430.711C348.905 414.757 352.484 399.37 358.625 384C366.445 366.73 378.227 351.852 391 338C391.753 337.144 392.505 336.288 393.281 335.406C397.254 330.888 401.267 326.694 405.871 322.82C408.299 320.744 410.608 318.56 412.937 316.375C420.229 309.737 428.074 303.855 436 298C436.699 297.481 437.398 296.962 438.119 296.428C468.7 273.872 525.804 238.047 561.625 267.625ZM487 285C486.231 285.367 485.462 285.734 484.67 286.113C452.953 301.484 420.338 325.453 398 353C397.006 354.171 396.011 355.342 395.015 356.512C385.769 367.492 378.06 378.946 372 392C371.573 392.918 371.573 392.918 371.137 393.855C366.97 403.116 366.161 414.711 369.023 424.5C378.393 444.792 404.628 454.848 424 463C424.954 463.404 425.909 463.807 426.892 464.223C436.831 468.409 446.805 472.358 456.992 475.898C460.742 477.272 464.322 478.906 467.93 480.613C470.378 481.719 472.823 482.742 475.32 483.73C476.082 484.033 476.843 484.336 477.628 484.649C479.136 485.245 480.648 485.834 482.163 486.413C489.631 489.382 489.631 489.382 492 493C492.727 499.38 491.223 504.796 489.375 510.875C489.104 511.792 488.833 512.71 488.555 513.656C486.363 521.001 483.97 528.274 481.504 535.531C479.116 542.573 476.917 549.676 474.698 556.773C474.056 558.82 473.408 560.865 472.758 562.91C471.733 566.148 470.725 569.391 469.73 572.638C469.189 574.389 468.64 576.138 468.086 577.885C467.082 581.064 466.102 584.25 465.125 587.437C464.802 588.444 464.479 589.451 464.147 590.489C461.986 597.644 461.27 603.624 464.062 610.687C474.889 623.609 499.277 635.563 515.875 637.437C520.708 636.761 523.757 635.112 527.375 631.875C529.686 627.786 529.968 624.586 529 620C525.57 612.61 518.793 604.491 512.23 599.711C510.109 596.762 510.62 593.449 511 590C511.578 587.047 512.383 584.193 513.25 581.312C513.477 580.524 513.705 579.736 513.939 578.924C515.251 574.408 516.645 569.921 518.062 565.437C519.586 560.58 520.81 555.709 521.937 550.75C523.757 542.757 525.991 534.933 528.368 527.09C531.613 516.365 534.705 505.596 537.75 494.812C538.056 493.737 538.362 492.661 538.677 491.553C538.964 490.531 539.251 489.509 539.547 488.457C539.931 487.095 539.931 487.095 540.323 485.706C542.346 477.618 543.774 469.421 539.33 461.95C533.816 453.864 524.129 450.3 515.625 446.187C513.445 445.119 511.268 444.048 509.09 442.976C507.665 442.274 506.24 441.574 504.815 440.875C499.675 438.35 494.598 435.727 489.562 433C483.574 429.773 477.489 426.82 471.321 423.954C442.21 410.419 442.21 410.419 440 406C439.553 400.745 439.553 400.745 441.125 398.125C443.907 396.456 445.772 396.723 449 397C451.693 397.955 454.205 399.205 456.75 400.5C461.175 402.992 461.175 402.992 466 404C467.244 402.347 467.244 402.347 468.5 400.187C480.807 381.359 499.862 369.94 519 359C518.543 357.411 518.081 355.824 517.617 354.238C517.36 353.354 517.104 352.47 516.839 351.56C516.096 349.292 515.239 347.291 514.125 345.187C512.274 341.664 510.731 338.069 509.25 334.375C508.822 333.31 508.394 332.245 507.953 331.148C506.613 326.722 506.539 323.382 508 319C509.436 318.918 510.874 318.86 512.312 318.812C513.513 318.76 513.513 318.76 514.738 318.707C517.587 319.076 518.165 319.839 520 322C521.024 323.951 521.024 323.951 521.945 326.183C522.47 327.436 522.47 327.436 523.006 328.714C523.375 329.613 523.744 330.512 524.125 331.437C524.927 333.344 525.73 335.25 526.535 337.156C526.944 338.128 527.353 339.1 527.774 340.101C540.672 373.143 540.672 373.143 565.782 396.258C573.617 399.224 581.494 401.751 589.562 404C590.777 404.343 591.991 404.686 593.242 405.04C601.253 407.286 609.293 409.377 617.377 411.343C624.973 413.201 632.403 415.524 639.847 417.914C647.711 420.281 655.722 421.864 663.437 418.25C668.269 415.434 671.463 412.506 673 407C673.526 402.867 673.418 400.728 671.332 397.094C667.009 392.189 660.277 390.859 654.25 388.937C652.919 388.497 651.589 388.056 650.26 387.613C643.711 385.447 637.131 383.401 630.5 381.5C623.225 379.401 615.989 377.189 608.794 374.83C607.489 374.407 606.182 373.993 604.871 373.59C592.042 369.628 592.042 369.628 588.19 363.394C585.718 358.419 583.58 353.362 581.562 348.187C581.084 346.986 580.605 345.785 580.111 344.547C577.171 337.127 574.361 329.664 571.633 322.163C569.164 315.392 566.614 308.654 564 301.937C563.609 300.902 563.217 299.867 562.814 298.8C558.852 288.728 553.656 279.49 544 274C526.211 266.884 503.065 277.26 487 285Z" fill="#0B6B3A"/>
<path d="M757 499C758.599 499.38 760.198 499.759 761.797 500.137C770.644 502.284 778.909 504.746 787 509C788.203 509.605 789.406 510.209 790.609 510.813C798.618 514.892 805.905 519.448 813 525C813.852 525.649 814.704 526.297 815.582 526.965C843.253 548.431 860.497 580.049 865.586 614.503C869.429 646.929 862.098 680.234 843 707C842.254 708.059 841.507 709.117 840.738 710.207C819.725 739.143 788.765 756.849 754 764C753.184 764.175 752.368 764.351 751.528 764.531C716.8 771.522 678.943 761.173 649.644 742.11C645.534 739.336 641.739 736.249 638 733C636.772 731.954 636.772 731.954 635.52 730.887C610.311 708.883 592.652 677.399 589.188 643.875C589.099 641.918 589.04 639.959 589 638C588.97 637.355 588.941 636.71 588.91 636.046C587.278 600.151 599.505 566.662 623.658 540.183C643.039 519.483 643.039 519.483 651.695 518.641C655 519 655 519 657.438 521.125C659.281 524.517 659.466 526.189 659 530C657.094 532.309 657.094 532.309 654.5 534.438C653.584 535.21 652.667 535.982 651.723 536.778C650.824 537.511 649.926 538.244 649 539C633.328 552.372 622.571 566.318 614 585C613.59 585.847 613.18 586.694 612.758 587.567C601.363 612.962 603.236 644.984 612.625 670.563C624.246 700.519 645.762 722.203 674 737C675.07 737.569 676.14 738.137 677.242 738.723C704.452 752.258 739.028 752.891 767.67 743.693C796.961 733.704 822.078 714.555 836.246 686.664C838.291 682.496 840.183 678.272 842 674C842.422 673.013 842.843 672.025 843.277 671.008C848.367 658.064 849.556 644.937 849.438 631.188C849.433 630.074 849.433 630.074 849.429 628.938C849.34 612.815 847.187 598.622 840 584C839.575 583.125 839.575 583.125 839.141 582.232C823.398 550.189 797.051 529.038 763.688 517.625C762.996 517.386 762.304 517.148 761.591 516.902C750.144 513.186 738.854 512.701 726.934 512.794C724.477 512.813 722.02 512.815 719.563 512.815C717.99 512.82 716.417 512.825 714.844 512.832C714.115 512.833 713.385 512.834 712.634 512.836C709.271 512.867 706.223 513.014 703 514C698.717 514.46 695.22 514.714 691.438 512.5C689.343 508.857 689.722 506.166 690 502C710.157 492.88 735.904 493.553 757 499Z" fill="#0B6B3A"/>
<path d="M303 496C304.373 496.027 304.373 496.027 305.774 496.055C322.291 496.777 341.07 501.054 355.813 508.688C356.491 509.033 357.169 509.379 357.867 509.736C367.225 514.583 376.249 519.789 384 527C383.662 530.047 383.169 531.775 381.313 534.25C378.31 536.522 376.789 536.909 373 537C369.895 535.691 367.144 533.878 364.313 532.063C336.078 514.894 302.845 507.499 270.125 515.125C236.384 523.608 209.012 543.616 191.017 573.289C183.571 585.82 179.152 599.077 177.359 613.523C177 616 177 616 176 618C173.099 651.121 184.38 682.431 205.32 707.813C220.346 724.984 239.684 737 261.188 744.375C261.875 744.614 262.563 744.853 263.271 745.099C274.643 748.78 286.193 749.322 298.063 749.25C299.97 749.262 299.97 749.262 301.916 749.273C322.895 749.23 342.85 743.422 361 733C361.9 732.484 361.9 732.484 362.818 731.958C391.819 714.998 409.476 689.219 418.188 657.125C418.47 655.993 418.752 654.861 419.043 653.695C420 651 420 651 423 649C426.544 648.678 429.128 648.642 432.438 650C434.824 653.055 434.303 656.3 434 660C433.406 662.734 432.767 665.283 431.938 667.938C431.603 669.031 431.603 669.031 431.261 670.146C425.519 688.353 417.387 703.396 405 718C404.122 719.062 404.122 719.062 403.227 720.145C384.368 742.459 354.641 758.628 325.938 763.625C325.282 763.746 324.627 763.867 323.951 763.992C297.797 768.724 270.535 766.433 246 756C245.298 755.706 244.597 755.412 243.874 755.109C211.466 741.319 183.696 715.341 170.086 682.523C156.927 649.104 155.599 612.155 169.911 578.882C176.262 564.854 184.23 552.058 195 541C195.954 539.973 196.907 538.946 197.859 537.918C214.245 520.55 234.356 509.079 257 502C258.223 501.608 259.447 501.216 260.707 500.813C274.277 496.814 288.872 495.344 303 496Z" fill="#0B6B3A"/>
<path d="M644.375 441.5C649.019 442.141 650.005 443.452 653 447C654.417 449.52 655.495 452.134 656.566 454.816C656.882 455.577 657.197 456.337 657.522 457.12C658.547 459.596 659.554 462.079 660.562 464.562C661.276 466.292 661.99 468.02 662.706 469.748C664.142 473.214 665.572 476.682 666.999 480.152C681.596 515.595 697.533 550.415 714.808 584.628C716.33 587.657 717.839 590.692 719.348 593.727C720.277 595.593 721.206 597.46 722.136 599.326C723.03 601.122 723.922 602.92 724.814 604.717C725.382 605.856 725.95 606.995 726.535 608.168C727.096 609.296 727.657 610.425 728.235 611.587C729.453 613.943 730.691 616.225 732.027 618.51C732.677 619.637 733.327 620.765 733.996 621.926C734.595 622.926 735.193 623.927 735.81 624.958C737.292 628.746 736.912 631.082 736 635C734.938 636.938 734.938 636.938 733 638C729.595 638.505 726.344 638.978 723.453 636.875C721.452 634.293 720.169 631.571 718.75 628.625C715.612 622.193 712.361 615.83 709.043 609.489C695.001 582.638 681.646 555.423 669.582 527.623C667.72 523.36 665.83 519.109 663.938 514.859C662.887 512.496 661.837 510.133 660.787 507.769C660.099 506.223 659.411 504.678 658.722 503.133C657.764 500.985 656.811 498.835 655.859 496.684C655.569 496.036 655.279 495.388 654.981 494.721C653 490.228 653 490.228 653 488C647.051 493.045 641.501 498.39 636.033 503.949C634.257 505.745 632.48 507.541 630.704 509.337C629.764 510.289 628.825 511.24 627.886 512.192C624.96 515.155 622.028 518.111 619.094 521.066C618.597 521.567 618.1 522.068 617.588 522.584C616.572 523.607 615.557 524.63 614.541 525.653C607.723 532.521 600.909 539.393 594.114 546.284C589.513 550.95 584.901 555.604 580.277 560.247C577.836 562.699 575.401 565.156 572.978 567.626C570.281 570.376 567.56 573.103 564.838 575.828C564.043 576.645 563.249 577.463 562.43 578.305C556.312 584.367 556.312 584.367 552.131 585.14C549 585 549 585 546.062 582.938C544 580 544 580 543.312 577.125C544.273 572.761 546.66 569.925 550 567C550.66 567 551.32 567 552 567C552 566.34 552 565.68 552 565C552.66 565 553.32 565 554 565C554.22 564.452 554.441 563.904 554.668 563.34C556.419 560.265 558.789 557.998 561.312 555.562C561.786 555.098 562.26 554.633 562.748 554.154C564.163 552.767 565.581 551.383 567 550C569.477 547.535 571.942 545.059 574.395 542.57C575.192 541.763 575.99 540.956 576.812 540.125C577.603 539.323 578.393 538.521 579.207 537.695C581.274 535.701 583.343 533.836 585.524 531.976C590.717 527.446 595.549 522.576 600.406 517.691C601.381 516.715 602.356 515.738 603.331 514.762C605.872 512.218 608.409 509.671 610.946 507.123C613.546 504.513 616.148 501.906 618.75 499.299C623.836 494.202 628.919 489.102 634 484C633.047 484.056 633.047 484.056 632.075 484.114C625.407 484.508 618.739 484.896 612.07 485.282C609.588 485.426 607.106 485.571 604.625 485.718C601.038 485.93 597.451 486.137 593.863 486.344C592.771 486.409 591.679 486.475 590.554 486.543C587.37 486.723 584.186 486.869 581 487C579.828 487.06 578.656 487.119 577.448 487.181C576.293 487.217 575.137 487.254 573.946 487.291C572.902 487.332 571.858 487.372 570.782 487.414C567.28 486.893 566.16 485.741 564 483C563.228 480.041 563.602 478.133 564 475C566.919 471.662 570.166 471.533 574.345 471.228C575.177 471.181 576.01 471.134 576.867 471.086C577.738 471.026 578.61 470.966 579.507 470.904C582.296 470.715 585.085 470.545 587.875 470.375C589.714 470.254 591.552 470.131 593.391 470.008C596.963 469.769 600.536 469.539 604.11 469.315C608.28 469.052 612.444 468.741 616.609 468.418C622.541 467.988 628.43 467.881 634.375 467.938C635.783 467.944 635.783 467.944 637.219 467.951C639.479 467.963 641.74 467.979 644 468C643.567 467.094 643.134 466.188 642.688 465.254C639.535 458.447 636.871 452.649 638 445C640.124 442.263 640.794 442.03 644.375 441.5Z" fill="#0B6B3A"/>
<path d="M402 480C406.464 480.764 410.263 482.278 414.403 484.062C417.017 485.173 417.017 485.173 420.043 484.996C423 486 423 486 424.226 487.95C425.402 490.621 426.41 493.308 427.375 496.062C427.73 497.012 428.084 497.961 428.449 498.939C429.322 501.286 430.171 503.638 431 506C433.548 504.786 435.58 503.571 437.875 501.875C441.407 499.756 442.968 499.228 447 500C449.938 502.125 449.938 502.125 452 505C451.911 508.859 451.385 510.562 448.821 513.484C447.931 514.232 447.042 514.98 446.125 515.75C445.241 516.508 444.357 517.266 443.446 518.047C441 520 441 520 438 522C440.223 530.194 443.386 537.717 446.947 545.408C449.19 550.434 450.745 554.376 450 560C447.53 563.415 446.089 564.778 441.938 565.625C438.001 564.787 437.28 563.259 435 560C433.997 557.975 433.067 555.912 432.203 553.824C431.72 552.667 431.237 551.51 430.739 550.318C430.247 549.12 429.756 547.922 429.25 546.688C428.744 545.47 428.237 544.252 427.715 542.998C426.47 540.002 425.232 537.002 424 534C421.133 535.351 418.635 536.886 416.086 538.766C415.334 539.319 414.583 539.872 413.808 540.442C413.005 541.039 412.202 541.635 411.375 542.25C410.536 542.871 409.696 543.492 408.831 544.132C402.336 548.958 395.935 553.897 389.564 558.885C384.73 562.668 379.857 566.391 374.938 570.062C363.42 578.661 352.023 587.412 340.688 596.25C334.926 600.742 329.142 605.194 323.28 609.556C319.39 612.451 315.512 615.363 311.633 618.273C310.528 619.102 310.528 619.102 309.401 619.948C307.601 621.299 305.8 622.649 304 624C304.707 624.001 305.413 624.001 306.141 624.002C323.334 624.017 340.527 624.059 357.72 624.132C366.034 624.167 374.349 624.192 382.663 624.196C389.91 624.199 397.156 624.219 404.403 624.261C408.24 624.282 412.077 624.294 415.915 624.286C419.527 624.279 423.139 624.294 426.751 624.328C428.708 624.34 430.664 624.328 432.62 624.314C442.186 624.44 442.186 624.44 445.288 627.385C447 630 447 630 447.625 632.5C446.713 636.15 444.858 637.613 442 640C439.046 640.629 439.046 640.629 435.714 640.635C434.446 640.649 433.179 640.663 431.873 640.678C430.476 640.668 429.079 640.658 427.682 640.647C426.205 640.654 424.728 640.663 423.251 640.674C419.245 640.696 415.239 640.687 411.232 640.672C407.036 640.659 402.839 640.671 398.642 640.679C391.592 640.688 384.543 640.676 377.493 640.652C369.352 640.625 361.21 640.633 353.068 640.661C346.072 640.684 339.076 640.687 332.079 640.674C327.904 640.666 323.728 640.665 319.552 640.681C315.623 640.696 311.696 640.686 307.767 640.657C306.328 640.65 304.89 640.652 303.451 640.663C289.914 640.758 289.914 640.758 284 635C281.64 631.1 281.317 627.481 282 623C286.156 615.976 293.483 611.324 299.917 606.553C304.056 603.467 308.148 600.32 312.25 597.188C314.073 595.799 315.896 594.411 317.719 593.023C322.4 589.458 327.077 585.888 331.75 582.312C332.439 581.786 333.127 581.259 333.836 580.717C335.891 579.145 337.946 577.572 340 576C345.665 571.665 351.332 567.331 357 563C357.815 562.377 358.63 561.754 359.469 561.113C369.01 553.823 378.57 546.562 388.188 539.375C394.89 534.359 401.562 529.305 408.188 524.188C408.961 523.594 409.734 523.001 410.53 522.39C411.236 521.842 411.941 521.295 412.668 520.73C413.29 520.25 413.911 519.769 414.552 519.274C416.136 518.041 416.136 518.041 417 516C416.502 514.084 416.502 514.084 415.594 511.957C415.101 510.727 415.101 510.727 414.598 509.472C414.236 508.594 413.873 507.717 413.5 506.812C413.138 505.92 412.776 505.028 412.403 504.108C409.566 497.192 406.493 490.409 403.25 483.676C402 481 402 481 402 480Z" fill="#0B6B3A"/>
<path d="M621.258 179.804C637.13 178.997 651.588 185.219 663.375 195.5C664.934 196.982 666.478 198.48 668 200C668.575 200.563 669.15 201.126 669.742 201.707C678.716 211.262 683.051 224.588 683.312 237.5C683.243 239.668 683.14 241.835 683 244C682.942 244.965 682.884 245.931 682.824 246.926C681.055 262.674 671.591 275.844 659.687 285.75C645.688 296.031 630.047 298.779 613 297C602.951 295.228 594.166 291.1 586 285C585.37 284.563 584.739 284.126 584.09 283.676C573.469 275.619 566.758 261.734 564 249C563.102 237.411 562.858 225.639 568 215C568.526 213.83 568.526 213.83 569.062 212.636C576.291 198.104 589.538 187.739 604.5 182.25C610.044 180.525 615.518 180.301 621.258 179.804ZM588 211C580.584 220.165 577.575 230.217 578 242C580.223 254.781 585.831 265.802 596 274C607.272 281.709 620.099 283.754 633.484 281.383C645.779 278.349 655.805 271.576 662.398 260.691C668.025 250.267 669.653 238.843 666.746 227.316C662.541 214.261 654.042 205.312 642 199C622.558 190.711 602.454 195.8 588 211Z" fill="#0B6B3A"/>
<path d="M694 392C718.045 395.579 718.045 395.579 726 402C726.907 402.577 727.815 403.155 728.75 403.75C735.675 410.675 738.337 418.351 738.385 427.958C738.126 439.701 732.027 448.666 724.16 456.934C713.252 467.306 698.379 470.225 683.777 470.496C680.319 469.878 679.175 468.697 677 466C675.383 462.766 675.524 460.572 676 457C680.436 451.229 685.984 449.862 692.875 448.875C702.428 447.406 711.076 445.089 718 438C721.234 432.502 721.887 427.239 721 421C719.19 416.75 717.094 414.781 713.062 412.75C707.239 410.413 701.193 409.782 695 409C694.67 403.39 694.34 397.78 694 392Z" fill="#0B6B3A"/>
<path d="M228.554 417.483C229.522 417.476 230.49 417.469 231.488 417.461C234.689 417.444 237.889 417.455 241.09 417.469C243.314 417.466 245.539 417.462 247.763 417.457C252.426 417.451 257.089 417.46 261.752 417.479C267.729 417.501 273.705 417.488 279.681 417.464C284.275 417.45 288.869 417.455 293.463 417.465C295.667 417.468 297.87 417.464 300.074 417.455C303.155 417.445 306.235 417.46 309.316 417.483C310.227 417.474 311.138 417.466 312.076 417.458C316.19 417.513 318.46 417.681 322.066 419.814C324 422 324 422 324.625 425.5C324 429 324 429 322.066 431.187C317.77 433.728 314.223 433.561 309.316 433.518C307.862 433.528 307.862 433.528 306.378 433.539C303.177 433.557 299.978 433.545 296.777 433.531C294.552 433.534 292.327 433.538 290.101 433.543C285.44 433.549 280.779 433.54 276.118 433.522C270.14 433.499 264.163 433.512 258.185 433.536C253.591 433.55 248.997 433.546 244.403 433.535C242.199 433.533 239.994 433.536 237.79 433.545C234.711 433.555 231.633 433.54 228.554 433.518C227.642 433.526 226.729 433.534 225.788 433.542C219.65 433.46 219.65 433.46 216.434 431.187C214.32 427.963 214.462 425.765 215 422C218.417 416.79 222.901 417.432 228.554 417.483Z" fill="#0B6B3A"/>
<path d="M201.934 455.369C202.824 455.362 203.714 455.355 204.631 455.347C207.567 455.33 210.502 455.35 213.438 455.371C215.481 455.37 217.525 455.368 219.568 455.364C223.849 455.361 228.129 455.376 232.409 455.403C237.894 455.437 243.378 455.431 248.863 455.412C253.082 455.402 257.301 455.411 261.52 455.426C263.542 455.431 265.564 455.431 267.586 455.424C270.414 455.419 273.239 455.439 276.067 455.467C276.901 455.46 277.735 455.454 278.595 455.447C282.534 455.512 284.572 455.743 288.023 457.815C290 460 290 460 290.563 463.5C290 467 290 467 288.529 469.185C284.783 471.874 281.487 471.568 276.981 471.533C276.07 471.542 275.159 471.551 274.22 471.56C271.209 471.582 268.199 471.575 265.188 471.566C263.095 471.572 261.003 471.578 258.911 471.585C254.526 471.596 250.142 471.591 245.757 471.576C240.134 471.559 234.512 471.583 228.89 471.618C224.569 471.64 220.249 471.638 215.929 471.63C213.856 471.629 211.782 471.636 209.709 471.651C206.812 471.668 203.917 471.654 201.02 471.631C200.161 471.643 199.303 471.655 198.419 471.667C192.609 471.574 192.609 471.574 189.472 468.617C187.79 465.627 187.246 464.353 188 461C192.162 455.491 195.495 455.279 201.934 455.369Z" fill="#0B6B3A"/>
<path d="M412 557C424.247 568.941 432.868 592.867 434.313 609.625C434 613 434 613 432.438 614.938C429.086 616.399 426.621 616.388 423 616C420.891 614.918 420.891 614.918 419 613C418.016 609.84 418.016 609.84 417.25 605.938C414.366 592.846 408.576 580.763 401.25 569.578C399.745 566.474 399.617 564.411 400 561C403.549 556.913 406.725 555.727 412 557Z" fill="#0B6B3A"/>
<path d="M354 448C354.66 448 355.32 448 356 448C357.114 449.423 357.114 449.423 358.25 450.875C367.905 462.378 382.979 469.133 396 476C396 476.33 396 476.66 396 477C370.226 477.538 370.226 477.538 361 471C356.791 466.962 353.17 463.409 352.867 457.336C352.87 456.359 352.872 455.382 352.875 454.375C352.872 453.393 352.87 452.41 352.867 451.398C353 449 353 449 354 448Z" fill="#0B6B3A"/>
<path d="M408 321C408 324 408 324 406.164 326.177C405.326 326.999 404.488 327.821 403.625 328.668C402.723 329.561 401.82 330.453 400.891 331.373C399.927 332.311 398.964 333.25 398 334.188C397.036 335.137 396.072 336.087 395.109 337.037C392.746 339.365 390.376 341.685 388 344C387.34 343.67 386.68 343.34 386 343C386.424 342.588 386.848 342.175 387.285 341.75C390.479 338.605 393.538 335.42 396.438 332C399.949 327.914 403.863 324.439 408 321Z" fill="#0B6B3A"/>
<path d="M219 539C219.66 539.33 220.32 539.66 221 540C214.73 546.27 208.46 552.54 202 559C201.34 558.67 200.68 558.34 200 558C205.694 551.548 211.368 545.506 218 540C218.33 539.67 218.66 539.34 219 539Z" fill="#E7F8EB"/>
<path d="M582 535C582.66 535.33 583.32 535.66 584 536C582.239 538.009 580.467 540.007 578.688 542C578.188 542.572 577.688 543.145 577.174 543.734C575.844 545.214 574.426 546.613 573 548C572.01 548 571.02 548 570 548C571.436 546.395 572.874 544.791 574.312 543.188C575.113 542.294 575.914 541.401 576.738 540.48C578.452 538.601 580.179 536.774 582 535Z" fill="#0B6B3A"/>
<path d="M412 557C412 557.33 412 557.66 412 558C410.36 558.371 410.36 558.371 408.688 558.75C405.083 559.722 405.083 559.722 403 561.687C401.562 565.012 402.265 567.527 403 571C400.824 568.642 400.034 567.202 399.5 564C400 561 400 561 402.062 558.625C405.617 556.659 407.998 556.686 412 557Z" fill="#0B6B3A"/>
<path d="M487 379C487 382 487 382 485.031 384.043C484.196 384.751 483.361 385.458 482.5 386.188C481.665 386.903 480.829 387.618 479.969 388.355C479.319 388.898 478.669 389.441 478 390C477.34 389.67 476.68 389.34 476 389C481.445 384.05 481.445 384.05 487 379Z" fill="#0B6B3A"/>
<path d="M648 442C648 442.33 648 442.66 648 443C646.02 443 644.04 443 642 443C639.88 446.534 639.468 449.944 639 454C638.67 454 638.34 454 638 454C637.919 452.563 637.861 451.125 637.812 449.687C637.778 448.887 637.743 448.086 637.707 447.262C638 445 638 445 639.281 443.219C642.032 441.268 644.741 441.815 648 442Z" fill="#0B6B3A"/>
<path d="M289 615C289.66 615.33 290.32 615.66 291 616C290.049 617.173 289.089 618.338 288.125 619.5C287.591 620.15 287.058 620.799 286.508 621.469C286.01 621.974 285.513 622.479 285 623C284.34 623 283.68 623 283 623C284.443 619.634 286.333 617.49 289 615Z" fill="#0B6B3A"/>
</g>
<defs>
<clipPath id="clip0_75_602">
<rect width="1024" height="1024" fill="white"/>
</clipPath>
</defs>
</svg>
